<svg width="22" height="22" viewBox="0 0 22 22" fill="none" xmlns="http://www.w3.org/2000/svg">
<path d="M20.6687 9.89465C20.3803 9.48809 20.1581 9.03833 20.0106 8.56215C19.9132 8.07282 19.8886 7.5718 19.9375 7.07527C19.9969 6.68514 19.9606 6.28643 19.8319 5.9134C19.5688 5.61186 19.2372 5.37782 18.865 5.2309C18.4122 5.02404 17.9931 4.75013 17.6219 4.4184C17.2901 4.04718 17.0162 3.6281 16.8094 3.17527C16.6625 2.80305 16.4284 2.47149 16.1269 2.2084C15.7447 2.05924 15.3311 2.00893 14.9244 2.06215C14.4278 2.10713 13.9273 2.08251 13.4375 1.98902C12.9698 1.83915 12.5285 1.61709 12.1294 1.3309C11.8008 1.07144 11.4126 0.898275 11 0.827148C10.596 0.90211 10.2166 1.07509 9.895 1.3309C9.48844 1.61937 9.03868 1.84151 8.5625 1.98902C8.07317 2.08643 7.57215 2.11107 7.07562 2.06215C6.68549 2.00279 6.28678 2.03903 5.91375 2.16777C5.609 2.43775 5.37473 2.77801 5.23125 3.15902C5.02439 3.61185 4.75048 4.03093 4.41875 4.40215C4.04753 4.73388 3.62845 5.00779 3.17562 5.21465C2.8034 5.36157 2.47184 5.59561 2.20875 5.89715C2.06365 6.2718 2.01341 6.67651 2.0625 7.07527C2.11142 7.5718 2.08678 8.07282 1.98937 8.56215C1.8395 9.02982 1.61745 9.47119 1.33125 9.87027C1.0718 10.1988 0.898626 10.5871 0.827499 10.9996C0.902461 11.4037 1.07544 11.7831 1.33125 12.1046C1.61972 12.5112 1.84186 12.961 1.98937 13.4371C2.08678 13.9265 2.11142 14.4275 2.0625 14.924C2.00314 15.3142 2.03938 15.7129 2.16812 16.0859C2.43121 16.3874 2.76277 16.6215 3.135 16.7684C3.58783 16.9753 4.00691 17.2492 4.37812 17.5809C4.70985 17.9521 4.98376 18.3712 5.19062 18.824C5.33755 19.1962 5.57159 19.5278 5.87312 19.7909C6.24616 19.9196 6.64487 19.9559 7.035 19.8965H7.56313C7.89409 19.8874 8.22478 19.9229 8.54625 20.0021C9.01392 20.152 9.45529 20.3741 9.85437 20.6603C10.1759 20.9161 10.5554 21.0891 10.9594 21.164C11.3634 21.0891 11.7428 20.9161 12.0644 20.6603C12.4839 20.3708 12.9476 20.1513 13.4375 20.0103C13.9268 19.9129 14.4279 19.8882 14.9244 19.9371C15.3145 19.9965 15.7132 19.9603 16.0863 19.8315C16.3878 19.5684 16.6218 19.2369 16.7688 18.8646C16.9756 18.4118 17.2495 17.9927 17.5812 17.6215C17.9525 17.2898 18.3715 17.0159 18.8244 16.809C19.1966 16.6621 19.5282 16.4281 19.7913 16.1265C19.9404 15.7444 19.9907 15.3308 19.9375 14.924C19.8886 14.4275 19.9132 13.9265 20.0106 13.4371C20.1605 12.9695 20.3826 12.5281 20.6687 12.129C20.9282 11.8005 21.1014 11.4122 21.1725 10.9996C21.0975 10.5956 20.9246 10.2162 20.6687 9.89465ZM13.4375 12.259L13.9981 15.5496L11 13.9978L8.0425 15.5496L8.60312 12.259L6.21437 9.92715L9.52125 9.44777L11 6.44965L12.4787 9.44777L15.7856 9.92715L13.4375 12.259Z" fill="#D328F9"/>
</svg>
