<svg width="11" height="11" viewBox="0 0 11 11" fill="none" xmlns="http://www.w3.org/2000/svg">
<g clip-path="url(#clip0_44_5157)">
<path d="M6.70312 3.09375L4.46875 1.89062L6.70312 0.6875V3.09375Z" fill="#D328F9"/>
<path d="M6.53125 10.3125L4.21094 6.1875H2.66406L0.34375 10.3125H6.53125Z" fill="#D328F9"/>
<path d="M10.6562 10.3125L7.45611 4.46875H5.95014L2.75 10.3125H10.6562Z" fill="#F5C8FF"/>
<path d="M7.75735 4.30418C7.62699 4.04762 7.27569 4.14205 7.04669 4.12552V0.688327C7.04602 0.629117 7.03016 0.571069 7.00064 0.519738C6.97112 0.468407 6.92893 0.425508 6.87809 0.395146C6.82725 0.364784 6.76947 0.347975 6.71028 0.346326C6.65109 0.344676 6.59247 0.358243 6.54002 0.385727L4.30592 1.58874C4.25192 1.61869 4.20692 1.66255 4.17559 1.71576C4.14426 1.76897 4.12773 1.82959 4.12773 1.89134C4.12773 1.95309 4.14426 2.01371 4.17559 2.06692C4.20692 2.12013 4.25192 2.16399 4.30592 2.19394L6.35927 3.29963V4.12552C6.12972 4.14198 5.77878 4.04781 5.64862 4.30418L4.61131 6.19845C4.52629 6.03581 4.42714 5.83582 4.21109 5.84414L2.66441 5.84412C2.60342 5.84412 2.54353 5.86035 2.49088 5.89114C2.43823 5.92193 2.39473 5.96618 2.36483 6.01934L0.0448089 10.144C0.0161295 10.1964 0.0015037 10.2553 0.00235444 10.3151C0.00320517 10.3748 0.0195035 10.4333 0.0496636 10.4849C0.0798238 10.5364 0.122819 10.5793 0.174465 10.6093C0.226112 10.6394 0.284651 10.6555 0.344387 10.6562H10.6556C10.715 10.6555 10.7733 10.6395 10.8247 10.6098C10.8762 10.5801 10.9191 10.5377 10.9494 10.4866C10.9797 10.4354 10.9963 10.3774 10.9977 10.318C10.999 10.2586 10.985 10.1999 10.9571 10.1474L7.75735 4.30418ZM5.19389 1.89135L6.35927 1.26383V2.51888L5.19389 1.89135ZM0.93211 9.96876L2.86546 6.53156H4.01005L4.22223 6.90896L2.54667 9.96876H0.93211ZM3.33043 9.96876L6.15377 4.81296H6.35927V5.32854C6.35927 5.4197 6.39548 5.50712 6.45994 5.57158C6.5244 5.63604 6.61182 5.67225 6.70298 5.67225C6.79414 5.67225 6.88156 5.63604 6.94602 5.57158C7.01048 5.50712 7.04669 5.4197 7.04669 5.32854V4.81296H7.25219L10.0755 9.96876H3.33043Z" fill="#520064"/>
<path d="M6.7029 6.35938C6.61254 6.36059 6.52629 6.39734 6.46282 6.46167C6.39935 6.526 6.36377 6.61273 6.36377 6.7031C6.36377 6.79347 6.39936 6.8802 6.46283 6.94453C6.5263 7.00886 6.61255 7.0456 6.70291 7.04681C6.79328 7.0456 6.87952 7.00885 6.94299 6.94452C7.00646 6.88019 7.04205 6.79346 7.04205 6.70309C7.04204 6.61272 7.00646 6.52598 6.94298 6.46166C6.87951 6.39733 6.79326 6.36059 6.7029 6.35938Z" fill="#B80BDE"/>
</g>
<defs>
<clipPath id="clip0_44_5157">
<rect width="11" height="11" fill="white"/>
</clipPath>
</defs>
</svg>
