<svg width="20" height="20" viewBox="0 0 20 20" fill="none" xmlns="http://www.w3.org/2000/svg">
<g clip-path="url(#clip0_44_6116)">
<path d="M12.5522 7.91154C12.3615 7.7209 12.0748 7.66393 11.8257 7.76703C11.5766 7.8702 11.4142 8.11329 11.4142 8.38299V18.0787C11.4142 18.4469 11.7127 18.7454 12.0809 18.7454H14.851C15.2192 18.7454 15.5177 18.4469 15.5177 18.0787V11.1532C15.5177 10.9763 15.4475 10.8068 15.3225 10.6817L12.5522 7.91154ZM14.1844 17.4121H12.7475V9.99249L14.1844 11.4293V17.4121Z" fill="#545454" stroke="white" stroke-width="0.3"/>
<path d="M9.5657 7.76699C9.31654 7.66396 9.02981 7.72093 8.83917 7.9115L6.069 10.6817C5.94402 10.8068 5.87378 10.9763 5.87378 11.1532V18.0787C5.87378 18.4469 6.1723 18.7454 6.54045 18.7454H9.31062C9.67876 18.7454 9.97728 18.4469 9.97728 18.0787V8.38288C9.97721 8.11325 9.81479 7.87015 9.5657 7.76699ZM8.64388 17.412H7.20705V11.4293L8.64388 9.99244V17.412Z" fill="#545454" stroke="white" stroke-width="0.3"/>
<path d="M1.47142 7.91154C1.28071 7.7209 0.99398 7.66393 0.744889 7.76703C0.495798 7.8702 0.333374 8.11329 0.333374 8.38299V18.0787C0.333374 18.4469 0.631893 18.7454 1.00004 18.7454H3.77021C4.13836 18.7454 4.43688 18.4469 4.43688 18.0787V11.1532C4.43688 10.9764 4.36664 10.8069 4.24166 10.6818L1.47142 7.91154ZM3.10348 17.4121H1.66664V9.99249L3.10348 11.4294V17.4121Z" fill="#545454" stroke="white" stroke-width="0.3"/>
<path d="M19.9925 8.75134L19.5643 5.91524C19.5093 5.55127 19.1699 5.30103 18.8056 5.35558C18.4415 5.41053 18.1909 5.75026 18.2459 6.1143L18.4041 7.16225L10.946 1.39423C10.6969 1.20164 10.3474 1.20945 10.1072 1.41289L5.22306 5.54898L1.13808 1.464C0.877677 1.20373 0.455657 1.20373 0.195253 1.464C-0.0650842 1.72433 -0.0650842 2.14649 0.195253 2.40682L4.71417 6.92568C4.95943 7.17093 5.35175 7.18709 5.61646 6.96299L10.5571 2.77901L17.5327 8.1739L16.445 8.16763C16.0763 8.16622 15.7766 8.46231 15.7745 8.83046C15.7724 9.19868 16.0692 9.49881 16.4373 9.50097L19.3295 9.51753C19.3307 9.51753 19.332 9.51753 19.3333 9.51753C19.5267 9.51753 19.7107 9.43349 19.8374 9.28716C19.965 9.13975 20.0216 8.94406 19.9925 8.75134Z" fill="#545454" stroke="white" stroke-width="0.3"/>
</g>
<defs>
<clipPath id="clip0_44_6116">
<rect width="20" height="20" fill="white"/>
</clipPath>
</defs>
</svg>
