<svg width="32" height="32" viewBox="0 0 32 32" fill="none" xmlns="http://www.w3.org/2000/svg">
<rect width="32" height="32" rx="7" fill="#F4F4F4"/>
<path d="M18.1834 24.2498V23.8998H17.8334H14.1667H13.8167V24.2498C13.8167 24.8289 14.0467 25.3842 14.4562 25.7937C14.8657 26.2031 15.421 26.4332 16 26.4332C16.5791 26.4332 17.1344 26.2031 17.5439 25.7937C17.9534 25.3842 18.1834 24.8289 18.1834 24.2498ZM8.66664 22.7665H8.66672H23.3334H23.3335C23.5839 22.7665 23.8288 22.6921 24.037 22.5529C24.2453 22.4138 24.4076 22.216 24.5034 21.9845C24.5993 21.7531 24.6244 21.4985 24.5755 21.2528C24.5267 21.0071 24.4061 20.7815 24.229 20.6043L24.229 20.6043L22.7667 19.142V14.1665L22.7667 14.1658C22.7636 12.5405 22.176 10.9704 21.1112 9.74236C20.113 8.59102 18.7577 7.81229 17.2667 7.52718V6.83317C17.2667 6.49723 17.1333 6.17505 16.8957 5.9375C16.6582 5.69996 16.336 5.5665 16 5.5665C15.6641 5.5665 15.3419 5.69996 15.1044 5.9375C14.8668 6.17505 14.7334 6.49723 14.7334 6.83317V7.52718C13.2424 7.81229 11.8871 8.59102 10.8889 9.74236C9.82408 10.9704 9.23649 12.5405 9.23338 14.1658V14.1665V19.142L7.77114 20.6043L7.77111 20.6043C7.59402 20.7815 7.47342 21.0071 7.42457 21.2528C7.37572 21.4985 7.4008 21.7531 7.49665 21.9845C7.5925 22.216 7.75481 22.4138 7.96306 22.5529C8.17131 22.6921 8.41616 22.7665 8.66664 22.7665ZM20.2334 19.6666C20.2334 19.8651 20.2801 20.0589 20.3673 20.2332H11.6328C11.72 20.0589 11.7667 19.8651 11.7667 19.6666V19.6665V14.1665C11.7667 13.0438 12.2127 11.967 13.0066 11.1731C13.8005 10.3792 14.8773 9.93317 16 9.93317C17.1228 9.93317 18.1996 10.3792 18.9935 11.1731C19.7874 11.967 20.2334 13.0438 20.2334 14.1665V19.6665V19.6666Z" fill="#44475B" stroke="white" stroke-width="0.7"/>
</svg>
