<svg width="32" height="32" viewBox="0 0 32 32" fill="none" xmlns="http://www.w3.org/2000/svg">
<rect width="32" height="32" rx="7" fill="#F4F4F4"/>
<path fill-rule="evenodd" clip-rule="evenodd" d="M24.0728 11.9885L23.5022 10.9984C23.0195 10.1606 21.9498 9.8716 21.1109 10.3523C20.7116 10.5875 20.2351 10.6543 19.7865 10.5378C19.3379 10.4213 18.9541 10.1312 18.7196 9.7314C18.5688 9.47728 18.4878 9.18784 18.4847 8.89235C18.4983 8.4186 18.3196 7.95951 17.9892 7.61967C17.6589 7.27983 17.205 7.08818 16.7311 7.08838H15.5816C15.1172 7.08838 14.6721 7.2734 14.3445 7.60251C14.017 7.93162 13.8341 8.37769 13.8363 8.842C13.8226 9.80066 13.0415 10.5706 12.0827 10.5705C11.7872 10.5674 11.4978 10.4863 11.2437 10.3355C10.4047 9.85482 9.33504 10.1438 8.85235 10.9816L8.23984 11.9885C7.75773 12.8252 8.0428 13.8942 8.87752 14.3798C9.4201 14.693 9.75434 15.2719 9.75434 15.8984C9.75434 16.525 9.4201 17.1039 8.87752 17.4171C8.04386 17.8994 7.75848 18.9659 8.23984 19.8L8.81879 20.7985C9.04495 21.2066 9.42441 21.5077 9.8732 21.6353C10.322 21.7628 10.8031 21.7063 11.2101 21.4782C11.6102 21.2447 12.0869 21.1807 12.5344 21.3005C12.9819 21.4202 13.363 21.7138 13.593 22.1158C13.7438 22.37 13.8249 22.6594 13.8279 22.9549C13.8279 23.9234 14.6131 24.7085 15.5816 24.7085H16.7311C17.6963 24.7085 18.4801 23.9285 18.4847 22.9633C18.4824 22.4975 18.6665 22.0502 18.9958 21.7208C19.3252 21.3915 19.7725 21.2074 20.2383 21.2097C20.5331 21.2176 20.8213 21.2983 21.0774 21.4446C21.9141 21.9267 22.9831 21.6416 23.4687 20.8069L24.0728 19.8C24.3066 19.3987 24.3708 18.9207 24.2511 18.4718C24.1314 18.023 23.8377 17.6404 23.4351 17.4087C23.0325 17.1771 22.7388 16.7945 22.6191 16.3457C22.4994 15.8968 22.5636 15.4188 22.7974 15.0174C22.9495 14.7519 23.1696 14.5318 23.4351 14.3798C24.2648 13.8945 24.5492 12.8317 24.0728 11.9968V11.9885Z" stroke="#44475B" stroke-width="1.5" stroke-linecap="round" stroke-linejoin="round"/>
<path d="M16.1605 18.3146C17.495 18.3146 18.5768 17.2328 18.5768 15.8983C18.5768 14.5638 17.495 13.4819 16.1605 13.4819C14.826 13.4819 13.7441 14.5638 13.7441 15.8983C13.7441 17.2328 14.826 18.3146 16.1605 18.3146Z" stroke="#44475B" stroke-width="1.5" stroke-linecap="round" stroke-linejoin="round"/>
</svg>
