<svg width="18" height="19" viewBox="0 0 18 19" fill="none" xmlns="http://www.w3.org/2000/svg">
<path d="M12.4144 5.09415C12.5247 5.0348 12.6309 4.96734 12.7322 4.89228C13.5535 4.28368 13.8066 3.16446 13.2947 2.39853C12.7828 1.63259 11.7028 1.5079 10.8816 2.12243C10.0603 2.73696 9.63846 3.82353 9.18002 5.09118L12.4144 5.09415ZM2.4469 9.04259H15.556V16.0785C15.556 16.3935 15.4374 16.6955 15.2265 16.9182C15.0155 17.1409 14.7293 17.266 14.431 17.266H3.5719C3.27353 17.266 2.98738 17.1409 2.7764 16.9182C2.56543 16.6955 2.4469 16.3935 2.4469 16.0785V9.04259Z" stroke="#545454" stroke-width="0.7" stroke-linecap="round" stroke-linejoin="round"/>
<path d="M10.6454 9.04297H7.35474V17.2664H10.6454V9.04297Z" stroke="#545454" stroke-width="0.7" stroke-linecap="round" stroke-linejoin="round"/>
<path d="M5.58566 5.09415C5.47593 5.03544 5.37062 4.96795 5.27066 4.89228C4.44941 4.28368 4.19347 3.16446 4.70816 2.39853C5.22285 1.63259 6.30003 1.5079 7.1241 2.12243C7.94816 2.73696 8.36441 3.82353 8.82566 5.09118L5.58566 5.09415Z" stroke="#545454" stroke-width="0.7" stroke-linecap="round" stroke-linejoin="round"/>
<path d="M15.3281 5.09424H2.67188C2.20588 5.09424 1.82812 5.49298 1.82812 5.98486V8.15205C1.82812 8.64393 2.20588 9.04268 2.67188 9.04268H15.3281C15.7941 9.04268 16.1719 8.64393 16.1719 8.15205V5.98486C16.1719 5.49298 15.7941 5.09424 15.3281 5.09424Z" stroke="#545454" stroke-width="0.7" stroke-linecap="round" stroke-linejoin="round"/>
<path d="M10.9462 5.09424H7.05652V9.04268H10.9462V5.09424Z" stroke="#545454" stroke-width="0.7" stroke-linecap="round" stroke-linejoin="round"/>
</svg>
