<svg width="20" height="21" viewBox="0 0 20 21" fill="none" xmlns="http://www.w3.org/2000/svg">
<path d="M10.4962 7.09212C9.38315 6.78947 8.24718 7.49155 7.95894 8.66028C7.90142 8.89436 8.03549 9.13308 8.25842 9.19348C8.48135 9.25388 8.70871 9.11311 8.76624 8.87903C8.87183 8.44746 9.17883 8.10165 9.58141 7.96072C10.2362 7.7315 10.944 8.1031 11.1622 8.79059C11.3805 9.47813 11.0267 10.2213 10.3719 10.4504C9.86884 10.6467 9.54021 11.1569 9.554 11.7202V12.2701C9.5541 12.5116 9.74066 12.7073 9.97066 12.7072C10.2007 12.707 10.3875 12.5112 10.3873 12.2697V11.7202C10.376 11.5322 10.4768 11.3566 10.6404 11.2793C11.3062 11.0432 11.8136 10.4705 11.9897 9.75622C12.2779 8.58754 11.6093 7.39478 10.4962 7.09212ZM9.97051 13.4727C9.68283 13.4727 9.44968 13.7176 9.44968 14.0196C9.44968 14.3216 9.68283 14.5665 9.97051 14.5665C10.2581 14.5665 10.4913 14.3216 10.4913 14.0196C10.4913 13.7176 10.2581 13.4727 9.97051 13.4727ZM9.99996 1.75C5.3976 1.75 1.66663 5.66753 1.66663 10.5C1.66663 15.3325 5.3976 19.25 9.99996 19.25C14.6001 19.2443 18.3279 15.3301 18.3333 10.5C18.3333 5.66753 14.6023 1.75 9.99996 1.75ZM9.99996 18.375C5.85781 18.375 2.49996 14.8493 2.49996 10.5C2.49996 6.15074 5.85781 2.625 9.99996 2.625C14.1402 2.62975 17.4954 6.15272 17.5 10.5C17.5 14.8493 14.1421 18.375 9.99996 18.375Z" fill="#545454"/>
</svg>
