<svg width="18" height="18" viewBox="0 0 18 18" fill="none" xmlns="http://www.w3.org/2000/svg">
<g clip-path="url(#clip0_44_6122)">
<path d="M17.8227 0.541262C17.6967 0.414111 17.5213 0.348414 17.3431 0.361505L14.5336 0.566959C14.1964 0.591626 13.943 0.884959 13.9676 1.22223C13.9923 1.5595 14.2857 1.81175 14.6229 1.78817L15.7903 1.70278L11.6776 5.82084L6.89447 1.77035C6.65138 1.56441 6.29108 1.57938 6.06586 1.8046L0.179318 7.6912C-0.0597727 7.93029 -0.0597727 8.31799 0.179318 8.55708C0.298894 8.6766 0.455561 8.73641 0.612227 8.73641C0.768894 8.73641 0.925561 8.6766 1.04514 8.55708L6.53314 3.06902L11.3165 7.11975C11.5596 7.32581 11.9202 7.31066 12.1453 7.0852L16.6398 2.5849L16.547 3.70605C16.519 4.04302 16.7696 4.33878 17.1066 4.36672C17.1238 4.36817 17.1408 4.3689 17.1577 4.3689C17.473 4.36884 17.7408 4.1269 17.7673 3.80714L17.9978 1.02266C18.0127 0.844293 17.9487 0.668414 17.8227 0.541262Z" fill="#545454" stroke="white" stroke-width="0.3"/>
<path d="M5.46098 7.55828C5.23225 7.46361 4.96886 7.51598 4.79371 7.69101L2.24965 10.235C2.13486 10.3499 2.07031 10.5056 2.07031 10.6679V17.0282C2.07031 17.3663 2.34443 17.6404 2.68255 17.6404H5.22662C5.56474 17.6404 5.83886 17.3663 5.83886 17.0282V8.12392C5.83886 7.87628 5.68971 7.65301 5.46098 7.55828ZM4.61437 16.4159H3.29486V10.9216L4.61443 9.60198L4.61437 16.4159Z" fill="#545454" stroke="white" stroke-width="0.3"/>
<path d="M8.20378 7.69102C8.02869 7.51593 7.76542 7.46363 7.53651 7.55829C7.30778 7.65308 7.15857 7.87629 7.15857 8.12399V17.0282C7.15857 17.3664 7.43269 17.6405 7.77081 17.6405H10.3149C10.653 17.6405 10.9271 17.3664 10.9271 17.0282V10.6681C10.9271 10.5057 10.8626 10.35 10.7478 10.2351L8.20378 7.69102ZM9.70263 16.4159H8.38305V9.60199L9.70263 10.9216V16.4159Z" fill="#545454" stroke="white" stroke-width="0.3"/>
<path d="M15.6374 7.55828C15.4085 7.46361 15.1452 7.51598 14.9701 7.69101L12.426 10.2351C12.3112 10.35 12.2467 10.5057 12.2467 10.668V17.0282C12.2467 17.3663 12.5208 17.6405 12.8589 17.6405H15.403C15.7411 17.6405 16.0152 17.3663 16.0152 17.0282V8.12398C16.0153 7.87628 15.8662 7.65301 15.6374 7.55828ZM14.7908 16.4159H13.4712V10.9216L14.7908 9.60198V16.4159Z" fill="#545454" stroke="white" stroke-width="0.3"/>
</g>
<defs>
<clipPath id="clip0_44_6122">
<rect width="18" height="18" fill="white"/>
</clipPath>
</defs>
</svg>
