<svg width="18" height="19" viewBox="0 0 18 19" fill="none" xmlns="http://www.w3.org/2000/svg">
<g clip-path="url(#clip0_44_5504)">
<path d="M0.4 9.20312C0.4 4.32683 4.1504 0.4 8.71875 0.4C13.2871 0.4 17.0375 4.32683 17.0375 9.20312C17.0375 14.0794 13.2871 18.0063 8.71875 18.0063C4.1504 18.0063 0.4 14.0794 0.4 9.20312ZM8.71875 15.0478C9.42665 15.0478 9.9625 14.4503 9.9625 13.7572V8.08092C9.9625 7.38784 9.42665 6.7903 8.71875 6.7903C8.01085 6.7903 7.475 7.38784 7.475 8.08092V13.7572C7.475 14.4503 8.01085 15.0478 8.71875 15.0478ZM8.71875 6.74719C9.42666 6.74719 9.9625 6.1496 9.9625 5.45656V4.64904C9.9625 3.956 9.42666 3.35841 8.71875 3.35841C8.01084 3.35841 7.475 3.956 7.475 4.64904V5.45656C7.475 6.1496 8.01084 6.74719 8.71875 6.74719Z" stroke="#545454" stroke-width="0.8"/>
</g>
<defs>
<clipPath id="clip0_44_5504">
<rect width="18" height="19" fill="white"/>
</clipPath>
</defs>
</svg>
