<svg width="24" height="24" viewBox="0 0 24 24" fill="none" xmlns="http://www.w3.org/2000/svg">
<path fill-rule="evenodd" clip-rule="evenodd" d="M12.052 1.25H11.948C11.0495 1.24997 10.3003 1.24995 9.70552 1.32991C9.07773 1.41432 8.51093 1.59999 8.05546 2.05546C7.59999 2.51093 7.41432 3.07773 7.32991 3.70552C7.27259 4.13189 7.25637 5.15147 7.25179 6.02566C5.22954 6.09171 4.01536 6.32778 3.17157 7.17157C2 8.34315 2 10.2288 2 14C2 17.7712 2 19.6569 3.17157 20.8284C4.34314 22 6.22876 22 9.99998 22H14C17.7712 22 19.6569 22 20.8284 20.8284C22 19.6569 22 17.7712 22 14C22 10.2288 22 8.34315 20.8284 7.17157C19.9846 6.32778 18.7705 6.09171 16.7482 6.02566C16.7436 5.15147 16.7274 4.13189 16.6701 3.70552C16.5857 3.07773 16.4 2.51093 15.9445 2.05546C15.4891 1.59999 14.9223 1.41432 14.2945 1.32991C13.6997 1.24995 12.9505 1.24997 12.052 1.25ZM15.2479 6.00188C15.2434 5.15523 15.229 4.24407 15.1835 3.9054C15.1214 3.44393 15.0142 3.24644 14.8839 3.11612C14.7536 2.9858 14.5561 2.87858 14.0946 2.81654C13.6116 2.7516 12.964 2.75 12 2.75C11.036 2.75 10.3884 2.7516 9.90539 2.81654C9.44393 2.87858 9.24644 2.9858 9.11612 3.11612C8.9858 3.24644 8.87858 3.44393 8.81654 3.9054C8.771 4.24407 8.75661 5.15523 8.75208 6.00188C9.1435 6 9.55885 6 10 6H14C14.4412 6 14.8565 6 15.2479 6.00188ZM12 9.25C12.4142 9.25 12.75 9.58579 12.75 10V10.0102C13.8388 10.2845 14.75 11.143 14.75 12.3333C14.75 12.7475 14.4142 13.0833 14 13.0833C13.5858 13.0833 13.25 12.7475 13.25 12.3333C13.25 11.9493 12.8242 11.4167 12 11.4167C11.1758 11.4167 10.75 11.9493 10.75 12.3333C10.75 12.7174 11.1758 13.25 12 13.25C13.3849 13.25 14.75 14.2098 14.75 15.6667C14.75 16.857 13.8388 17.7155 12.75 17.9898V18C12.75 18.4142 12.4142 18.75 12 18.75C11.5858 18.75 11.25 18.4142 11.25 18V17.9898C10.1612 17.7155 9.25 16.857 9.25 15.6667C9.25 15.2525 9.58579 14.9167 10 14.9167C10.4142 14.9167 10.75 15.2525 10.75 15.6667C10.75 16.0507 11.1758 16.5833 12 16.5833C12.8242 16.5833 13.25 16.0507 13.25 15.6667C13.25 15.2826 12.8242 14.75 12 14.75C10.6151 14.75 9.25 13.7903 9.25 12.3333C9.25 11.143 10.1612 10.2845 11.25 10.0102V10C11.25 9.58579 11.5858 9.25 12 9.25Z" fill="#434343"/>
<g clip-path="url(#clip0_44_5435)">
<rect width="8.57143" height="11.1429" transform="translate(7 8)" fill="#434343"/>
<path d="M14.1278 11.446L13.8864 12.2699H9.28409L9.52557 11.446H14.1278ZM11.9688 17L9.36932 13.8182L9.35511 13.2216H10.6477C10.9839 13.2216 11.2704 13.1742 11.5071 13.0795C11.7438 12.9825 11.925 12.8381 12.0504 12.6463C12.1759 12.4522 12.2386 12.2083 12.2386 11.9148C12.2386 11.4815 12.1084 11.1418 11.848 10.8956C11.5876 10.647 11.1875 10.5227 10.6477 10.5227H9.28409L9.52557 9.72727H10.6477C11.2254 9.72727 11.6989 9.82315 12.0682 10.0149C12.4399 10.2043 12.7145 10.4647 12.892 10.7962C13.072 11.1252 13.1619 11.4981 13.1619 11.9148C13.1619 12.2912 13.0791 12.638 12.9134 12.9553C12.75 13.2701 12.4872 13.5234 12.125 13.7152C11.7652 13.907 11.2893 14.0028 10.6974 14.0028H10.6761L13.0767 16.9432V17H11.9688ZM14.1278 9.72727L13.8864 10.5511L10.2642 10.5227L10.5057 9.72727H14.1278Z" fill="white"/>
</g>
<defs>
<clipPath id="clip0_44_5435">
<rect width="8.57143" height="11.1429" fill="white" transform="translate(7 8)"/>
</clipPath>
</defs>
</svg>
