<svg width="24" height="24" viewBox="0 0 24 24" fill="none" xmlns="http://www.w3.org/2000/svg">
<path d="M15.7439 1.2482H5.23194C4.51194 1.2482 3.88794 1.8722 3.88794 2.5922V21.4562C3.88794 22.1762 4.51194 22.8002 5.23194 22.8002H19.6319C19.9199 22.8002 20.1119 22.5602 20.1119 22.3202V6.1442H16.3199C16.1759 6.1442 16.0799 6.0962 15.9839 6.0002C15.8879 5.9042 15.8399 5.7602 15.8399 5.6642V1.2002C15.8399 1.2482 15.7919 1.2482 15.7439 1.2482ZM12.0479 15.9842H7.29594C7.05594 15.9842 6.81594 15.7442 6.81594 15.5042C6.81594 15.2642 7.05594 15.0242 7.29594 15.0242H12.0479C12.2879 15.0242 12.5279 15.2642 12.5279 15.5042C12.5279 15.7442 12.3359 15.9842 12.0479 15.9842ZM13.0559 13.6322H7.29594C7.05594 13.6322 6.81594 13.3922 6.81594 13.1522C6.81594 12.9122 7.05594 12.6722 7.29594 12.6722H13.0559C13.3439 12.6722 13.5359 12.9122 13.5359 13.1522C13.5359 13.3922 13.3439 13.6322 13.0559 13.6322ZM15.1679 11.3282H7.29594C7.05594 11.3282 6.81594 11.0882 6.81594 10.8482C6.81594 10.6082 7.05594 10.3682 7.29594 10.3682H15.1679C15.4079 10.3682 15.6479 10.6082 15.6479 10.8482C15.6479 11.0882 15.4079 11.3282 15.1679 11.3282ZM16.7039 8.0162C16.9919 8.0162 17.1839 8.2562 17.1839 8.4962C17.1839 8.7842 16.9919 8.9762 16.7039 8.9762H7.29594C7.05594 8.9762 6.81594 8.7842 6.81594 8.4962C6.81594 8.2562 7.05594 8.0162 7.29594 8.0162H16.7039Z" fill="#434343"/>
<path d="M16.848 1.77588V5.23188H20.064C20.016 5.03988 19.872 4.84788 19.728 4.70388L16.848 1.77588Z" fill="#434343"/>
</svg>
