<svg width="26" height="26" viewBox="0 0 26 26" fill="none" xmlns="http://www.w3.org/2000/svg">
<path d="M22.6688 11.8951C22.3803 11.4886 22.1582 11.0388 22.0106 10.5626C21.9132 10.0733 21.8886 9.57229 21.9375 9.07576C21.9969 8.68563 21.9606 8.28692 21.8319 7.91389C21.5688 7.61235 21.2372 7.37831 20.865 7.23139C20.4122 7.02452 19.9931 6.75062 19.6219 6.41889C19.2902 6.04767 19.0163 5.62859 18.8094 5.17576C18.6625 4.80354 18.4284 4.47197 18.1269 4.20889C17.7447 4.05973 17.3311 4.00942 16.9244 4.06264C16.4278 4.10762 15.9273 4.083 15.4375 3.98951C14.9698 3.83964 14.5285 3.61758 14.1294 3.33139C13.8008 3.07193 13.4126 2.89876 13 2.82764C12.596 2.9026 12.2166 3.07557 11.895 3.33139C11.4885 3.61986 11.0387 3.842 10.5625 3.98951C10.0732 4.08691 9.57216 4.11155 9.07564 4.06264C8.68551 4.00327 8.2868 4.03952 7.91376 4.16826C7.60902 4.43824 7.37474 4.7785 7.23126 5.15951C7.0244 5.61234 6.7505 6.03142 6.41876 6.40264C6.04755 6.73437 5.62847 7.00828 5.17564 7.21514C4.80341 7.36206 4.47185 7.5961 4.20876 7.89764C4.06367 8.27229 4.01343 8.677 4.06251 9.07576C4.11143 9.57229 4.08679 10.0733 3.98939 10.5626C3.83952 11.0303 3.61746 11.4717 3.33126 11.8708C3.07181 12.1993 2.89864 12.5876 2.82751 13.0001C2.90248 13.4041 3.07545 13.7836 3.33126 14.1051C3.61974 14.5117 3.84187 14.9615 3.98939 15.4376C4.08679 15.927 4.11143 16.428 4.06251 16.9245C4.00315 17.3146 4.0394 17.7134 4.16814 18.0864C4.43123 18.3879 4.76279 18.622 5.13501 18.7689C5.58784 18.9757 6.00692 19.2497 6.37814 19.5814C6.70987 19.9526 6.98378 20.3717 7.19064 20.8245C7.33756 21.1967 7.57161 21.5283 7.87314 21.7914C8.24617 21.9201 8.64488 21.9564 9.03501 21.897H9.56314C9.89411 21.8878 10.2248 21.9234 10.5463 22.0026C11.0139 22.1525 11.4553 22.3746 11.8544 22.6608C12.176 22.9166 12.5554 23.0896 12.9594 23.1645C13.3634 23.0896 13.7428 22.9166 14.0644 22.6608C14.4839 22.3713 14.9477 22.1517 15.4375 22.0108C15.9268 21.9134 16.4279 21.8887 16.9244 21.9376C17.3145 21.997 17.7132 21.9608 18.0863 21.832C18.3878 21.5689 18.6218 21.2374 18.7688 20.8651C18.9756 20.4123 19.2495 19.9932 19.5813 19.622C19.9525 19.2903 20.3716 19.0164 20.8244 18.8095C21.1966 18.6626 21.5282 18.4285 21.7913 18.127C21.9404 17.7449 21.9907 17.3313 21.9375 16.9245C21.8886 16.428 21.9132 15.927 22.0106 15.4376C22.1605 14.97 22.3826 14.5286 22.6688 14.1295C22.9282 13.8009 23.1014 13.4127 23.1725 13.0001C23.0976 12.5961 22.9246 12.2167 22.6688 11.8951ZM15.4375 14.2595L15.9981 17.5501L13 15.9983L10.0425 17.5501L10.6031 14.2595L8.21439 11.9276L11.5213 11.4483L13 8.45014L14.4788 11.4483L17.7856 11.9276L15.4375 14.2595Z" fill="#434343"/>
</svg>
