<svg width="24" height="24" viewBox="0 0 24 24" fill="none" xmlns="http://www.w3.org/2000/svg">
<g clip-path="url(#clip0_44_5445)">
<path d="M3 13.999V19.999C3 21.102 3.897 21.999 5 21.999H11V13.999H3Z" fill="#434343"/>
<path d="M13 13.999V21.999H19C20.103 21.999 21 21.102 21 19.999V13.999H13Z" fill="#434343"/>
<path d="M20 7.99893H16.886C17.3398 7.77104 17.7563 7.47531 18.121 7.12193C18.6826 6.55849 18.9979 5.79543 18.9979 4.99993C18.9979 4.20444 18.6826 3.44138 18.121 2.87793C16.987 1.74693 15.014 1.74593 13.879 2.87893C12.243 4.51593 12.022 7.59693 12.002 7.94293C12 7.96193 12.01 7.97893 12.01 7.99893H11.99C11.99 7.97993 12 7.96193 11.999 7.94193C11.979 7.59593 11.758 4.51493 10.121 2.87693C8.987 1.74593 7.012 1.74593 5.878 2.87793C5.3165 3.44121 5.00121 4.2041 5.00121 4.99943C5.00121 5.79477 5.3165 6.55766 5.878 7.12093C6.235 7.47693 6.663 7.76393 7.114 7.99793H4C2.897 7.99793 2 8.89493 2 9.99793V12.9979H11V8.99793H13V12.9979H22V9.99793C21.9992 9.46784 21.7882 8.95969 21.4133 8.58495C21.0383 8.21021 20.5301 7.99946 20 7.99893ZM7.293 5.70693C7.15416 5.56671 7.05981 5.38862 7.02179 5.19499C6.98377 5.00136 7.00376 4.80081 7.07927 4.6185C7.15478 4.43619 7.28244 4.28023 7.44624 4.17019C7.61003 4.06015 7.80267 4.00092 8 3.99993C8.268 3.99993 8.519 4.10393 8.708 4.29193C9.298 4.88193 9.642 5.93993 9.826 6.82293C8.945 6.63893 7.879 6.29293 7.293 5.70693ZM14.174 6.82493C14.358 5.94193 14.702 4.88293 15.292 4.29293C15.481 4.10393 15.733 3.99993 16 3.99993C16.267 3.99993 16.519 4.10393 16.706 4.29093C17.096 4.68193 17.097 5.31693 16.706 5.70693C16.116 6.29793 15.057 6.64193 14.174 6.82493Z" fill="#434343"/>
</g>
<defs>
<clipPath id="clip0_44_5445">
<rect width="24" height="24" fill="white"/>
</clipPath>
</defs>
</svg>
