<svg width="20" height="20" viewBox="0 0 20 20" fill="none" xmlns="http://www.w3.org/2000/svg">
<path d="M1 11.999V17.999C1 19.102 1.897 19.999 3 19.999H9V11.999H1Z" fill="#D328F9"/>
<path d="M11 11.999V19.999H17C18.103 19.999 19 19.102 19 17.999V11.999H11Z" fill="#D328F9"/>
<path d="M18 5.99942H14.886C15.3398 5.77153 15.7563 5.4758 16.121 5.12242C16.6826 4.55898 16.9979 3.79592 16.9979 3.00042C16.9979 2.20493 16.6826 1.44186 16.121 0.878422C14.987 -0.252578 13.014 -0.253578 11.879 0.879422C10.243 2.51642 10.022 5.59742 10.002 5.94342C10 5.96242 10.01 5.97942 10.01 5.99942H9.99C9.99 5.98042 10 5.96242 9.999 5.94242C9.979 5.59642 9.758 2.51542 8.121 0.877422C6.987 -0.253578 5.012 -0.253578 3.878 0.878422C3.3165 1.44169 3.00121 2.20459 3.00121 2.99992C3.00121 3.79525 3.3165 4.55815 3.878 5.12142C4.235 5.47742 4.663 5.76442 5.114 5.99842H2C0.897 5.99842 0 6.89542 0 7.99842V10.9984H9V6.99842H11V10.9984H20V7.99842C19.9992 7.46833 19.7882 6.96018 19.4133 6.58544C19.0383 6.2107 18.5301 5.99995 18 5.99942ZM5.293 3.70742C5.15416 3.5672 5.05981 3.38911 5.02179 3.19548C4.98377 3.00185 5.00376 2.8013 5.07927 2.61899C5.15478 2.43668 5.28244 2.28072 5.44624 2.17068C5.61003 2.06064 5.80267 2.00141 6 2.00042C6.268 2.00042 6.519 2.10442 6.708 2.29242C7.298 2.88242 7.642 3.94042 7.826 4.82342C6.945 4.63942 5.879 4.29342 5.293 3.70742ZM12.174 4.82542C12.358 3.94242 12.702 2.88342 13.292 2.29342C13.481 2.10442 13.733 2.00042 14 2.00042C14.267 2.00042 14.519 2.10442 14.706 2.29142C15.096 2.68242 15.097 3.31742 14.706 3.70742C14.116 4.29842 13.057 4.64242 12.174 4.82542Z" fill="#D328F9"/>
</svg>
