<svg width="14" height="14" viewBox="0 0 14 14" fill="none" xmlns="http://www.w3.org/2000/svg">
<g clip-path="url(#clip0_44_7424)">
<path d="M12.9468 10.2795L8.13599 1.96747C8.02067 1.76829 7.855 1.60293 7.65561 1.48797C7.45621 1.37301 7.2301 1.3125 6.99994 1.3125C6.76978 1.3125 6.54367 1.37301 6.34428 1.48797C6.14488 1.60293 5.97922 1.76829 5.8639 1.96747H5.86432L1.0531 10.2795C0.937501 10.479 0.876492 10.7054 0.876222 10.9359C0.875951 11.1665 0.936428 11.393 1.05156 11.5928C1.1667 11.7925 1.33243 11.9584 1.53206 12.0737C1.73169 12.189 1.95818 12.2496 2.18873 12.2496H11.8112C12.0417 12.2496 12.2682 12.189 12.4678 12.0737C12.6675 11.9584 12.8332 11.7925 12.9483 11.5928C13.0635 11.393 13.1239 11.1665 13.1237 10.9359C13.1234 10.7054 13.0624 10.479 12.9468 10.2795Z" fill="#44475B"/>
</g>
<defs>
<clipPath id="clip0_44_7424">
<rect width="14" height="14" fill="white"/>
</clipPath>
</defs>
</svg>
