<svg width="24" height="28" viewBox="0 0 24 28" fill="none" xmlns="http://www.w3.org/2000/svg">
<path d="M14.9886 23.6056C14.9314 23.5037 14.822 23.4272 14.6869 23.4121V23.4083H14.6369H13.7089V20.9543C13.7089 20.7529 13.5256 20.5996 13.3136 20.5996H10.6864C10.4744 20.5996 10.2911 20.7529 10.2911 20.9543V23.4083H9.36311C9.20477 23.4083 9.07162 23.4906 9.00757 23.6075C8.94238 23.7264 8.95151 23.8768 9.06912 24.0001C9.06931 24.0003 9.0695 24.0005 9.06969 24.0007L11.6929 26.9185L11.6929 26.9186C11.8291 27.0697 12.0746 27.0933 12.2434 26.9748L12.2442 26.9758L12.2518 26.9674L14.944 23.986L14.944 23.9859C15.0501 23.868 15.0534 23.721 14.9886 23.6056ZM11.4051 8.38226L11.3818 8.40282C11.1108 8.61984 10.6876 8.6136 10.4248 8.38223L10.4007 8.36104C10.2084 8.17501 10.1839 7.93182 10.2775 7.73115C10.3752 7.52166 10.6036 7.3556 10.915 7.3556C11.0404 7.3556 11.1389 7.31328 11.2062 7.24565C11.273 7.17851 11.306 7.08937 11.306 7.00091C11.306 6.91245 11.273 6.8233 11.2062 6.75617C11.1389 6.68854 11.0404 6.64622 10.915 6.64622C10.2468 6.64622 9.66999 7.04176 9.49078 7.60006C9.47278 7.59975 9.45379 7.59928 9.43404 7.5988C9.31823 7.59595 9.17628 7.59246 9.056 7.61724C8.97698 7.63353 8.90043 7.66302 8.8433 7.71779C8.78459 7.77408 8.75131 7.85232 8.75131 7.9551C8.75131 8.05785 8.78449 8.13607 8.84307 8.19237C8.90007 8.24716 8.97647 8.27667 9.05533 8.29295C9.17535 8.31774 9.317 8.31425 9.43255 8.3114C9.45213 8.31092 9.47095 8.31046 9.4888 8.31015C9.55307 8.51463 9.67164 8.69829 9.82944 8.84912L9.82802 8.85037L9.87053 8.88788C10.4367 9.3874 11.3443 9.39794 11.9252 8.9161L11.9263 8.91705L11.9594 8.88788C12.1254 8.74146 12.224 8.60344 12.2841 8.47174C12.3442 8.34024 12.3646 8.21775 12.3775 8.10554C12.3802 8.08173 12.3826 8.05849 12.385 8.03578C12.4051 7.84301 12.4212 7.68777 12.5949 7.53454C12.9191 7.24851 13.3227 7.32193 13.5679 7.54041C13.6904 7.64954 13.7697 7.79203 13.7804 7.9391C13.7911 8.08437 13.7355 8.24085 13.5752 8.38224C13.4353 8.50544 13.2674 8.53406 13.1078 8.56125C13.0829 8.5655 13.0582 8.56971 13.0338 8.57423C12.9473 8.59031 12.8602 8.61162 12.7954 8.66232C12.7264 8.71632 12.6897 8.79749 12.6897 8.91539C12.6897 9.00147 12.7163 9.07426 12.7656 9.13128C12.8143 9.18765 12.8823 9.22534 12.96 9.24752C13.1146 9.29158 13.3172 9.27723 13.5229 9.21513C13.9236 9.09417 14.3622 8.78348 14.5112 8.31015C14.5291 8.31046 14.5479 8.31092 14.5675 8.3114C14.683 8.31425 14.8247 8.31774 14.9447 8.29295C15.0235 8.27667 15.0999 8.24716 15.1569 8.19237C15.2155 8.13607 15.2487 8.05785 15.2487 7.9551C15.2487 7.85232 15.2154 7.77408 15.1567 7.71779C15.0996 7.66302 15.023 7.63353 14.944 7.61724C14.8237 7.59246 14.6818 7.59595 14.566 7.5988C14.5462 7.59928 14.5273 7.59975 14.5093 7.60005C14.3596 7.12818 13.9493 6.8109 13.4803 6.69528C12.999 6.57664 12.4488 6.66825 12.0406 7.02841C11.8746 7.17484 11.776 7.31289 11.7159 7.44464C11.6558 7.57619 11.6354 7.69874 11.6225 7.81102C11.6198 7.83484 11.6174 7.85809 11.615 7.88081C11.5949 8.0737 11.5788 8.22904 11.4051 8.38226ZM1.74074 19.6083V14.9668H4.86073V16.9326H3.54019C3.41478 16.9326 3.31624 16.9749 3.24896 17.0426C3.18216 17.1097 3.14914 17.1988 3.14914 17.2873C3.14914 17.3758 3.18216 17.4649 3.24896 17.532C3.31624 17.5997 3.41478 17.642 3.54019 17.642H20.4598C20.5852 17.642 20.6838 17.5997 20.751 17.532C20.8178 17.4649 20.8509 17.3758 20.8509 17.2873C20.8509 17.1988 20.8178 17.1097 20.751 17.0426C20.6838 16.9749 20.5852 16.9326 20.4598 16.9326H19.1393V14.9668H22.2593V19.6083H1.74074ZM11.0818 21.309H12.9182V23.763C12.9182 23.8742 12.9582 23.957 13.029 24.0142C13.0972 24.0694 13.1891 24.0971 13.2867 24.1113C13.385 24.1256 13.4951 24.127 13.6041 24.125C13.6488 24.1242 13.6927 24.1229 13.7359 24.1216C13.7606 24.1208 13.7851 24.1201 13.8094 24.1194L12 26.1314L10.1906 24.1194C10.2149 24.1201 10.2394 24.1208 10.2641 24.1216C10.3073 24.1229 10.3512 24.1242 10.3959 24.125C10.5049 24.127 10.615 24.1256 10.7133 24.1113C10.8109 24.0971 10.9028 24.0694 10.971 24.0142C11.0418 23.957 11.0818 23.8742 11.0818 23.763V21.309ZM8.54023 1.65938H15.4598C15.6427 2.99671 16.8429 4.04999 18.3485 4.2085V16.9326H5.65147V4.2085C7.1565 4.04998 8.35733 2.99671 8.54023 1.65938ZM18.3485 1.65938V3.49291C17.2735 3.34362 16.43 2.59772 16.2582 1.65938H18.3485ZM5.65147 1.65938H7.74181C7.56997 2.59772 6.72648 3.34362 5.65147 3.49291V1.65938ZM8.94552 10.6617C10.3039 11.8601 12.1476 12.0315 13.6501 11.482C15.1527 10.9326 16.3234 9.65822 16.3234 7.95815C16.3234 5.84327 14.3816 4.1386 12 4.1386C10.0841 4.1386 8.63924 5.16573 8.01394 6.49658C7.38815 7.82849 7.5852 9.46159 8.94552 10.6617ZM12 4.84798C13.572 4.84798 14.7501 5.68963 15.2586 6.772C15.7667 7.85332 15.6084 9.17789 14.5002 10.1556C13.1198 11.3734 10.8802 11.3734 9.4998 10.1556C8.3916 9.17789 8.23334 7.85332 8.74137 6.772C9.24989 5.68963 10.428 4.84798 12 4.84798ZM22.6546 14.2574H19.1393V1.30469C19.1393 1.10329 18.956 0.95 18.7439 0.95H18.7176H18.6912H18.6649H18.6385H18.6122H18.5858H18.5595H18.5331H18.5068H18.4805H18.4541H18.4278H18.4014H18.3751H18.3487H18.3224H18.2961H18.2697H18.2434H18.217H18.1907H18.1643H18.138H18.1116H18.0853H18.059H18.0326H18.0063H17.9799H17.9536H17.9272H17.9009H17.8745H17.8482H17.8219H17.7955H17.7692H17.7428H17.7165H17.6901H17.6638H17.6374H17.6111H17.5848H17.5584H17.5321H17.5057H17.4794H17.453H17.4267H17.4004H17.374H17.3477H17.3213H17.295H17.2686H17.2423H17.2159H17.1896H17.1633H17.1369H17.1106H17.0842H17.0579H17.0315H17.0052H16.9789H16.9525H16.9262H16.8998H16.8735H16.8471H16.8208H16.7944H16.7681H16.7418H16.7154H16.6891H16.6627H16.6364H16.61H16.5837H16.5574H16.531H16.5047H16.4783H16.452H16.4256H16.3993H16.3729H16.3466H16.3203H16.2939H16.2676H16.2412H16.2149H16.1885H16.1622H16.1359H16.1095H16.0832H16.0568H16.0305H16.0041H15.9778H15.9515H15.9251H15.8988H15.8724H15.8461H15.8197H15.7934H15.767H15.7407H15.7144H15.688H15.6617H15.6353H15.609H15.5826H15.5563H15.53H15.5036H15.4773H15.4509H15.4246H15.3982H15.3719H15.3456H15.3192H15.2929H15.2665H15.2402H15.2138H15.1875H15.1612H15.1348H15.1085H15.0821H15.0558H15.0294H15.0031H14.9768H14.9504H14.9241H14.8977H14.8714H14.845H14.8187H14.7923H14.766H14.7397H14.7133H14.687H14.6606H14.6343H14.6079H14.5816H14.5553H14.5289H14.5026H14.4762H14.4499H14.4235H14.3972H14.3709H14.3445H14.3182H14.2918H14.2655H14.2391H14.2128H14.1865H14.1601H14.1338H14.1074H14.0811H14.0547H14.0284H14.0021H13.9757H13.9494H13.923H13.8967H13.8703H13.844H13.8177H13.7913H13.765H13.7386H13.7123H13.6859H13.6596H13.6333H13.6069H13.5806H13.5542H13.5279H13.5015H13.4752H13.4489H13.4225H13.3962H13.3698H13.3435H13.3171H13.2908H13.2645H13.2381H13.2118H13.1854H13.1591H13.1327H13.1064H13.0801H13.0537H13.0274H13.001H12.9747H12.9483H12.922H12.8957H12.8693H12.843H12.8166H12.7903H12.7639H12.7376H12.7113H12.6849H12.6586H12.6322H12.6059H12.5795H12.5532H12.5269H12.5005H12.4742H12.4478H12.4215H12.3951H12.3688H12.3425H12.3161H12.2898H12.2634H12.2371H12.2107H12.1844H12.1581H12.1317H12.1054H12.079H12.0527H12.0263H12H11.9737H11.9473H11.921H11.8946H11.8683H11.8419H11.8156H11.7893H11.7629H11.7366H11.7102H11.6839H11.6575H11.6312H11.6049H11.5785H11.5522H11.5258H11.4995H11.4731H11.4468H11.4205H11.3941H11.3678H11.3414H11.3151H11.2887H11.2624H11.2361H11.2097H11.1834H11.157H11.1307H11.1043H11.078H11.0517H11.0253H10.999H10.9726H10.9463H10.9199H10.8936H10.8673H10.8409H10.8146H10.7882H10.7619H10.7355H10.7092H10.6829H10.6565H10.6302H10.6038H10.5775H10.5511H10.5248H10.4985H10.4721H10.4458H10.4194H10.3931H10.3667H10.3404H10.3141H10.2877H10.2614H10.235H10.2087H10.1823H10.156H10.1297H10.1033H10.077H10.0506H10.0243H9.99794H9.9716H9.94526H9.91891H9.89257H9.86623H9.83988H9.81354H9.7872H9.76086H9.73451H9.70817H9.68183H9.65548H9.62914H9.6028H9.57646H9.55011H9.52377H9.49743H9.47108H9.44474H9.4184H9.39205H9.36571H9.33937H9.31302H9.28668H9.26034H9.23399H9.20765H9.18131H9.15497H9.12862H9.10228H9.07594H9.04959H9.02325H8.99691H8.97056H8.94422H8.91788H8.89153H8.86519H8.83885H8.8125H8.78616H8.75982H8.73348H8.70713H8.68079H8.65445H8.6281H8.60176H8.57542H8.54907H8.52273H8.49639H8.47004H8.4437H8.41736H8.39101H8.36467H8.33833H8.31198H8.28564H8.2593H8.23295H8.20661H8.18027H8.15392H8.12758H8.10124H8.07489H8.04855H8.02221H7.99586H7.96952H7.94318H7.91683H7.89049H7.86415H7.8378H7.81146H7.78511H7.75877H7.73243H7.70608H7.67974H7.6534H7.62705H7.60071H7.57437H7.54802H7.52168H7.49534H7.46899H7.44265H7.41631H7.38996H7.36362H7.33727H7.31093H7.28459H7.25824H7.2319H7.20556H7.17921H7.15287H7.12653H7.10018H7.07384H7.04749H7.02115H6.99481H6.96846H6.94212H6.91578H6.88943H6.86309H6.83674H6.8104H6.78406H6.75771H6.73137H6.70502H6.67868H6.65234H6.62599H6.59965H6.57331H6.54696H6.52062H6.49427H6.46793H6.44159H6.41524H6.3889H6.36255H6.33621H6.30987H6.28352H6.25718H6.23083H6.20449H6.17815H6.1518H6.12546H6.09911H6.07277H6.04643H6.02008H5.99374H5.96739H5.94105H5.9147H5.88836H5.86202H5.83567H5.80933H5.78298H5.75664H5.73029H5.70395H5.67761H5.65126H5.62492H5.59857H5.57223H5.54588H5.51954H5.4932H5.46685H5.44051H5.41416H5.38782H5.36147H5.33513H5.30878H5.28244H5.2561C5.04403 0.95 4.86073 1.10329 4.86073 1.30469V14.2574H1.34537C1.13336 14.2574 0.95 14.4101 0.95 14.6121V19.963C0.95 20.1644 1.1333 20.3177 1.34537 20.3177H22.6546C22.8667 20.3177 23.05 20.1644 23.05 19.963V14.6121C23.05 14.4101 22.8666 14.2574 22.6546 14.2574Z" fill="#545454" stroke="#545454" stroke-width="0.1"/>
</svg>
