<svg width="20" height="22" viewBox="0 0 20 22" fill="none" xmlns="http://www.w3.org/2000/svg">
<path d="M15.7 11.0022V11.3022H16H19C19.1759 11.3022 19.3512 11.3788 19.4851 11.5261C19.62 11.6744 19.7 11.8811 19.7 12.102V18.7007C19.7 19.5049 19.4093 20.271 18.8994 20.8318C18.3903 21.3916 17.7064 21.7 17 21.7H3.00001C2.29363 21.7 1.60968 21.3916 1.10065 20.8318C0.590752 20.271 0.300008 19.5049 0.300008 18.7007V1.10415H0.30001L0.300006 1.10307C0.299478 0.956904 0.334164 0.814551 0.398871 0.690726C0.463525 0.567003 0.554864 0.467877 0.660815 0.400604L0.660817 0.400602C0.766069 0.333771 0.88296 0.3 1.00001 0.3C1.11706 0.3 1.23395 0.333771 1.3392 0.400602L1.3392 0.400604L1.34 0.401108L4.34 2.29273L4.50001 2.39362L4.66002 2.29273L7.66002 0.40111L7.66081 0.400602C7.76607 0.333771 7.88296 0.3 8 0.3C8.11705 0.3 8.23394 0.333771 8.3392 0.400604L8.34 0.401108L11.34 2.29273L11.5 2.39362L11.66 2.29273L14.66 0.40111L14.6608 0.400602C14.7661 0.333771 14.883 0.3 15 0.3C15.1171 0.3 15.2339 0.333771 15.3392 0.400602L15.5 0.147343L15.3392 0.400604C15.4451 0.467877 15.5365 0.567004 15.6011 0.690726C15.6658 0.814551 15.7005 0.956905 15.7 1.10307V1.10415V11.0022ZM16 10.7022V1.10415L7.88288e-06 18.7007C7.88288e-06 19.5757 0.316078 20.4149 0.878687 21.0336C1.4413 21.6524 2.20436 22 3.00001 22H17C17.7957 22 18.5587 21.6524 19.1213 21.0336C19.6839 20.4149 20 19.5757 20 18.7007V12.102C20 11.8103 19.8946 11.5306 19.7071 11.3243C19.5196 11.1181 19.2652 11.0022 19 11.0022H16.3H16V10.7022ZM2.15935 2.75259L1.70001 2.46464V3.00677V18.7007C1.70001 19.0632 1.83069 19.4159 2.07094 19.6801C2.31205 19.9453 2.64552 20.1004 3.00001 20.1004H14.18H14.595L14.4649 19.7064C14.3585 19.384 14.3026 19.0435 14.3 18.6995V3.00677V2.46464L13.8407 2.75259L11.846 4.00302C11.7373 4.06442 11.6188 4.09548 11.5 4.09548C11.3813 4.09548 11.2629 4.06448 11.1544 4.00319L8.16001 2.11514L8 2.01424L7.83999 2.11514L4.84565 4.00319C4.73707 4.06448 4.61869 4.09548 4.50001 4.09548C4.38121 4.09548 4.26271 4.06442 4.15404 4.00301L2.15935 2.75259ZM16 12.9017H15.7V13.2017V18.7007C15.7 19.0632 15.8307 19.4159 16.0709 19.6801C16.312 19.9453 16.6455 20.1004 17 20.1004C17.3545 20.1004 17.688 19.9453 17.9291 19.6801C18.1693 19.4159 18.3 19.0632 18.3 18.7007V13.2017V12.9017H18H16ZM4.51486 15.9253C4.64882 15.7779 4.82406 15.7013 5.00001 15.7013H11C11.176 15.7013 11.3512 15.7779 11.4851 15.9253C11.62 16.0735 11.7 16.2803 11.7 16.5011C11.7 16.7219 11.62 16.9287 11.4851 17.0769C11.3512 17.2243 11.176 17.3009 11 17.3009H5.00001C4.82406 17.3009 4.64882 17.2243 4.51486 17.0769C4.38004 16.9287 4.30001 16.7219 4.30001 16.5011C4.30001 16.2803 4.38004 16.0735 4.51486 15.9253ZM9 8.50262H7.00001C6.82406 8.50262 6.64882 8.42601 6.51486 8.27868C6.38004 8.1304 6.30001 7.92368 6.30001 7.70284C6.30001 7.482 6.38004 7.27528 6.51486 7.127C6.64882 6.97967 6.82406 6.90306 7.00001 6.90306H9C9.17595 6.90306 9.35119 6.97967 9.48515 7.127C9.61997 7.27528 9.7 7.482 9.7 7.70284C9.7 7.92368 9.61997 8.1304 9.48515 8.27868C9.35119 8.42601 9.17595 8.50262 9 8.50262ZM5.00001 11.3022H11C11.1759 11.3022 11.3512 11.3788 11.4851 11.5261C11.62 11.6744 11.7 11.8811 11.7 12.102C11.7 12.3228 11.62 12.5295 11.4851 12.6778C11.3512 12.8251 11.1759 12.9017 11 12.9017H5.00001C4.82406 12.9017 4.64882 12.8251 4.51486 12.6778C4.38004 12.5295 4.30001 12.3228 4.30001 12.102C4.30001 11.8811 4.38004 11.6744 4.51486 11.5261C4.64882 11.3788 4.82406 11.3022 5.00001 11.3022Z" fill="#545454" stroke="white" stroke-width="0.6"/>
</svg>
