<svg width="28" height="29" viewBox="0 0 28 29" fill="none" xmlns="http://www.w3.org/2000/svg">
<path d="M12.9452 12.627L12.9458 12.6267C13.1099 12.5346 13.3079 12.5551 13.4531 12.679C13.523 12.7401 13.5745 12.8215 13.6007 12.9134C13.6268 13.0055 13.6263 13.1035 13.599 13.1952C13.599 13.1953 13.599 13.1953 13.599 13.1954L12.2859 17.5449C12.2859 17.5449 12.2859 17.545 12.2859 17.545C12.2253 17.7454 12.0471 17.8799 11.8468 17.8799H6.07324C5.87294 17.8799 5.69482 17.7454 5.63418 17.545C5.63417 17.545 5.63417 17.5449 5.63416 17.5449L4.32098 13.195L4.32098 13.195L4.32077 13.1943C4.26272 13.0067 4.32299 12.8045 4.46656 12.6793C4.61189 12.5579 4.81058 12.5373 4.97509 12.6271C4.97515 12.6271 4.97521 12.6272 4.97528 12.6272L7.11689 13.8102L7.20504 13.8589L7.25311 13.7704L8.56071 11.3634L8.56086 11.3631C8.60101 11.2887 8.65936 11.2271 8.72953 11.1845C8.79967 11.1419 8.87924 11.1195 8.96004 11.1195C9.04085 11.1195 9.12041 11.1419 9.19055 11.1845C9.26073 11.2271 9.31908 11.2887 9.35922 11.3631L9.35937 11.3634L10.667 13.7704L10.715 13.8589L10.8032 13.8102L12.9452 12.627ZM11.4352 16.9199H11.5096L11.531 16.8487L12.3122 14.2561L12.383 14.0212L12.1681 14.1397L10.7486 14.9227C10.7486 14.9227 10.7486 14.9227 10.7486 14.9227C10.5292 15.0433 10.2569 14.9639 10.1345 14.7366L10.1343 14.7364L9.04792 12.7354L8.96004 12.5735L8.87216 12.7354L7.7859 14.7361C7.78588 14.7361 7.78585 14.7362 7.78582 14.7362C7.72614 14.8453 7.62829 14.925 7.51398 14.9594C7.39973 14.9939 7.27698 14.9808 7.17154 14.9227C7.17153 14.9227 7.17152 14.9227 7.17152 14.9227L5.75194 14.1397L5.53711 14.0212L5.60789 14.2561L6.38909 16.8487L6.41053 16.9199H6.48484H11.4352ZM16.24 11.1199H23.24C23.4895 11.1199 23.7 11.3328 23.7 11.5999C23.7 11.867 23.4895 12.0799 23.24 12.0799H16.24C15.9905 12.0799 15.78 11.867 15.78 11.5999C15.78 11.3328 15.9905 11.1199 16.24 11.1199ZM16.24 14.0199H23.24C23.3609 14.0199 23.4775 14.0696 23.5641 14.1592C23.6508 14.249 23.7 14.3715 23.7 14.4999C23.7 14.6283 23.6508 14.7508 23.5641 14.8405C23.4775 14.9302 23.3609 14.9799 23.24 14.9799H16.24C15.9905 14.9799 15.78 14.767 15.78 14.4999C15.78 14.2328 15.9905 14.0199 16.24 14.0199ZM16.24 16.9199H23.24C23.4895 16.9199 23.7 17.1328 23.7 17.3999C23.7 17.667 23.4895 17.8799 23.24 17.8799H16.24C15.9905 17.8799 15.78 17.667 15.78 17.3999C15.78 17.1328 15.9905 16.9199 16.24 16.9199Z" fill="#545454" stroke="white" stroke-width="0.2"/>
<path d="M25.5033 18.1411L25.58 18.1228L25.58 18.0439L25.5828 10.9563L25.5829 10.8774L25.5061 10.859C25.0625 10.7528 24.6562 10.5195 24.3336 10.1854C24.011 9.85123 23.785 9.42958 23.682 8.96828L23.6646 8.89008H23.5844H4.41842H4.33829L4.32083 8.96828C4.21781 9.42958 3.99189 9.85123 3.66925 10.1854C3.34664 10.5195 2.94031 10.7528 2.49673 10.859L2.42002 10.8774V10.9563V18.0439V18.1228L2.49673 18.1411C2.94031 18.2474 3.34664 18.4806 3.66925 18.8148C3.99189 19.1489 4.21781 19.5706 4.32083 20.0319L4.33829 20.1101H4.41842H23.5816H23.6618L23.6792 20.0319C23.7822 19.5706 24.0082 19.1489 24.3308 18.8148C24.6534 18.4806 25.0597 18.2474 25.5033 18.1411ZM24.54 8.41008C24.54 9.26237 25.2087 9.96008 26.04 9.96008C26.2895 9.96008 26.5 10.173 26.5 10.4401V18.5601C26.5 18.8272 26.2895 19.0401 26.04 19.0401C25.2087 19.0401 24.54 19.7378 24.54 20.5901C24.54 20.8572 24.3295 21.0701 24.08 21.0701H3.92002C3.67053 21.0701 3.46002 20.8572 3.46002 20.5901C3.46002 19.7378 2.79133 19.0401 1.96002 19.0401C1.71053 19.0401 1.50002 18.8272 1.50002 18.5601V10.4401C1.50002 10.173 1.71053 9.96008 1.96002 9.96008C2.79133 9.96008 3.46002 9.26237 3.46002 8.41008C3.46002 8.14297 3.67053 7.93008 3.92002 7.93008H24.08C24.3295 7.93008 24.54 8.14297 24.54 8.41008Z" fill="#545454" stroke="white" stroke-width="0.2"/>
</svg>
