<svg width="14" height="14" viewBox="0 0 14 14" fill="none" xmlns="http://www.w3.org/2000/svg">
<path d="M10.6173 9.39876H8.66745L9.14748 9.03875C9.28003 8.93944 9.30684 8.75138 9.20738 8.61883C9.10821 8.48686 8.92045 8.45947 8.78745 8.55893L7.2677 9.69873L8.78745 10.8385C8.83924 10.8776 8.90233 10.8986 8.96717 10.8986C9.05842 10.8986 9.14849 10.8571 9.20738 10.7786C9.30682 10.6461 9.28003 10.458 9.14748 10.3587L8.66745 9.99871H10.6173C11.1961 9.99871 11.6672 10.4698 11.6672 11.0486C11.6672 11.6274 11.1961 12.0985 10.6173 12.0985H8.06757C7.90191 12.0985 7.7676 12.2328 7.7676 12.3984C7.7676 12.5641 7.90191 12.6984 8.06757 12.6984H10.6173C11.527 12.6984 12.2671 11.9583 12.2671 11.0486C12.2671 10.1389 11.527 9.39876 10.6173 9.39876Z" fill="#545454"/>
<path d="M2.36824 11.7986V2.19971C2.36824 2.03434 2.50285 1.89974 2.66821 1.89974H10.4673C10.6327 1.89974 10.7673 2.03434 10.7673 2.19971V7.89907H11.3672V2.19971C11.3672 1.70348 10.9636 1.2998 10.4673 1.2998H2.66821C2.17198 1.2998 1.76831 1.70346 1.76831 2.19971V11.7986C1.76831 12.2949 2.17197 12.6985 2.66821 12.6985H6.26781V12.0986H2.66821C2.50285 12.0986 2.36824 11.964 2.36824 11.7986Z" fill="#545454"/>
<path d="M3.26807 3.69939H7.16762V4.29932H3.26807V3.69939ZM8.96743 3.39941H10.1673V4.59928H8.96743V3.39941ZM3.26807 6.69905H10.1673V7.29898H3.26807V6.69905ZM3.26807 9.69871H6.56769V10.2986H3.26807V9.69871Z" fill="#545454"/>
</svg>
