<svg width="350" height="350" viewBox="0 0 350 350" fill="none" xmlns="http://www.w3.org/2000/svg">
<path d="M166.88 239.071H31.717C30.6575 239.069 29.6419 238.648 28.8927 237.899C28.1436 237.149 27.7219 236.134 27.72 235.074V45.0733C27.7311 44.0199 28.1568 43.0133 28.905 42.2716C29.6532 41.53 30.6635 41.1131 31.717 41.1113H166.88C167.939 41.1132 168.954 41.5351 169.702 42.2845C170.45 43.0339 170.87 44.0495 170.87 45.1083V235.074C170.87 236.133 170.45 237.149 169.702 237.898C168.954 238.648 167.939 239.069 166.88 239.071ZM31.717 41.2513C30.7039 41.2532 29.7328 41.6564 29.0165 42.3728C28.3001 43.0892 27.8969 44.0602 27.895 45.0733V235.074C27.8969 236.087 28.3001 237.058 29.0165 237.775C29.7328 238.491 30.7039 238.894 31.717 238.896H166.88C167.892 238.894 168.863 238.491 169.578 237.774C170.293 237.058 170.695 236.087 170.695 235.074V45.0733C170.695 44.0609 170.293 43.0898 169.578 42.3732C168.863 41.6567 167.892 41.2532 166.88 41.2513H31.717Z" fill="#E6E6E6"/>
<path d="M318.29 239.071H183.12C182.061 239.069 181.046 238.648 180.298 237.898C179.55 237.149 179.13 236.133 179.13 235.074V45.0733C179.139 44.0205 179.563 43.0139 180.311 42.2721C181.058 41.5303 182.067 41.1131 183.12 41.1113H318.29C319.343 41.1131 320.352 41.5303 321.1 42.2721C321.847 43.0139 322.271 44.0205 322.28 45.0733V235.074C322.28 236.133 321.86 237.149 321.112 237.898C320.364 238.648 319.349 239.069 318.29 239.071ZM183.12 41.2513C182.108 41.2532 181.137 41.6567 180.422 42.3732C179.707 43.0898 179.305 44.0609 179.305 45.0733V235.074C179.305 236.087 179.707 237.058 180.422 237.774C181.137 238.491 182.108 238.894 183.12 238.896H318.29C319.304 238.894 320.276 238.491 320.993 237.775C321.71 237.059 322.115 236.088 322.119 235.074V45.0733C322.115 44.0596 321.71 43.0885 320.993 42.3724C320.276 41.6562 319.304 41.2532 318.29 41.2513H183.12Z" fill="#E6E6E6"/>
<path d="M145.425 138.222L144.466 220.5C141.078 247.877 92.547 269.612 92.547 269.612C92.547 269.612 44.009 247.898 40.6 220.5L39.613 138.222L91.483 121.149L145.425 138.222Z" fill="#F5F5F5"/>
<path d="M138.656 143.43L137.823 217.308C134.869 241.185 92.54 260.141 92.54 260.141C92.54 260.141 50.211 241.185 47.264 217.308L46.375 143.43L91.616 128.541L138.656 143.43Z" fill="#E0E0E0"/>
<path d="M135.688 148.093L134.904 215.916C132.104 238.316 92.449 256.068 92.449 256.068C92.449 256.068 52.766 238.295 50.001 215.916L49.168 148.093L91.581 134.135L135.688 148.093Z" stroke="white" stroke-width="3" stroke-linecap="round" stroke-linejoin="round"/>
<path d="M308.224 110.453H214.858V274.281H308.224V110.453Z" fill="#F5F5F5"/>
<path d="M301.455 116.894H221.76V274.282H301.455V116.894Z" fill="#E0E0E0"/>
<path d="M224 274.982C223.86 274.982 223.722 274.954 223.594 274.898C223.468 274.847 223.353 274.771 223.258 274.674C223.156 274.578 223.077 274.461 223.027 274.331C222.977 274.204 222.95 274.068 222.95 273.932C222.95 273.777 222.985 273.624 223.051 273.484C223.117 273.343 223.214 273.22 223.334 273.121C223.453 273.023 223.593 272.952 223.744 272.915C223.894 272.877 224.051 272.873 224.203 272.903L224.399 272.959L224.581 273.057C224.638 273.097 224.692 273.142 224.742 273.19C224.792 273.237 224.834 273.291 224.868 273.351C224.909 273.407 224.942 273.468 224.966 273.533C224.994 273.595 225.015 273.661 225.029 273.729C225.036 273.796 225.036 273.864 225.029 273.932C225.03 274.069 225.001 274.205 224.945 274.331C224.895 274.459 224.819 274.576 224.721 274.674C224.529 274.864 224.271 274.974 224 274.982Z" fill="white"/>
<path d="M222.936 248.143C222.937 248.005 222.965 247.868 223.019 247.74C223.073 247.613 223.152 247.497 223.251 247.4C223.35 247.303 223.467 247.227 223.595 247.175C223.724 247.124 223.862 247.098 224 247.1C224.278 247.1 224.546 247.211 224.742 247.408C224.939 247.605 225.05 247.872 225.05 248.15C225.05 248.429 224.939 248.696 224.742 248.893C224.546 249.089 224.278 249.2 224 249.2C223.86 249.202 223.722 249.176 223.592 249.124C223.463 249.071 223.345 248.994 223.246 248.895C223.147 248.797 223.068 248.679 223.015 248.55C222.962 248.421 222.935 248.283 222.936 248.143ZM222.936 222.362C222.936 222.084 223.047 221.817 223.244 221.62C223.44 221.423 223.708 221.312 223.986 221.312C224.264 221.312 224.532 221.423 224.728 221.62C224.925 221.817 225.036 222.084 225.036 222.362C225.036 222.641 224.925 222.908 224.728 223.105C224.532 223.301 224.264 223.412 223.986 223.412C223.708 223.412 223.44 223.301 223.244 223.105C223.047 222.908 222.936 222.641 222.936 222.362ZM222.936 196.574C222.936 196.296 223.047 196.029 223.244 195.832C223.44 195.635 223.708 195.524 223.986 195.524C224.264 195.524 224.532 195.635 224.728 195.832C224.925 196.029 225.036 196.296 225.036 196.574C225.036 196.853 224.925 197.12 224.728 197.317C224.532 197.513 224.264 197.624 223.986 197.624C223.848 197.624 223.712 197.597 223.584 197.544C223.457 197.491 223.341 197.414 223.244 197.317C223.146 197.219 223.069 197.103 223.016 196.976C222.963 196.848 222.936 196.712 222.936 196.574ZM222.936 170.786C222.936 170.508 223.047 170.241 223.244 170.044C223.44 169.847 223.708 169.736 223.986 169.736C224.264 169.736 224.532 169.847 224.728 170.044C224.925 170.241 225.036 170.508 225.036 170.786C225.036 171.065 224.925 171.332 224.728 171.529C224.532 171.725 224.264 171.836 223.986 171.836C223.71 171.836 223.445 171.727 223.248 171.534C223.052 171.34 222.94 171.076 222.936 170.8V170.786ZM222.936 145.005C222.936 144.727 223.047 144.46 223.244 144.263C223.44 144.066 223.708 143.955 223.986 143.955C224.264 143.955 224.532 144.066 224.728 144.263C224.925 144.46 225.036 144.727 225.036 145.005C225.036 145.284 224.925 145.551 224.728 145.748C224.532 145.944 224.264 146.055 223.986 146.055C223.848 146.055 223.712 146.028 223.584 145.975C223.457 145.922 223.341 145.845 223.244 145.748C223.146 145.65 223.069 145.534 223.016 145.407C222.963 145.28 222.936 145.143 222.936 145.005Z" fill="white"/>
<path d="M224 120.267C223.862 120.268 223.725 120.241 223.598 120.188C223.471 120.135 223.355 120.057 223.258 119.959C223.206 119.912 223.162 119.858 223.125 119.798C223.088 119.742 223.055 119.684 223.027 119.623C222.998 119.558 222.979 119.49 222.971 119.42C222.964 119.352 222.964 119.284 222.971 119.217C222.973 118.939 223.083 118.673 223.279 118.475C223.325 118.425 223.377 118.381 223.433 118.342C223.49 118.305 223.551 118.274 223.615 118.251C223.678 118.224 223.744 118.203 223.811 118.188C223.947 118.16 224.088 118.16 224.224 118.188C224.291 118.203 224.357 118.224 224.42 118.251C224.484 118.274 224.545 118.305 224.602 118.342C224.659 118.382 224.713 118.427 224.763 118.475C224.959 118.673 225.069 118.939 225.071 119.217C225.078 119.284 225.078 119.352 225.071 119.42C225.056 119.489 225.035 119.557 225.008 119.623C224.982 119.685 224.949 119.744 224.91 119.798C224.876 119.857 224.834 119.912 224.784 119.959C224.681 120.061 224.559 120.141 224.424 120.194C224.289 120.247 224.145 120.272 224 120.267Z" fill="white"/>
<path d="M272.916 119.217C272.916 118.939 273.027 118.671 273.224 118.475C273.42 118.278 273.687 118.167 273.966 118.167C274.244 118.167 274.512 118.278 274.708 118.475C274.905 118.671 275.016 118.939 275.016 119.217C275.016 119.495 274.905 119.763 274.708 119.959C274.512 120.156 274.244 120.267 273.966 120.267C273.687 120.267 273.42 120.156 273.224 119.959C273.027 119.763 272.916 119.495 272.916 119.217ZM247.926 119.217C247.926 118.939 248.037 118.671 248.234 118.475C248.43 118.278 248.697 118.167 248.976 118.167C249.254 118.167 249.522 118.278 249.718 118.475C249.915 118.671 250.026 118.939 250.026 119.217C250.026 119.495 249.915 119.763 249.718 119.959C249.522 120.156 249.254 120.267 248.976 120.267C248.697 120.267 248.43 120.156 248.234 119.959C248.037 119.763 247.926 119.495 247.926 119.217Z" fill="white"/>
<path d="M298.956 120.267C298.888 120.274 298.82 120.274 298.753 120.267L298.557 120.211L298.375 120.113C298.318 120.073 298.264 120.028 298.214 119.98C298.017 119.784 297.906 119.517 297.906 119.238C297.908 118.96 298.018 118.694 298.214 118.496C298.263 118.448 298.317 118.406 298.375 118.37C298.43 118.328 298.492 118.295 298.557 118.272C298.62 118.244 298.685 118.223 298.753 118.209C298.889 118.181 299.03 118.181 299.166 118.209L299.362 118.272C299.425 118.295 299.484 118.329 299.537 118.37C299.597 118.404 299.651 118.447 299.698 118.496C299.894 118.694 300.004 118.96 300.006 119.238C300.006 119.517 299.895 119.784 299.698 119.98C299.649 120.03 299.595 120.075 299.537 120.113C299.481 120.15 299.423 120.183 299.362 120.211L299.166 120.267C299.096 120.274 299.026 120.274 298.956 120.267Z" fill="white"/>
<path d="M297.906 248.143C297.906 247.865 298.017 247.598 298.214 247.401C298.41 247.204 298.677 247.093 298.956 247.093C299.234 247.093 299.502 247.204 299.698 247.401C299.895 247.598 300.006 247.865 300.006 248.143C300.006 248.422 299.895 248.689 299.698 248.886C299.502 249.082 299.234 249.193 298.956 249.193C298.677 249.193 298.41 249.082 298.214 248.886C298.017 248.689 297.906 248.422 297.906 248.143ZM297.906 222.362C297.906 222.084 298.017 221.817 298.214 221.62C298.41 221.423 298.677 221.312 298.956 221.312C299.234 221.312 299.502 221.423 299.698 221.62C299.895 221.817 300.006 222.084 300.006 222.362C300.006 222.641 299.895 222.908 299.698 223.105C299.502 223.301 299.234 223.412 298.956 223.412C298.677 223.412 298.41 223.301 298.214 223.105C298.017 222.908 297.906 222.641 297.906 222.362ZM297.906 196.574C297.906 196.296 298.017 196.029 298.214 195.832C298.41 195.635 298.677 195.524 298.956 195.524C299.234 195.524 299.502 195.635 299.698 195.832C299.895 196.029 300.006 196.296 300.006 196.574C300.006 196.853 299.895 197.12 299.698 197.317C299.502 197.513 299.234 197.624 298.956 197.624C298.818 197.624 298.682 197.597 298.554 197.544C298.427 197.491 298.311 197.414 298.214 197.317C298.116 197.219 298.039 197.103 297.986 196.976C297.933 196.848 297.906 196.712 297.906 196.574ZM297.906 170.786C297.906 170.508 298.017 170.241 298.214 170.044C298.41 169.847 298.677 169.736 298.956 169.736C299.234 169.736 299.502 169.847 299.698 170.044C299.895 170.241 300.006 170.508 300.006 170.786C300.006 171.065 299.895 171.332 299.698 171.529C299.502 171.725 299.234 171.836 298.956 171.836C298.68 171.836 298.415 171.727 298.218 171.534C298.022 171.34 297.91 171.076 297.906 170.8V170.786ZM297.906 145.005C297.906 144.727 298.017 144.46 298.214 144.263C298.41 144.066 298.677 143.955 298.956 143.955C299.234 143.955 299.502 144.066 299.698 144.263C299.895 144.46 300.006 144.727 300.006 145.005C300.006 145.284 299.895 145.551 299.698 145.748C299.502 145.944 299.234 146.055 298.956 146.055C298.818 146.055 298.682 146.028 298.554 145.975C298.427 145.922 298.311 145.845 298.214 145.748C298.116 145.65 298.039 145.534 297.986 145.407C297.933 145.28 297.906 145.143 297.906 145.005Z" fill="white"/>
<path d="M298.956 274.982C298.748 274.982 298.546 274.92 298.373 274.805C298.201 274.689 298.066 274.525 297.987 274.333C297.907 274.142 297.887 273.931 297.927 273.727C297.967 273.524 298.067 273.337 298.214 273.19C298.264 273.142 298.318 273.097 298.375 273.057L298.557 272.959L298.753 272.903C298.889 272.875 299.03 272.875 299.166 272.903L299.362 272.959C299.423 272.987 299.481 273.02 299.537 273.057C299.595 273.095 299.649 273.14 299.698 273.19C299.895 273.386 300.006 273.653 300.006 273.932C300.007 274.07 299.981 274.207 299.928 274.334C299.875 274.462 299.797 274.577 299.698 274.674C299.501 274.871 299.234 274.982 298.956 274.982Z" fill="white"/>
<path d="M66.5 274.547H37.653V274.722H66.5V274.547Z" fill="#E0E0E0"/>
<path d="M125.3 273.147H96.369V273.322H125.3V273.147Z" fill="#E0E0E0"/>
<path d="M162.946 273.147H155.946V273.322H162.946V273.147Z" fill="#E0E0E0"/>
<path d="M92.981 279.125H60.606V279.3H92.981V279.125Z" fill="#E0E0E0"/>
<path d="M204.96 274.456H189.84V274.631H204.96V274.456Z" fill="#E0E0E0"/>
<path d="M230.741 274.456H211.19V274.631H230.741V274.456Z" fill="#E0E0E0"/>
<path d="M325.031 277.417H281.323V277.592H325.031V277.417Z" fill="#E0E0E0"/>
<path d="M163.387 61.3558H131.138L132.902 41.2588H165.144L163.387 61.3558Z" fill="#EBEBEB"/>
<path d="M164.038 38.5283L163.156 49.0213L162.274 61.6353H131.264L133.028 38.5283H164.038Z" fill="#FAFAFA"/>
<path d="M161.077 41.2581L162.834 61.3551H130.592L128.828 41.2581H131.572L132.524 39.7461H141.211L142.457 41.2581H161.077Z" fill="#E0E0E0"/>
<path d="M213.367 65.8428H179.053V100.157H213.367V65.8428Z" fill="#EBEBEB"/>
<path d="M214.242 65.8428H213.367V100.157H214.242V65.8428Z" fill="#E0E0E0"/>
<path d="M210.189 69.0205H182.217V96.9925H210.189V69.0205Z" fill="#F5F5F5"/>
<path d="M182.483 69.0205H182.224V96.9925H182.483V69.0205Z" fill="#E0E0E0"/>
<path d="M196.469 87.0452C199.481 87.0452 201.922 83.9363 201.922 80.1012C201.922 76.2662 199.481 73.1572 196.469 73.1572C193.457 73.1572 191.016 76.2662 191.016 80.1012C191.016 83.9363 193.457 87.0452 196.469 87.0452Z" fill="#E0E0E0"/>
<path d="M193.62 90.5596H199.367V84.8126H193.62V90.5596Z" fill="#E0E0E0"/>
<path d="M206.829 96.9922H185.773V95.0322C185.773 93.2425 186.484 91.5261 187.749 90.2606C189.015 88.9951 190.731 88.2842 192.521 88.2842H200.109C201.899 88.2842 203.615 88.9951 204.881 90.2606C206.146 91.5261 206.857 93.2425 206.857 95.0322V96.9922H206.829Z" fill="#E0E0E0"/>
<path d="M185.248 85.3167C185.248 86.4577 187.348 87.4167 187.348 87.4167C187.348 87.4167 189.448 86.4857 189.448 85.3167C189.448 84.7707 188.692 84.4627 188.195 84.6167C188.005 84.6831 187.829 84.7865 187.679 84.9211C187.529 85.0557 187.407 85.2187 187.32 85.4007C187.052 85.0396 186.698 84.7509 186.291 84.5607C186.172 84.5188 186.044 84.5065 185.918 84.5248C185.793 84.5432 185.674 84.5915 185.572 84.6658C185.469 84.7401 185.386 84.8381 185.33 84.9515C185.274 85.0648 185.245 85.1901 185.248 85.3167Z" fill="#E0E0E0"/>
<path d="M203.882 80.2133C203.882 81.7183 206.605 82.9363 206.605 82.9363C206.605 82.9363 209.328 81.7183 209.328 80.2133C209.328 79.5133 208.32 79.1003 207.683 79.2823C207.203 79.4742 206.816 79.8459 206.605 80.3183C206.25 79.8467 205.786 79.4674 205.254 79.2123C205.096 79.1565 204.927 79.1399 204.762 79.1641C204.596 79.1883 204.439 79.2525 204.304 79.351C204.169 79.4496 204.06 79.5797 203.986 79.73C203.913 79.8802 203.877 80.0461 203.882 80.2133Z" fill="#E0E0E0"/>
<path d="M143.997 251.525C144.319 253.548 145.782 255.291 145.894 257.335C145.985 258.938 145.236 260.443 144.865 262.004C144.494 263.565 144.676 265.504 146.041 266.33C146.538 266.582 147.093 266.698 147.649 266.664C148.205 266.631 148.742 266.45 149.205 266.141C150.119 265.508 150.874 264.672 151.41 263.698C153.557 260.227 154.73 256.242 154.805 252.162C154.805 250.447 154.63 248.627 153.622 247.262C150.5 242.901 143.199 246.485 143.997 251.525Z" fill="#F5F5F5"/>
<path d="M141.4 246.169C141.701 246.498 142.094 246.73 142.527 246.834C142.789 246.92 143.069 246.937 143.339 246.884C143.61 246.832 143.863 246.711 144.074 246.533C144.235 246.327 144.349 246.088 144.41 245.833C144.47 245.578 144.475 245.313 144.424 245.056C144.381 244.412 144.161 243.792 143.787 243.264C143.599 243.005 143.35 242.795 143.062 242.655C142.774 242.514 142.455 242.447 142.135 242.459C141.815 242.486 141.514 242.621 141.282 242.843C141.05 243.065 140.902 243.359 140.861 243.677C140.783 244.544 140.971 245.413 141.4 246.169Z" fill="#F5F5F5"/>
<path d="M147.217 241.962C147.074 241.741 146.869 241.566 146.627 241.461C146.386 241.355 146.119 241.322 145.859 241.367C145.602 241.425 145.368 241.558 145.189 241.751C145.009 241.943 144.891 242.185 144.851 242.445C144.84 242.615 144.84 242.786 144.851 242.956C144.854 243.232 144.884 243.506 144.942 243.775C145.001 244.035 145.123 244.276 145.299 244.475C145.539 244.709 145.844 244.865 146.174 244.923C146.378 244.972 146.591 244.971 146.795 244.92C146.998 244.869 147.186 244.769 147.343 244.629C147.482 244.46 147.586 244.264 147.649 244.054C147.711 243.843 147.731 243.622 147.707 243.404C147.691 242.886 147.52 242.383 147.217 241.962Z" fill="#F5F5F5"/>
<path d="M150.458 241.787C150.343 241.576 150.156 241.413 149.932 241.328C149.707 241.243 149.459 241.242 149.233 241.325C149.013 241.417 148.819 241.561 148.667 241.745C148.516 241.93 148.412 242.148 148.365 242.382C148.365 242.536 148.323 242.69 148.316 242.844C148.312 243.099 148.34 243.353 148.4 243.6C148.45 243.844 148.578 244.065 148.764 244.23C148.963 244.396 149.206 244.499 149.464 244.524C149.632 244.545 149.802 244.528 149.963 244.476C150.124 244.424 150.271 244.338 150.395 244.223C150.667 243.914 150.817 243.515 150.815 243.103C150.846 242.637 150.72 242.174 150.458 241.787Z" fill="#F5F5F5"/>
<path d="M153.349 242.459C153.006 241.948 152.649 241.913 152.257 242.13C151.909 242.385 151.661 242.754 151.557 243.173C151.518 243.308 151.49 243.446 151.473 243.586C151.435 243.818 151.435 244.054 151.473 244.286C151.519 244.51 151.649 244.708 151.837 244.839C152.01 244.947 152.214 244.996 152.418 244.979C152.683 244.955 152.931 244.839 153.118 244.65C153.376 244.374 153.54 244.024 153.587 243.649C153.658 243.236 153.573 242.812 153.349 242.459Z" fill="#F5F5F5"/>
<path d="M153.916 245.294C153.878 245.46 153.878 245.633 153.916 245.798C153.93 245.883 153.965 245.964 154.017 246.032C154.07 246.1 154.139 246.155 154.217 246.19C154.36 246.223 154.51 246.212 154.647 246.16C154.784 246.108 154.902 246.016 154.987 245.896C155.194 245.684 155.345 245.425 155.428 245.14C155.469 244.998 155.481 244.849 155.463 244.703C155.445 244.556 155.397 244.414 155.323 244.286C154.7 243.271 154 244.79 153.916 245.294Z" fill="#F5F5F5"/>
<path d="M154.483 298.277C154.952 296.625 155.225 294.812 154.602 293.209C152.677 288.218 144.725 289.807 144.2 294.889L154.483 298.277Z" fill="#F5F5F5"/>
<path d="M143.094 289.051C143.302 289.447 143.624 289.772 144.018 289.982C144.249 290.132 144.514 290.22 144.788 290.238C145.063 290.257 145.337 290.205 145.586 290.087C145.791 289.927 145.959 289.724 146.079 289.494C146.2 289.264 146.27 289.01 146.286 288.75C146.41 288.118 146.356 287.464 146.132 286.86C146.016 286.559 145.828 286.291 145.583 286.08C145.339 285.869 145.047 285.721 144.732 285.649C144.417 285.594 144.093 285.647 143.813 285.801C143.532 285.955 143.313 286.201 143.192 286.496C142.902 287.319 142.868 288.209 143.094 289.051Z" fill="#F5F5F5"/>
<path d="M149.8 286.469C149.717 286.218 149.563 285.998 149.356 285.834C149.15 285.67 148.9 285.569 148.638 285.545C148.375 285.536 148.115 285.606 147.892 285.745C147.669 285.885 147.492 286.088 147.385 286.329C147.323 286.489 147.272 286.652 147.231 286.819C147.16 287.084 147.118 287.356 147.105 287.631C147.087 287.904 147.143 288.177 147.266 288.422C147.432 288.701 147.675 288.927 147.966 289.073C148.15 289.171 148.356 289.222 148.565 289.222C148.773 289.222 148.979 289.171 149.163 289.073C149.347 288.948 149.503 288.788 149.623 288.601C149.744 288.415 149.825 288.206 149.863 287.988C149.989 287.486 149.967 286.958 149.8 286.469Z" fill="#F5F5F5"/>
<path d="M152.95 287.134C152.893 286.903 152.756 286.7 152.564 286.561C152.372 286.421 152.137 286.354 151.9 286.371C151.663 286.405 151.438 286.496 151.244 286.636C151.05 286.776 150.893 286.961 150.787 287.176C150.724 287.315 150.668 287.458 150.619 287.603C150.54 287.84 150.493 288.088 150.479 288.338C150.465 288.584 150.529 288.829 150.661 289.038C150.816 289.257 151.037 289.421 151.291 289.507C151.448 289.57 151.618 289.598 151.787 289.589C151.957 289.579 152.122 289.532 152.271 289.451C152.615 289.225 152.864 288.881 152.971 288.485C153.113 288.044 153.106 287.569 152.95 287.134Z" fill="#F5F5F5"/>
<path d="M155.568 288.526C155.372 287.938 155.001 287.826 154.602 287.924C154.194 288.076 153.852 288.366 153.636 288.743C153.566 288.865 153.503 288.992 153.447 289.121C153.361 289.331 153.309 289.553 153.293 289.779C153.28 290.005 153.352 290.227 153.496 290.402C153.635 290.553 153.819 290.654 154.021 290.689C154.283 290.74 154.555 290.693 154.784 290.556C155.1 290.353 155.344 290.057 155.484 289.709C155.655 289.338 155.685 288.918 155.568 288.526Z" fill="#F5F5F5"/>
<path d="M155.4 291.41C155.314 291.558 155.264 291.723 155.253 291.893C155.246 291.979 155.26 292.065 155.292 292.144C155.325 292.223 155.377 292.293 155.442 292.348C155.572 292.417 155.718 292.445 155.864 292.43C156.01 292.415 156.148 292.358 156.261 292.264C156.514 292.111 156.728 291.9 156.884 291.648C156.96 291.521 157.009 291.38 157.03 291.233C157.05 291.087 157.041 290.938 157.003 290.794C156.639 289.653 155.624 290.955 155.4 291.41Z" fill="#F5F5F5"/>
<path d="M126.889 268.562C127.148 270.599 126.189 272.678 126.679 274.673C127.036 276.234 128.177 277.473 128.961 278.873C129.745 280.273 130.116 282.177 129.024 283.353C128.619 283.734 128.119 284 127.576 284.123C127.033 284.246 126.467 284.222 125.937 284.053C124.884 283.692 123.926 283.096 123.137 282.31C120.114 279.57 117.884 276.066 116.683 272.167C116.179 270.522 115.871 268.723 116.459 267.106C118.3 262.073 126.266 263.501 126.889 268.562Z" fill="#F5F5F5"/>
<path d="M127.876 262.71C127.679 263.108 127.367 263.438 126.98 263.655C126.753 263.812 126.489 263.907 126.214 263.931C125.94 263.956 125.663 263.909 125.412 263.795C125.199 263.642 125.021 263.445 124.892 263.216C124.763 262.988 124.685 262.734 124.663 262.472C124.528 261.841 124.567 261.186 124.775 260.575C124.888 260.27 125.075 259.998 125.32 259.783C125.564 259.568 125.858 259.417 126.175 259.343C126.489 259.28 126.815 259.326 127.099 259.473C127.383 259.621 127.608 259.862 127.736 260.155C127.932 260.806 128.177 262.073 127.876 262.71Z" fill="#F5F5F5"/>
<path d="M121.149 260.267C121.226 260.015 121.375 259.79 121.578 259.621C121.78 259.452 122.028 259.346 122.29 259.315C122.553 259.302 122.814 259.367 123.04 259.503C123.266 259.639 123.446 259.839 123.557 260.078C123.625 260.235 123.681 260.396 123.725 260.561C123.801 260.824 123.847 261.094 123.865 261.366C123.89 261.641 123.839 261.917 123.718 262.164C123.562 262.464 123.318 262.709 123.018 262.864C122.838 262.97 122.634 263.03 122.426 263.038C122.217 263.047 122.009 263.004 121.821 262.913C121.638 262.789 121.482 262.63 121.362 262.445C121.242 262.26 121.16 262.053 121.121 261.835C120.969 261.322 120.979 260.775 121.149 260.267Z" fill="#F5F5F5"/>
<path d="M117.985 260.996C118.037 260.761 118.171 260.552 118.364 260.408C118.557 260.264 118.795 260.194 119.035 260.212C119.272 260.241 119.498 260.326 119.694 260.462C119.89 260.597 120.051 260.778 120.162 260.989C120.229 261.127 120.288 261.27 120.337 261.416C120.423 261.652 120.477 261.9 120.498 262.151C120.512 262.396 120.451 262.64 120.323 262.851C120.174 263.073 119.958 263.242 119.707 263.334C119.551 263.401 119.383 263.433 119.213 263.427C119.044 263.421 118.877 263.377 118.727 263.299C118.385 263.078 118.136 262.739 118.027 262.347C117.864 261.913 117.85 261.438 117.985 260.996Z" fill="#F5F5F5"/>
<path d="M115.395 262.444C115.584 261.856 115.948 261.744 116.354 261.821C116.765 261.967 117.112 262.252 117.334 262.626C117.407 262.746 117.473 262.87 117.53 262.997C117.624 263.203 117.681 263.423 117.698 263.648C117.72 263.875 117.652 264.101 117.509 264.278C117.374 264.431 117.191 264.534 116.991 264.572C116.729 264.63 116.455 264.59 116.221 264.46C115.896 264.265 115.639 263.974 115.486 263.627C115.313 263.257 115.281 262.837 115.395 262.444Z" fill="#F5F5F5"/>
<path d="M115.633 265.3C115.72 265.448 115.775 265.613 115.794 265.783C115.802 265.869 115.789 265.955 115.758 266.036C115.726 266.116 115.676 266.188 115.612 266.245C115.482 266.314 115.335 266.344 115.189 266.332C115.042 266.32 114.902 266.265 114.786 266.175C114.53 266.029 114.313 265.823 114.156 265.573C114.077 265.447 114.024 265.307 114.001 265.16C113.978 265.013 113.985 264.863 114.023 264.719C114.352 263.592 115.395 264.873 115.633 265.3Z" fill="#F5F5F5"/>
<path d="M109.711 100.513C108.1 100.74 106.458 100.484 104.993 99.7769C103.528 99.0702 102.305 97.9448 101.479 96.5431C100.653 95.1415 100.262 93.5264 100.354 91.9022C100.446 90.2781 101.018 88.7177 101.997 87.4185C102.976 86.1193 104.319 85.1396 105.854 84.6033C107.39 84.067 109.051 83.9982 110.626 84.4056C112.201 84.813 113.619 85.6783 114.703 86.892C115.786 88.1058 116.485 89.6135 116.711 91.2245C117.011 93.3839 116.442 95.574 115.13 97.3151C113.818 99.0562 111.869 100.206 109.711 100.513ZM108.045 88.5435C107.289 88.6477 106.581 88.9737 106.011 89.4804C105.44 89.987 105.033 90.6515 104.84 91.3898C104.647 92.128 104.678 92.9069 104.928 93.6278C105.177 94.3487 105.636 94.9793 106.244 95.4398C106.852 95.9003 107.584 96.1699 108.345 96.2147C109.107 96.2594 109.865 96.0773 110.523 95.6912C111.181 95.3051 111.71 94.7325 112.043 94.0458C112.376 93.3591 112.497 92.5892 112.392 91.8335C112.25 90.8218 111.712 89.9077 110.898 89.2912C110.083 88.6746 109.057 88.4058 108.045 88.5435Z" fill="#E0E0E0"/>
<path d="M106.628 67.8328L103.536 68.2646L106.313 88.1546L109.405 87.7228L106.628 67.8328Z" fill="#E0E0E0"/>
<path d="M109.243 65.0645L103.443 65.8848L103.88 68.9755L109.68 68.1553L109.243 65.0645Z" fill="#E0E0E0"/>
<path d="M109.72 69.2693L104.264 70.0303L104.695 73.1223L110.151 72.3614L109.72 69.2693Z" fill="#E0E0E0"/>
<path d="M110.515 74.8748L105.752 75.5391L106.184 78.6311L110.947 77.9668L110.515 74.8748Z" fill="#E0E0E0"/>
<path d="M175 309.813C249.958 309.813 310.723 306.265 310.723 301.889C310.723 297.513 249.958 293.965 175 293.965C100.042 293.965 39.277 297.513 39.277 301.889C39.277 306.265 100.042 309.813 175 309.813Z" fill="#F5F5F5"/>
<path d="M103.229 170.293C109.683 163.551 108.951 152.378 101.595 145.336C94.2396 138.294 83.0448 138.051 76.5913 144.793C70.1377 151.534 70.8692 162.707 78.225 169.749C85.5809 176.791 96.7756 177.034 103.229 170.293Z" fill="#D328F9"/>
<g opacity="0.8">
<path d="M103.229 170.293C109.683 163.551 108.951 152.378 101.595 145.336C94.2396 138.294 83.0448 138.051 76.5913 144.793C70.1377 151.534 70.8692 162.707 78.225 169.749C85.5809 176.791 96.7756 177.034 103.229 170.293Z" fill="white"/>
</g>
<path d="M81.683 146.467C81.5361 146.467 81.3929 146.421 81.2737 146.335C81.1545 146.249 81.0654 146.128 81.0189 145.988C80.9725 145.849 80.971 145.699 81.0148 145.558C81.0586 145.418 81.1455 145.295 81.263 145.207C83.6201 143.515 86.4612 142.631 89.362 142.687C89.5477 142.687 89.7257 142.761 89.857 142.892C89.9883 143.023 90.062 143.201 90.062 143.387C90.062 143.573 89.9883 143.751 89.857 143.882C89.7257 144.013 89.5477 144.087 89.362 144.087C86.7639 144.03 84.2171 144.816 82.103 146.327C81.9818 146.418 81.8345 146.467 81.683 146.467Z" fill="#D328F9"/>
<path d="M84.994 170.547C84.8791 170.547 84.7661 170.518 84.665 170.463C82.5198 169.316 80.6583 167.704 79.217 165.744C77.7756 163.784 76.7909 161.527 76.335 159.137C75.8903 157.07 75.9107 154.93 76.395 152.872C76.8793 150.814 77.8152 148.889 79.135 147.237C79.2538 147.094 79.4246 147.004 79.6097 146.987C79.7948 146.97 79.9791 147.027 80.122 147.146C80.265 147.265 80.3549 147.436 80.3719 147.621C80.389 147.806 80.3318 147.99 80.213 148.133C79.0208 149.628 78.1766 151.37 77.7419 153.233C77.3072 155.095 77.2929 157.031 77.7 158.899C78.1194 161.084 79.0206 163.147 80.3381 164.939C81.6556 166.731 83.3562 168.207 85.316 169.259C85.4529 169.333 85.5612 169.45 85.624 169.593C85.6868 169.735 85.7004 169.894 85.6626 170.045C85.6249 170.196 85.538 170.33 85.4157 170.426C85.2934 170.522 85.1425 170.574 84.987 170.575L84.994 170.547Z" fill="#D328F9"/>
<path d="M92.001 172.375C90.4342 172.368 88.8779 172.118 87.388 171.633C87.3002 171.604 87.2189 171.559 87.1487 171.499C87.0785 171.439 87.0208 171.366 86.9789 171.284C86.9369 171.201 86.9116 171.112 86.9043 171.02C86.8971 170.928 86.908 170.835 86.9365 170.747C86.965 170.66 87.0105 170.578 87.0704 170.508C87.1304 170.438 87.2035 170.38 87.2857 170.338C87.368 170.296 87.4576 170.271 87.5497 170.264C87.6417 170.256 87.7342 170.267 87.822 170.296C92.127 171.696 96.425 170.912 99.61 168.196C101.226 166.77 102.447 164.951 103.156 162.916C103.864 160.881 104.037 158.697 103.656 156.576C103.626 156.39 103.672 156.2 103.782 156.048C103.892 155.896 104.058 155.793 104.244 155.764C104.43 155.734 104.619 155.779 104.772 155.89C104.924 156 105.026 156.166 105.056 156.352C105.48 158.709 105.288 161.136 104.496 163.397C103.705 165.657 102.343 167.675 100.541 169.253C98.1672 171.295 95.1321 172.404 92.001 172.375Z" fill="#D328F9"/>
<path d="M103.775 154.783C103.627 154.782 103.482 154.735 103.363 154.647C103.243 154.559 103.155 154.435 103.11 154.293C102.466 152.305 101.412 150.475 100.016 148.92C98.6191 147.366 96.9118 146.122 95.004 145.27C94.8332 145.196 94.6989 145.057 94.6307 144.883C94.5624 144.71 94.5658 144.517 94.64 144.346C94.7143 144.175 94.8534 144.041 95.0266 143.973C95.1999 143.904 95.3932 143.908 95.564 143.982C97.6532 144.916 99.5229 146.279 101.052 147.981C102.581 149.684 103.735 151.689 104.44 153.866C104.497 154.042 104.483 154.234 104.399 154.4C104.315 154.565 104.168 154.69 103.992 154.748C103.922 154.769 103.849 154.781 103.775 154.783Z" fill="#D328F9"/>
<path d="M92.743 144.48C92.6896 144.487 92.6354 144.487 92.582 144.48C91.5286 144.235 90.4506 144.11 89.369 144.109C89.1834 144.109 89.0053 144.035 88.874 143.904C88.7428 143.773 88.669 143.595 88.669 143.409C88.669 143.223 88.7428 143.045 88.874 142.914C89.0053 142.783 89.1834 142.709 89.369 142.709C90.5476 142.713 91.7219 142.851 92.869 143.122C93.0547 143.143 93.2242 143.238 93.3404 143.384C93.4566 143.53 93.5099 143.717 93.4885 143.902C93.4672 144.088 93.3729 144.258 93.2266 144.374C93.0802 144.49 92.8937 144.543 92.708 144.522L92.743 144.48Z" fill="#D328F9"/>
<path d="M80.395 161.203C80.252 161.203 80.1122 161.16 79.9946 161.078C79.877 160.997 79.7871 160.882 79.737 160.748C79.0809 159.054 78.8501 157.225 79.0649 155.421C79.2796 153.618 79.9335 151.894 80.969 150.402C81.9479 148.988 83.259 147.836 84.7871 147.048C86.3152 146.259 88.0136 145.858 89.733 145.88C89.9187 145.88 90.0967 145.953 90.228 146.085C90.3593 146.216 90.433 146.394 90.433 146.58C90.433 146.765 90.3593 146.943 90.228 147.075C90.0967 147.206 89.9187 147.28 89.733 147.28C88.2391 147.262 86.7635 147.61 85.4349 148.293C84.1062 148.977 82.9648 149.974 82.11 151.2C81.2019 152.514 80.6306 154.031 80.4463 155.618C80.262 157.205 80.4703 158.812 81.053 160.3C81.1164 160.473 81.1086 160.665 81.0312 160.833C80.9538 161.001 80.8132 161.131 80.64 161.196C80.5593 161.212 80.4765 161.214 80.395 161.203Z" fill="#D328F9"/>
<path d="M91.497 169.197C89.3989 169.126 87.3486 168.551 85.5206 167.518C83.6925 166.486 82.1407 165.028 80.997 163.268C80.912 163.113 80.8886 162.932 80.9314 162.761C80.9743 162.589 81.0802 162.441 81.2279 162.344C81.3757 162.248 81.5544 162.211 81.7284 162.24C81.9023 162.27 82.0586 162.364 82.166 162.505C83.1826 164.071 84.5611 165.369 86.1852 166.29C87.8093 167.211 89.6312 167.728 91.497 167.797C91.6827 167.797 91.8607 167.87 91.992 168.002C92.1233 168.133 92.197 168.311 92.197 168.497C92.197 168.682 92.1233 168.86 91.992 168.991C91.8607 169.123 91.6827 169.197 91.497 169.197Z" fill="#D328F9"/>
<path d="M94.115 168.896C93.9551 168.901 93.7984 168.85 93.6711 168.753C93.5437 168.657 93.4533 168.519 93.415 168.364C93.3706 168.184 93.3995 167.993 93.4953 167.835C93.5911 167.676 93.746 167.562 93.926 167.517C99.603 166.117 101.073 161.14 100.604 157.318C99.995 152.334 96.061 147.287 89.712 147.28C89.5264 147.28 89.3483 147.206 89.217 147.075C89.0858 146.944 89.012 146.766 89.012 146.58C89.012 146.394 89.0858 146.216 89.217 146.085C89.3483 145.954 89.5264 145.88 89.712 145.88C96.873 145.88 101.311 151.55 101.997 157.15C102.697 162.925 99.666 167.531 94.262 168.875C94.2139 168.887 94.1646 168.894 94.115 168.896Z" fill="#D328F9"/>
<path d="M86.87 151.144C86.7373 151.143 86.6076 151.104 86.4961 151.032C86.3846 150.961 86.2957 150.858 86.24 150.738C86.1611 150.57 86.1522 150.377 86.2152 150.203C86.2783 150.028 86.408 149.886 86.576 149.807C87.6491 149.332 88.8117 149.094 89.985 149.107C90.1707 149.107 90.3487 149.181 90.48 149.312C90.6113 149.443 90.685 149.621 90.685 149.807C90.685 149.993 90.6113 150.171 90.48 150.302C90.3487 150.433 90.1707 150.507 89.985 150.507C89.0189 150.508 88.0641 150.715 87.185 151.116C87.0835 151.149 86.9758 151.159 86.87 151.144Z" fill="#D328F9"/>
<path d="M91.371 165.934C89.5981 165.906 87.8706 165.37 86.393 164.39C84.9154 163.41 83.7497 162.026 83.034 160.404C81.585 157.247 82.012 153.95 84.175 151.57C84.3005 151.434 84.4749 151.353 84.6598 151.345C84.8448 151.337 85.0254 151.403 85.162 151.528C85.2981 151.654 85.3789 151.828 85.3868 152.013C85.3947 152.198 85.329 152.379 85.204 152.515C84.3342 153.499 83.783 154.723 83.6231 156.027C83.4631 157.33 83.7019 158.651 84.308 159.816C84.9267 161.23 85.9472 162.431 87.2427 163.27C88.5382 164.109 90.0517 164.548 91.595 164.534C92.7625 164.526 93.9026 164.179 94.8777 163.537C95.8528 162.895 96.6211 161.984 97.09 160.915C97.6172 159.654 97.7761 158.269 97.5481 156.921C97.3201 155.573 96.7147 154.317 95.802 153.299C95.7423 153.229 95.6969 153.148 95.6684 153.061C95.6399 152.974 95.6289 152.881 95.6361 152.79C95.6432 152.698 95.6684 152.609 95.7101 152.527C95.7517 152.445 95.8091 152.372 95.879 152.312C95.9489 152.252 96.0298 152.207 96.1172 152.179C96.2046 152.15 96.2968 152.139 96.3885 152.146C96.4801 152.153 96.5695 152.179 96.6514 152.22C96.7333 152.262 96.8063 152.319 96.866 152.389C97.9526 153.608 98.6709 155.11 98.9373 156.721C99.2037 158.332 99.0073 159.985 98.371 161.489C97.7966 162.801 96.8556 163.919 95.6609 164.709C94.4663 165.499 93.069 165.927 91.637 165.941L91.371 165.934Z" fill="#D328F9"/>
<path d="M94.318 151.759C94.1859 151.76 94.0566 151.721 93.947 151.647C92.765 150.887 91.3906 150.479 89.985 150.471C89.7994 150.471 89.6213 150.398 89.49 150.266C89.3588 150.135 89.285 149.957 89.285 149.771C89.285 149.586 89.3588 149.408 89.49 149.276C89.6213 149.145 89.7994 149.071 89.985 149.071C91.657 149.078 93.292 149.563 94.696 150.471C94.8228 150.553 94.9197 150.674 94.9723 150.815C95.0249 150.957 95.0304 151.112 94.9879 151.256C94.9454 151.401 94.8572 151.528 94.7365 151.619C94.6157 151.71 94.469 151.759 94.318 151.759Z" fill="#D328F9"/>
<path d="M91 162.778C90.1821 162.772 89.3753 162.588 88.6364 162.237C87.8975 161.886 87.2444 161.378 86.723 160.748C86.0502 159.978 85.6133 159.03 85.4643 158.019C85.3154 157.007 85.4607 155.974 85.883 155.043C86.26 154.197 86.8768 153.482 87.6571 152.984C88.4374 152.486 89.3466 152.228 90.272 152.243C90.4577 152.243 90.6357 152.317 90.767 152.448C90.8983 152.579 90.972 152.757 90.972 152.943C90.972 153.128 90.8983 153.306 90.767 153.438C90.6357 153.569 90.4577 153.643 90.272 153.643C89.6175 153.631 88.9737 153.811 88.4202 154.16C87.8666 154.51 87.4275 155.014 87.157 155.61C86.8492 156.297 86.7456 157.059 86.8586 157.803C86.9715 158.548 87.2962 159.244 87.794 159.81C88.2896 160.417 88.9474 160.871 89.691 161.119C90.4345 161.367 91.2332 161.398 91.994 161.21C92.613 161.07 93.1789 160.756 93.6244 160.305C94.0699 159.853 94.3763 159.283 94.507 158.662C94.5472 158.481 94.6574 158.323 94.8136 158.224C94.9697 158.124 95.159 158.09 95.34 158.13C95.4302 158.149 95.5157 158.186 95.5917 158.238C95.6676 158.29 95.7325 158.357 95.7826 158.434C95.8327 158.512 95.867 158.598 95.8835 158.689C95.9001 158.78 95.8985 158.873 95.879 158.963C95.6936 159.839 95.2617 160.644 94.6342 161.282C94.0067 161.921 93.2096 162.367 92.337 162.568C91.9013 162.691 91.4524 162.761 91 162.778Z" fill="#D328F9"/>
<path d="M95.074 157.234C94.9196 157.241 94.7672 157.197 94.6406 157.108C94.5139 157.019 94.4202 156.891 94.374 156.744C94.0946 155.867 93.5487 155.099 92.8121 154.546C92.0756 153.994 91.1852 153.686 90.265 153.664C90.0794 153.664 89.9013 153.59 89.77 153.459C89.6388 153.327 89.565 153.149 89.565 152.964C89.565 152.778 89.6388 152.6 89.77 152.469C89.9013 152.337 90.0794 152.264 90.265 152.264C91.4821 152.291 92.6604 152.696 93.6364 153.424C94.6124 154.151 95.3375 155.165 95.711 156.324C95.7393 156.411 95.7499 156.504 95.7424 156.596C95.7348 156.688 95.7091 156.777 95.6668 156.859C95.6245 156.941 95.5665 157.014 95.496 157.073C95.4255 157.133 95.3439 157.178 95.256 157.206C95.1968 157.223 95.1356 157.232 95.074 157.234Z" fill="#D328F9"/>
<path d="M91.189 159.866C91.0034 159.866 90.8253 159.792 90.694 159.661C90.5628 159.529 90.489 159.351 90.489 159.166C90.489 158.98 90.5628 158.802 90.694 158.671C90.8253 158.539 91.0034 158.466 91.189 158.466C91.2846 158.466 91.3792 158.446 91.467 158.409C91.5547 158.371 91.6339 158.315 91.6994 158.246C91.765 158.176 91.8157 158.094 91.8483 158.004C91.8809 157.915 91.8947 157.819 91.889 157.724C91.8927 157.587 91.8693 157.452 91.8202 157.324C91.771 157.197 91.697 157.081 91.6026 156.983C91.5082 156.884 91.3951 156.806 91.27 156.752C91.145 156.697 91.0103 156.668 90.874 156.667C90.7713 156.669 90.6702 156.692 90.5765 156.734C90.4828 156.776 90.3983 156.837 90.328 156.912C90.2563 156.996 90.202 157.094 90.1684 157.2C90.1347 157.306 90.1224 157.417 90.132 157.528C90.1375 157.62 90.1249 157.712 90.0948 157.799C90.0647 157.886 90.0178 157.966 89.9567 158.035C89.8956 158.104 89.8215 158.16 89.7387 158.2C89.6559 158.241 89.5659 158.264 89.474 158.27C89.3821 158.275 89.29 158.262 89.2029 158.232C89.1159 158.202 89.0356 158.155 88.9667 158.094C88.8978 158.033 88.8416 157.959 88.8014 157.876C88.7611 157.793 88.7375 157.704 88.732 157.612C88.7071 157.318 88.7425 157.022 88.836 156.743C88.9296 156.463 89.0793 156.206 89.2759 155.986C89.4726 155.766 89.7121 155.589 89.9797 155.466C90.2473 155.342 90.5373 155.274 90.832 155.267C91.1524 155.267 91.4695 155.332 91.7649 155.456C92.0602 155.581 92.3279 155.762 92.5526 155.991C92.7772 156.219 92.9542 156.49 93.0734 156.788C93.1926 157.085 93.2516 157.403 93.247 157.724C93.2526 158.003 93.2024 158.28 93.0994 158.54C92.9963 158.8 92.8425 159.036 92.647 159.236C92.4514 159.435 92.218 159.594 91.9605 159.702C91.7029 159.81 91.4264 159.866 91.147 159.866H91.189Z" fill="#D328F9"/>
<path d="M109.2 157.535C110.054 167.286 102.837 175.189 93.1 175.189H92.344C101.626 174.713 108.367 166.999 107.541 157.556C107.064 152.934 104.968 148.629 101.623 145.403C98.2782 142.178 93.9005 140.239 89.264 139.93C89.509 139.93 89.761 139.93 90.013 139.93C99.778 139.888 108.374 147.791 109.2 157.535Z" fill="#D328F9"/>
<g opacity="0.4">
<path d="M109.2 157.535C110.054 167.286 102.837 175.189 93.1 175.189H92.344C101.626 174.713 108.367 166.999 107.541 157.556C107.064 152.934 104.968 148.629 101.623 145.403C98.2782 142.178 93.9005 140.239 89.264 139.93C89.509 139.93 89.761 139.93 90.013 139.93C99.778 139.888 108.374 147.791 109.2 157.535Z" fill="white"/>
</g>
<path d="M123.494 71.4977C123.511 71.7067 123.539 71.9147 123.578 72.1207C123.842 73.4695 124.534 74.697 125.552 75.6207C126.705 76.7004 128.222 77.3075 129.801 77.3217H188.944C189.634 77.3357 190.321 77.2122 190.963 76.9585C191.605 76.7047 192.19 76.3258 192.685 75.8438C193.179 75.3618 193.573 74.7862 193.843 74.1507C194.113 73.5151 194.253 72.8322 194.257 72.1417C194.267 71.9342 194.267 71.7263 194.257 71.5187C194.092 69.9515 193.361 68.4981 192.201 67.4311C191.042 66.3641 189.533 65.7567 187.957 65.7227H128.8C128.058 65.7078 127.322 65.8507 126.64 66.1421C125.958 66.4335 125.346 66.8667 124.844 67.4129C124.342 67.9591 123.962 68.6058 123.729 69.3101C123.497 70.0143 123.416 70.7601 123.494 71.4977Z" fill="#D328F9"/>
<path opacity="0.8" d="M123.494 71.4977C123.511 71.7067 123.539 71.9147 123.578 72.1207C123.842 73.4695 124.534 74.697 125.552 75.6207C126.705 76.7004 128.222 77.3075 129.801 77.3217H188.944C189.634 77.3357 190.321 77.2122 190.963 76.9585C191.605 76.7047 192.19 76.3258 192.685 75.8438C193.179 75.3618 193.573 74.7862 193.843 74.1507C194.113 73.5151 194.253 72.8322 194.257 72.1417C194.267 71.9342 194.267 71.7263 194.257 71.5187C194.092 69.9515 193.361 68.4981 192.201 67.4311C191.042 66.3641 189.533 65.7567 187.957 65.7227H128.8C128.058 65.7078 127.322 65.8507 126.64 66.1421C125.958 66.4335 125.346 66.8667 124.844 67.4129C124.342 67.9591 123.962 68.6058 123.729 69.3101C123.497 70.0143 123.416 70.7601 123.494 71.4977Z" fill="white"/>
<path d="M194.257 72.0997C194.257 72.2872 194.243 72.4744 194.215 72.6597C194.006 71.1279 193.256 69.7213 192.101 68.6942C190.946 67.6671 189.461 67.0874 187.915 67.0597L125.034 67.1997C125.533 66.7148 126.122 66.3329 126.768 66.0759C127.414 65.8189 128.105 65.6917 128.8 65.7017H187.943C189.519 65.7357 191.028 66.3431 192.187 67.4101C193.347 68.4771 194.078 69.9304 194.243 71.4977C194.257 71.698 194.262 71.8989 194.257 72.0997Z" fill="#D328F9"/>
<path opacity="0.5" d="M194.257 72.0997C194.257 72.2872 194.243 72.4744 194.215 72.6597C194.006 71.1279 193.256 69.7213 192.101 68.6942C190.946 67.6671 189.461 67.0874 187.915 67.0597L125.034 67.1997C125.533 66.7148 126.122 66.3329 126.768 66.0759C127.414 65.8189 128.105 65.6917 128.8 65.7017H187.943C189.519 65.7357 191.028 66.3431 192.187 67.4101C193.347 68.4771 194.078 69.9304 194.243 71.4977C194.257 71.698 194.262 71.8989 194.257 72.0997Z" fill="white"/>
<path d="M184.1 68.5018L184.352 71.3018L186.984 70.3218L187.607 71.7218L184.919 72.6178L186.851 74.9908L185.64 75.8798L183.757 73.4158L182.357 75.8798L181.034 74.9908L182.525 72.6178L179.725 71.7218L180.103 70.3218L182.938 71.2668L182.686 68.4668L184.1 68.5018Z" fill="#D328F9"/>
<path d="M167.895 68.5023L168.147 71.3023L170.779 70.3223L171.409 71.7223L168.7 72.6393L170.632 75.0123L169.428 75.9013L167.545 73.4373L166.145 75.9013L164.815 75.0123L166.313 72.6393L163.513 71.7433L163.891 70.3433L166.726 71.2883L166.481 68.4883L167.895 68.5023Z" fill="#D328F9"/>
<path d="M151.725 68.5023L151.97 71.3023L154.602 70.3223L155.232 71.7223L152.537 72.6183L154.469 74.9913L153.3 75.9013L151.417 73.4373L150.017 75.9013L148.694 75.0123L150.185 72.6393L147.385 71.7433L147.77 70.3433L150.57 71.2883L150.325 68.4883L151.725 68.5023Z" fill="#D328F9"/>
<path d="M135.548 68.5018L135.793 71.3018L138.432 70.3218L139.055 71.7218L136.36 72.6178L138.299 74.9908L137.088 75.8798L135.205 73.4158L133.805 75.8798L132.482 74.9908L133.973 72.6178L131.173 71.7218L131.551 70.3218L134.351 71.2668L134.106 68.4668L135.548 68.5018Z" fill="#D328F9"/>
<path d="M174.755 62.958H171.997V63.658H174.755V62.958Z" fill="#D328F9"/>
<path d="M186.606 62.958H177.611V63.658H186.606V62.958Z" fill="#D328F9"/>
<path opacity="0.8" d="M278.453 89.0683L275.59 121.8C275.48 122.845 274.992 123.814 274.219 124.525C273.446 125.236 272.44 125.641 271.39 125.664H248.661C248.169 125.667 247.682 125.566 247.232 125.368C246.782 125.17 246.378 124.879 246.048 124.514C245.718 124.149 245.468 123.719 245.315 123.252C245.162 122.784 245.11 122.29 245.161 121.8L248.024 89.0613C248.13 88.0149 248.616 87.0437 249.39 86.3316C250.164 85.6195 251.172 85.2159 252.224 85.1973H274.953C275.446 85.1945 275.933 85.2958 276.384 85.4944C276.835 85.693 277.239 85.9845 277.569 86.3499C277.899 86.7153 278.149 87.1463 278.301 87.6147C278.453 88.0832 278.505 88.5785 278.453 89.0683Z" fill="#D328F9"/>
<path opacity="0.8" d="M278.453 89.0683L275.59 121.8C275.48 122.845 274.992 123.814 274.219 124.525C273.446 125.236 272.44 125.641 271.39 125.664H248.661C248.169 125.667 247.682 125.566 247.232 125.368C246.782 125.17 246.378 124.879 246.048 124.514C245.718 124.149 245.468 123.719 245.315 123.252C245.162 122.784 245.11 122.29 245.161 121.8L248.024 89.0613C248.13 88.0149 248.616 87.0437 249.39 86.3316C250.164 85.6195 251.172 85.2159 252.224 85.1973H274.953C275.446 85.1945 275.933 85.2958 276.384 85.4944C276.835 85.693 277.239 85.9845 277.569 86.3499C277.899 86.7153 278.149 87.1463 278.301 87.6147C278.453 88.0832 278.505 88.5785 278.453 89.0683Z" fill="white"/>
<path d="M250.096 94.346H250.033C249.848 94.33 249.678 94.2414 249.558 94.0997C249.439 93.958 249.38 93.7747 249.396 93.59L249.662 90.594C249.678 90.4195 249.758 90.2573 249.888 90.1393C250.018 90.0214 250.187 89.9563 250.362 89.957H253.526C253.712 89.957 253.89 90.0308 254.021 90.1621C254.152 90.2933 254.226 90.4714 254.226 90.657C254.226 90.8427 254.152 91.0207 254.021 91.152C253.89 91.2833 253.712 91.357 253.526 91.357H251.006L250.796 93.709C250.78 93.8836 250.7 94.0458 250.57 94.1638C250.44 94.2817 250.271 94.3468 250.096 94.346Z" fill="#D328F9"/>
<path d="M275.548 94.346H275.485C275.3 94.33 275.13 94.2414 275.01 94.0997C274.891 93.958 274.833 93.7747 274.848 93.59L275.044 91.357H272.65C272.464 91.357 272.286 91.2833 272.155 91.152C272.024 91.0207 271.95 90.8427 271.95 90.657C271.95 90.4714 272.024 90.2933 272.155 90.1621C272.286 90.0308 272.464 89.957 272.65 89.957H275.8C275.897 89.9566 275.994 89.9766 276.083 90.0157C276.173 90.0547 276.253 90.112 276.319 90.1838C276.385 90.2556 276.435 90.3404 276.466 90.4328C276.497 90.5251 276.509 90.623 276.5 90.72L276.234 93.709C276.218 93.8812 276.14 94.0415 276.013 94.1591C275.887 94.2767 275.721 94.3433 275.548 94.346Z" fill="#D328F9"/>
<path d="M251.3 116.935H248.136C248.04 116.935 247.945 116.915 247.857 116.876C247.769 116.838 247.69 116.781 247.625 116.711C247.56 116.64 247.51 116.556 247.478 116.464C247.447 116.373 247.435 116.276 247.443 116.179L247.702 113.183C247.718 112.997 247.807 112.826 247.949 112.706C248.092 112.585 248.276 112.527 248.462 112.543C248.647 112.558 248.819 112.647 248.939 112.79C249.059 112.932 249.118 113.116 249.102 113.302L248.906 115.535H251.3C251.486 115.535 251.664 115.609 251.795 115.74C251.926 115.871 252 116.049 252 116.235C252 116.421 251.926 116.599 251.795 116.73C251.664 116.861 251.486 116.935 251.3 116.935Z" fill="#D328F9"/>
<path d="M273.567 116.935H270.41C270.224 116.935 270.046 116.862 269.915 116.73C269.784 116.599 269.71 116.421 269.71 116.235C269.71 116.05 269.784 115.872 269.915 115.74C270.046 115.609 270.224 115.535 270.41 115.535H272.93L273.133 113.183C273.149 112.999 273.238 112.828 273.379 112.709C273.521 112.589 273.704 112.531 273.889 112.546C274.074 112.562 274.244 112.651 274.364 112.793C274.483 112.934 274.542 113.118 274.526 113.302L274.267 116.298C274.251 116.473 274.171 116.635 274.041 116.753C273.911 116.871 273.742 116.936 273.567 116.935Z" fill="#D328F9"/>
<path d="M271.158 105.649C272.738 99.5209 270.025 93.5232 265.099 92.2528C260.172 90.9824 254.898 94.9204 253.317 101.049C251.737 107.177 254.45 113.174 259.376 114.445C264.303 115.715 269.577 111.777 271.158 105.649Z" fill="white"/>
<path d="M264.985 120.771H255.92L256.711 111.706H265.776L264.985 120.771Z" fill="white"/>
<path d="M275.59 121.8C275.48 122.845 274.992 123.813 274.219 124.525C273.446 125.236 272.44 125.641 271.39 125.664H248.661C248.169 125.667 247.682 125.566 247.232 125.368C246.782 125.169 246.378 124.878 246.048 124.514C245.718 124.149 245.468 123.719 245.315 123.252C245.162 122.784 245.11 122.289 245.161 121.8C245.161 121.8 255.605 118.496 256.893 118.496H264.964L275.59 121.8Z" fill="white"/>
<path d="M279.773 98.6338L278.714 111.491L279.411 111.549L280.471 98.6913L279.773 98.6338Z" fill="#D328F9"/>
<path d="M280.509 92.7509L280.301 95.2764L280.999 95.3338L281.207 92.8084L280.509 92.7509Z" fill="#D328F9"/>
<path d="M256.116 170.85H253.358V171.55H256.116V170.85Z" fill="#D328F9"/>
<path d="M267.967 170.85H258.972V171.55H267.967V170.85Z" fill="#D328F9"/>
<path d="M284.431 158.9L282.688 178.85C282.597 179.732 282.187 180.55 281.534 181.15C280.882 181.75 280.032 182.09 279.146 182.105C278.729 182.113 278.315 182.031 277.932 181.867C277.549 181.702 277.205 181.457 276.924 181.149C276.643 180.842 276.43 180.477 276.3 180.081C276.17 179.685 276.126 179.265 276.171 178.85L277.9 158.9C278.061 157.413 277.904 155.907 277.439 154.485C276.974 153.062 276.211 151.755 275.203 150.649C274.194 149.544 272.961 148.666 271.587 148.073C270.213 147.48 268.728 147.186 267.232 147.21H260.12C256.939 147.271 253.89 148.493 251.548 150.646C249.207 152.8 247.734 155.736 247.408 158.9L246.708 167.048H240.198L240.898 158.9C241.773 148.862 250.656 140.7 260.687 140.7H267.827C270.157 140.662 272.468 141.12 274.607 142.043C276.746 142.966 278.665 144.333 280.235 146.055C281.805 147.776 282.992 149.811 283.715 152.026C284.438 154.241 284.682 156.584 284.431 158.9Z" fill="#D328F9"/>
<g opacity="0.5">
<path d="M284.431 158.9L282.688 178.85C282.597 179.732 282.187 180.55 281.534 181.15C280.882 181.75 280.032 182.09 279.146 182.105C278.729 182.113 278.315 182.031 277.932 181.867C277.549 181.702 277.205 181.457 276.924 181.149C276.643 180.842 276.43 180.477 276.3 180.081C276.17 179.685 276.126 179.265 276.171 178.85L277.9 158.9C278.061 157.413 277.904 155.907 277.439 154.485C276.974 153.062 276.211 151.755 275.203 150.649C274.194 149.544 272.961 148.666 271.587 148.073C270.213 147.48 268.728 147.186 267.232 147.21H260.12C256.939 147.271 253.89 148.493 251.548 150.646C249.207 152.8 247.734 155.736 247.408 158.9L246.708 167.048H240.198L240.898 158.9C241.773 148.862 250.656 140.7 260.687 140.7H267.827C270.157 140.662 272.468 141.12 274.607 142.043C276.746 142.966 278.665 144.333 280.235 146.055C281.805 147.776 282.992 149.811 283.715 152.026C284.438 154.241 284.682 156.584 284.431 158.9Z" fill="white"/>
</g>
<path d="M284.9 178.122L281.505 217C281.382 218.206 280.821 219.324 279.928 220.144C279.035 220.963 277.873 221.426 276.661 221.445H237.783C237.214 221.456 236.648 221.345 236.125 221.12C235.602 220.895 235.133 220.561 234.749 220.14C234.365 219.72 234.075 219.222 233.898 218.681C233.721 218.139 233.661 217.567 233.723 217L237.125 178.122C237.203 177.347 237.463 176.602 237.884 175.946C238.305 175.29 238.875 174.743 239.547 174.349C240.277 173.903 241.113 173.661 241.969 173.649H280.84C281.634 173.645 282.413 173.866 283.087 174.286C283.716 174.694 284.219 175.269 284.539 175.947C284.859 176.624 284.984 177.378 284.9 178.122Z" fill="#D328F9"/>
<path d="M244.475 195.104L254.576 210.651L287.889 177.338C287.94 177.277 287.968 177.198 287.967 177.118C287.966 177.038 287.936 176.96 287.882 176.9C287.829 176.84 287.756 176.801 287.676 176.79C287.596 176.779 287.515 176.797 287.448 176.841L255.703 201.726L249.704 192.059L244.475 195.104Z" fill="white"/>
<path d="M85.4 119.917H60.074C58.9022 119.896 57.7787 119.446 56.9159 118.653C56.053 117.859 55.5106 116.778 55.391 115.612L53.2 90.2998C53.1392 89.7517 53.196 89.1969 53.3666 88.6725C53.5372 88.1481 53.8176 87.6661 54.1893 87.2587C54.5609 86.8512 55.0152 86.5278 55.5218 86.3098C56.0284 86.0919 56.5756 85.9845 57.127 85.9948H82.425C83.5924 86.0213 84.7099 86.4736 85.5672 87.2664C86.4245 88.0592 86.9625 89.138 87.08 90.2998L89.292 115.598C89.3545 116.144 89.3002 116.697 89.1327 117.221C88.9651 117.745 88.6881 118.227 88.32 118.635C87.952 119.044 87.5013 119.369 86.9979 119.59C86.4944 119.811 85.9498 119.922 85.4 119.917Z" fill="#D328F9"/>
<path opacity="0.8" d="M85.4 119.917H60.074C58.9022 119.896 57.7787 119.446 56.9159 118.653C56.053 117.859 55.5106 116.778 55.391 115.612L53.2 90.2998C53.1392 89.7517 53.196 89.1969 53.3666 88.6725C53.5372 88.1481 53.8176 87.6661 54.1893 87.2587C54.5609 86.8512 55.0152 86.5278 55.5218 86.3098C56.0284 86.0919 56.5756 85.9845 57.127 85.9948H82.425C83.5924 86.0213 84.7099 86.4736 85.5672 87.2664C86.4245 88.0592 86.9625 89.138 87.08 90.2998L89.292 115.598C89.3545 116.144 89.3002 116.697 89.1327 117.221C88.9651 117.745 88.6881 118.227 88.32 118.635C87.952 119.044 87.5013 119.369 86.9979 119.59C86.4944 119.811 85.9498 119.922 85.4 119.917Z" fill="white"/>
<path d="M55.405 105.511C55.405 105.511 64.4 92.9878 71.022 93.3098C77.644 93.6318 88.648 105.21 88.648 105.21C88.648 105.21 72.429 113.729 55.405 105.511Z" fill="white"/>
<path d="M55.692 105.7L55.125 105.294C55.489 104.783 64.064 92.9395 70.77 92.9395H71.043C77.735 93.2615 88.445 104.475 88.9 104.951L88.396 105.434C88.284 105.322 77.42 93.9475 71.008 93.6395H70.77C64.4 93.6535 55.776 105.595 55.692 105.7Z" fill="#263238"/>
<path d="M54.474 105.952C53.116 105.952 51.352 105.448 50.729 103.53C50.7003 103.442 50.7078 103.346 50.7498 103.264C50.7918 103.181 50.8649 103.118 50.953 103.089C50.9966 103.074 51.0429 103.068 51.0889 103.071C51.135 103.074 51.18 103.087 51.2212 103.108C51.2624 103.128 51.2989 103.157 51.3286 103.193C51.3583 103.228 51.3805 103.269 51.394 103.313C52.199 105.791 55.209 105.196 55.335 105.168C55.4258 105.152 55.5195 105.171 55.5965 105.222C55.6735 105.273 55.7278 105.351 55.748 105.441C55.7572 105.486 55.7574 105.533 55.7487 105.578C55.74 105.623 55.7224 105.666 55.6971 105.704C55.6717 105.743 55.639 105.776 55.6009 105.802C55.5628 105.827 55.52 105.845 55.475 105.854C55.1453 105.92 54.8101 105.952 54.474 105.952Z" fill="#263238"/>
<path d="M59.815 100.576C59.7369 100.578 59.6605 100.553 59.598 100.506C59.493 100.422 57.008 98.5042 56.378 96.5512C56.3493 96.463 56.3568 96.367 56.3988 96.2843C56.4408 96.2017 56.5139 96.139 56.602 96.1102C56.6902 96.0833 56.7854 96.0917 56.8676 96.1334C56.9498 96.1752 57.0126 96.2471 57.043 96.3342C57.61 98.0772 59.997 99.9322 60.025 99.9462C60.0982 100.003 60.1459 100.086 60.1577 100.178C60.1695 100.27 60.1444 100.363 60.088 100.436C60.0561 100.479 60.015 100.513 59.9677 100.538C59.9204 100.562 59.8681 100.575 59.815 100.576Z" fill="#263238"/>
<path d="M64.953 95.8088C64.8613 95.8035 64.7751 95.7638 64.7115 95.6976C64.6478 95.6314 64.6116 95.5436 64.61 95.4518C64.2012 93.9271 63.6938 92.4306 63.091 90.9718C62.916 90.5098 62.79 90.1738 62.762 90.0898C62.7481 90.0452 62.7432 89.9983 62.7477 89.9518C62.7521 89.9053 62.7659 89.8602 62.788 89.8191C62.8102 89.778 62.8404 89.7418 62.8768 89.7125C62.9132 89.6833 62.9551 89.6616 63 89.6488C63.0441 89.6359 63.0903 89.6318 63.136 89.6368C63.1817 89.6418 63.226 89.6558 63.2663 89.6779C63.3066 89.7 63.3421 89.7298 63.3709 89.7656C63.3997 89.8015 63.4211 89.8426 63.434 89.8868C63.434 89.9708 63.581 90.2788 63.742 90.7198C64.722 93.2888 65.324 94.9758 65.31 95.4658C65.31 95.512 65.3007 95.5578 65.2826 95.6003C65.2645 95.6429 65.238 95.6813 65.2046 95.7134C65.1713 95.7454 65.1318 95.7704 65.0886 95.7868C65.0453 95.8032 64.9992 95.8106 64.953 95.8088Z" fill="#263238"/>
<path d="M71.022 93.6604C70.9347 93.6576 70.8514 93.6236 70.7871 93.5644C70.7229 93.5053 70.682 93.4251 70.672 93.3384L70.182 87.7384C70.1736 87.6456 70.2025 87.5532 70.2622 87.4817C70.322 87.4101 70.4077 87.3652 70.5005 87.3569C70.5933 87.3485 70.6857 87.3774 70.7572 87.4371C70.8288 87.4969 70.8736 87.5826 70.882 87.6754L71.372 93.3174C71.378 93.4088 71.3487 93.499 71.29 93.5693C71.2314 93.6397 71.148 93.6848 71.057 93.6954L71.022 93.6604Z" fill="#263238"/>
<path d="M89.698 105.567C89.3555 105.569 89.0136 105.541 88.676 105.483C88.6309 105.474 88.5881 105.456 88.55 105.43C88.5119 105.404 88.4793 105.371 88.4539 105.333C88.4286 105.295 88.411 105.252 88.4023 105.207C88.3935 105.161 88.3938 105.115 88.403 105.07C88.4104 105.025 88.4271 104.982 88.4518 104.943C88.4766 104.904 88.509 104.871 88.547 104.846C88.5851 104.82 88.6279 104.803 88.673 104.794C88.718 104.786 88.7643 104.787 88.809 104.797C88.809 104.797 90.524 105.126 91.574 104.384C91.7986 104.221 91.9859 104.011 92.1235 103.77C92.2611 103.528 92.3458 103.261 92.372 102.984C92.3789 102.938 92.3948 102.894 92.4187 102.854C92.4427 102.814 92.4743 102.78 92.5116 102.752C92.549 102.724 92.5915 102.704 92.6366 102.693C92.6817 102.682 92.7285 102.68 92.7745 102.687C92.8205 102.693 92.8646 102.709 92.9044 102.733C92.9443 102.757 92.979 102.789 93.0066 102.826C93.0342 102.864 93.0542 102.906 93.0654 102.951C93.0767 102.996 93.0789 103.043 93.072 103.089C93.0297 103.457 92.9107 103.813 92.7226 104.132C92.5345 104.452 92.2815 104.728 91.98 104.944C91.2998 105.378 90.5041 105.595 89.698 105.567Z" fill="#263238"/>
<path d="M83.412 100.205C83.3627 100.205 83.314 100.195 83.2693 100.174C83.2245 100.154 83.1848 100.123 83.153 100.086C83.1202 100.053 83.0942 100.015 83.0764 99.9719C83.0586 99.9292 83.0495 99.8835 83.0495 99.8373C83.0495 99.7911 83.0586 99.7453 83.0764 99.7027C83.0942 99.66 83.1202 99.6213 83.153 99.5888C83.153 99.5888 85.253 97.7408 85.477 96.0188C85.4925 95.9277 85.5428 95.8461 85.6172 95.7913C85.6916 95.7364 85.7844 95.7126 85.876 95.7248C85.9215 95.7316 85.9653 95.7474 86.0047 95.7712C86.0441 95.7949 86.0785 95.8262 86.1058 95.8633C86.1331 95.9004 86.1528 95.9424 86.1638 95.9871C86.1749 96.0318 86.177 96.0783 86.17 96.1238C85.876 98.0978 83.706 100.03 83.615 100.114C83.5603 100.167 83.4883 100.2 83.412 100.205Z" fill="#263238"/>
<path d="M77.497 96.1383H77.434C77.3428 96.1212 77.2618 96.0692 77.2082 95.9935C77.1546 95.9177 77.1327 95.824 77.147 95.7323C77.147 95.6903 77.917 91.1893 78.057 90.2653C78.0639 90.2193 78.0798 90.1752 78.1037 90.1353C78.1277 90.0955 78.1593 90.0608 78.1966 90.0332C78.234 90.0055 78.2765 89.9856 78.3216 89.9743C78.3667 89.9631 78.4135 89.9609 78.4595 89.9678C78.5055 89.9747 78.5496 89.9906 78.5894 90.0145C78.6293 90.0385 78.664 90.07 78.6916 90.1074C78.7192 90.1448 78.7392 90.1873 78.7504 90.2324C78.7617 90.2775 78.7639 90.3243 78.757 90.3703C78.617 91.3013 77.854 95.8093 77.847 95.8513C77.8321 95.9328 77.7887 96.0064 77.7246 96.059C77.6605 96.1115 77.5799 96.1396 77.497 96.1383Z" fill="#263238"/>
<path d="M77.7027 106.977C80.6006 103.95 80.2694 98.9301 76.9629 95.7648C73.6564 92.5995 68.6267 92.4876 65.7288 95.5148C62.8308 98.542 63.162 103.562 66.4685 106.727C69.775 109.893 74.8047 110.005 77.7027 106.977Z" fill="#D328F9"/>
<path opacity="0.3" d="M74.998 101.242C75.0085 101.065 75.0085 100.887 74.998 100.71C74.904 99.7971 74.4789 98.9505 73.803 98.3301C73.1271 97.7097 72.2473 97.3584 71.33 97.3427C70.8989 97.3352 70.471 97.4196 70.075 97.5902C69.679 97.7608 69.3238 98.0138 69.0332 98.3323C68.7425 98.6508 68.5229 99.0275 68.3891 99.4374C68.2553 99.8473 68.2102 100.281 68.257 100.71C68.2686 100.89 68.3015 101.069 68.355 101.242H63.791C63.6794 100.232 63.7843 99.2108 64.0985 98.2451C64.4127 97.2794 64.9292 96.3918 65.6134 95.6413C66.2976 94.8909 67.1338 94.2949 68.0665 93.893C68.9991 93.4911 70.0066 93.2926 71.022 93.3107C73.181 93.3506 75.2508 94.1792 76.8408 95.6403C78.4308 97.1013 79.4311 99.0938 79.653 101.242H74.998Z" fill="#131313"/>
<path opacity="0.7" d="M74.991 100.709C75.0015 100.886 75.0015 101.064 74.991 101.241C74.9407 102.02 74.5916 102.75 74.0165 103.278C73.4414 103.806 72.6847 104.092 71.904 104.076C71.0811 104.061 70.2862 103.775 69.6422 103.262C68.9981 102.75 68.5408 102.04 68.341 101.241C68.2875 101.068 68.2546 100.89 68.243 100.709C68.1962 100.281 68.2413 99.8469 68.3751 99.437C68.5089 99.027 68.7285 98.6503 69.0192 98.3318C69.3099 98.0133 69.665 97.7603 70.061 97.5897C70.4571 97.4191 70.8849 97.3347 71.316 97.3423C72.2345 97.3563 73.116 97.7068 73.7934 98.3274C74.4707 98.9479 74.8968 99.7954 74.991 100.709Z" fill="#131313"/>
<path opacity="0.7" d="M76.818 97.4056C76.8558 97.7551 76.8188 98.1085 76.7095 98.4426C76.6002 98.7766 76.4211 99.0835 76.1841 99.3431C75.9471 99.6026 75.6576 99.8087 75.3348 99.9478C75.0121 100.087 74.6634 100.156 74.312 100.15C73.5658 100.135 72.8507 99.8477 72.3015 99.3423C71.7522 98.8369 71.4067 98.1481 71.33 97.4056C71.2911 97.056 71.3272 96.7021 71.4361 96.3675C71.5449 96.033 71.724 95.7256 71.9612 95.4658C72.1985 95.206 72.4884 94.9999 72.8118 94.8612C73.1351 94.7225 73.4843 94.6545 73.836 94.6616C74.5827 94.675 75.2986 94.9616 75.8481 95.4673C76.3977 95.973 76.7428 96.6626 76.818 97.4056Z" fill="white"/>
<path d="M65.982 82.8662H63.224V83.5662H65.982V82.8662Z" fill="#D328F9"/>
<path d="M77.833 82.8662H68.838V83.5662H77.833V82.8662Z" fill="#D328F9"/>
<path d="M193.2 134.155L193.438 134.442L193.76 134.813C193.991 135.058 194.215 135.317 194.46 135.555C194.943 136.059 195.468 136.549 196 137.046C197.063 138.027 198.178 138.95 199.339 139.811C200.522 140.693 201.768 141.498 203.014 142.296C203.714 142.674 204.288 143.073 204.946 143.437L206.465 144.277C206.686 144.375 206.934 144.389 207.165 144.319C207.655 144.172 210.469 141.386 211.365 140.35C213.353 138.075 216.363 135.079 217.987 132.531L219.8 135.03C218.654 138.152 217.133 141.123 215.271 143.878C214.27 145.368 213.068 146.713 211.701 147.875C210.88 148.567 209.954 149.122 208.957 149.52C207.694 150.024 206.306 150.13 204.981 149.821C204.638 149.738 204.304 149.625 203.98 149.485L203.35 149.212L202.216 148.694C201.453 148.358 200.718 147.952 199.976 147.581C198.492 146.79 197.053 145.918 195.664 144.97C194.264 144.007 192.92 142.965 191.639 141.848C190.974 141.267 190.379 140.679 189.77 140.042C189.469 139.727 189.161 139.398 188.867 139.055L188.433 138.523C188.272 138.327 188.153 138.18 187.936 137.879L193.2 134.155Z" fill="#FFB573"/>
<path d="M217.7 132.917L220.948 125.973L224.049 131.531C224.049 131.531 222.012 135.031 219.8 135.031L217.7 132.917Z" fill="#FFB573"/>
<path d="M224.63 123.088L227.906 127.302L224.077 131.523L220.976 125.972L224.63 123.088Z" fill="#FFB573"/>
<path d="M223.489 133.441H228.648C228.793 133.44 228.933 133.385 229.041 133.287C229.148 133.189 229.215 133.054 229.229 132.909L230.3 120.54C230.308 120.459 230.299 120.378 230.273 120.301C230.247 120.224 230.206 120.153 230.151 120.093C230.096 120.033 230.029 119.985 229.955 119.952C229.881 119.92 229.8 119.903 229.719 119.903H224.567C224.42 119.905 224.28 119.961 224.172 120.06C224.065 120.16 223.998 120.296 223.986 120.442L222.901 132.804C222.894 132.886 222.904 132.967 222.931 133.044C222.957 133.122 223 133.192 223.055 133.252C223.11 133.312 223.177 133.36 223.252 133.392C223.327 133.425 223.407 133.442 223.489 133.441Z" fill="#D328F9"/>
<path opacity="0.3" d="M223.545 132.202H228.711L229.677 121.149H224.511L223.545 132.202Z" fill="white"/>
<path d="M223.209 130.635L224.126 130.166C224.593 129.928 225.024 129.627 225.407 129.27L225.575 128.661C225.477 128.499 225.33 128.372 225.154 128.3C224.979 128.228 224.786 128.215 224.602 128.262L223.839 128.472L220.052 128.759L219.961 130.355L221.067 132.063H221.445C221.862 132.077 222.27 131.941 222.594 131.679C222.918 131.416 223.137 131.045 223.209 130.635Z" fill="#FFB573"/>
<path d="M186.592 127.4C189.217 126.924 207.732 142.975 207.732 142.975L202.244 151.025C202.244 151.025 182 136.927 182.644 133.525C183.267 129.948 182.77 128.1 186.592 127.4Z" fill="#263238"/>
<path opacity="0.2" d="M188.93 132.531L188.727 140.931C190.827 142.562 198.415 148.379 198.415 148.379L188.93 132.531Z" fill="#131313"/>
<path d="M174.251 294.217L180.46 294.826L182.434 280.427L176.218 279.818L174.251 294.217Z" fill="#FFB573"/>
<path d="M113.12 209.728L111.531 215.776L124.964 221.565L127.75 215.426L113.12 209.728Z" fill="#FFB573"/>
<path d="M184.905 296.1C185.439 296.165 185.98 296.047 186.438 295.764C186.537 295.678 186.614 295.569 186.662 295.448C186.711 295.326 186.73 295.194 186.718 295.064C186.718 294.982 186.696 294.902 186.654 294.832C186.612 294.761 186.552 294.704 186.48 294.665C185.731 294.217 183.197 295.421 182.91 295.554C182.883 295.567 182.86 295.588 182.845 295.614C182.83 295.64 182.823 295.671 182.826 295.701C182.83 295.732 182.844 295.761 182.865 295.783C182.886 295.806 182.914 295.821 182.945 295.827C183.589 295.977 184.245 296.069 184.905 296.1ZM186.032 294.847C186.13 294.839 186.227 294.861 186.312 294.91C186.341 294.925 186.366 294.948 186.383 294.977C186.401 295.005 186.41 295.038 186.41 295.071C186.417 295.158 186.404 295.246 186.371 295.328C186.339 295.409 186.287 295.482 186.221 295.54C185.836 295.869 184.821 295.897 183.421 295.631C184.247 295.218 185.137 294.951 186.053 294.84L186.032 294.847Z" fill="#D328F9"/>
<path d="M182.973 295.799H183.029C183.785 295.484 185.304 294.182 185.206 293.468C185.179 293.344 185.109 293.233 185.01 293.154C184.911 293.075 184.787 293.033 184.66 293.034C184.514 293.007 184.364 293.012 184.221 293.048C184.077 293.084 183.942 293.151 183.827 293.244C183.022 293.867 182.833 295.554 182.819 295.617C182.812 295.642 182.812 295.669 182.818 295.695C182.824 295.72 182.837 295.744 182.854 295.764C182.87 295.778 182.889 295.788 182.91 295.794C182.93 295.8 182.952 295.802 182.973 295.799ZM184.52 293.3H184.604C184.877 293.342 184.891 293.447 184.891 293.482C184.954 293.909 183.918 294.945 183.141 295.358C183.215 294.648 183.515 293.981 183.995 293.454C184.151 293.342 184.344 293.294 184.534 293.321L184.52 293.3Z" fill="#D328F9"/>
<path d="M180.152 292.321L174.552 292.559C174.431 292.56 174.315 292.605 174.226 292.687C174.137 292.768 174.081 292.88 174.069 293L172.725 300.819C172.717 300.952 172.736 301.085 172.781 301.21C172.825 301.336 172.893 301.452 172.983 301.551C173.072 301.65 173.18 301.73 173.3 301.787C173.42 301.844 173.551 301.876 173.684 301.883H173.796C176.239 301.757 177.415 301.575 180.509 301.47C182.406 301.407 188.209 302.093 190.799 301.505C193.389 300.917 192.899 298.348 191.786 298.369C188.188 298.439 184.037 296.094 181.986 293.35C181.629 293.119 180.544 292.3 180.152 292.321Z" fill="#263238"/>
<path d="M114.387 216.566L117.243 211.715C117.308 211.613 117.331 211.489 117.309 211.37C117.287 211.251 117.221 211.144 117.124 211.071L111.3 205.702C111.084 205.55 110.816 205.488 110.554 205.529C110.293 205.571 110.058 205.714 109.9 205.926L109.837 206.024C108.619 208.124 108.136 209.23 106.547 211.883C105.567 213.514 101.829 218.043 100.947 220.514C100.065 222.985 102.459 224.014 103.047 223.048C104.944 219.982 109.165 217.77 112.595 217.504C112.924 217.378 114.191 216.909 114.387 216.566Z" fill="#263238"/>
<path opacity="0.2" d="M182.434 280.427L181.419 287.854L175.203 287.245L176.211 279.825L182.434 280.427Z" fill="#131313"/>
<path opacity="0.2" d="M131.88 216.923L129.01 223.398L120.358 219.576L122.563 213.409L131.88 216.923Z" fill="#131313"/>
<path d="M190.561 134.786C194.11 140.82 189.77 145.909 186.144 163.941L162.75 164.004C163.128 154.288 163.086 146.434 158.942 127.317C158.834 126.845 158.835 126.356 158.943 125.885C159.051 125.414 159.264 124.974 159.566 124.597C159.868 124.22 160.252 123.916 160.688 123.708C161.124 123.5 161.602 123.394 162.085 123.397C164.017 123.397 166.446 123.46 168.917 123.712C172.814 124.03 176.685 124.617 180.502 125.469C182.572 125.968 184.606 126.604 186.592 127.373C187.796 127.779 189.245 131.055 190.561 134.786Z" fill="#263238"/>
<path d="M187.012 165.158C187.012 165.158 200.151 203.147 199.836 221.417C199.654 231.882 198.863 251.384 195.706 265.097C193.13 276.297 182.63 283.437 182.63 283.437L174.23 282.94C174.23 282.94 169.68 265.86 170.471 259.063C172.046 245.532 176.715 235.368 176.148 222.943C175.252 202.601 169.232 164.843 169.232 164.843L187.012 165.158Z" fill="#D328F9"/>
<path d="M172.543 285.131L184.408 285.831L185.486 282.268L172.228 281.043L172.543 285.131Z" fill="#263238"/>
<path opacity="0.2" d="M174.041 241.906C174.041 241.906 174.041 241.836 174.111 241.843C181.566 242.543 186.711 231.812 185.486 217.119L181.531 179.669L174.041 241.906Z" fill="#131313"/>
<path d="M181.118 164.844C181.118 164.844 191.562 231.645 169.848 239.163C158.389 243.503 148.75 238.799 137.333 233.745C130.732 230.826 122.486 222.923 122.486 222.923L125.657 214.292C131.36 212.749 137.328 212.449 143.157 213.41C154.287 215.132 154.756 218.31 158.711 215.909C167.027 195.357 152.719 179.11 162.442 164.809L181.118 164.844Z" fill="#D328F9"/>
<path d="M126.28 212.653L122.038 223.846L125.16 226.233L130.2 212.912L126.28 212.653Z" fill="#263238"/>
<path d="M124.53 152.292C123.473 153.853 118.111 152.796 118.111 152.796L116.97 146.153L123.557 148.792L124.53 152.292Z" fill="#FFB573"/>
<path d="M118.3 145.811L119.322 152.713L115.367 153.301C115.153 153.32 114.939 153.259 114.767 153.13C114.595 153.001 114.477 152.812 114.436 152.601L112.917 147.701C112.891 147.587 112.91 147.467 112.97 147.367C113.03 147.266 113.126 147.193 113.239 147.162L118.3 145.811Z" fill="#FFB573"/>
<path d="M116.529 148.939L118.783 149.338L120.918 147.735L120.092 147.147C119.532 146.749 119.139 146.158 118.986 145.488C118.827 144.787 118.731 144.072 118.699 143.353V143.115C118.672 142.904 118.577 142.708 118.428 142.556C118.278 142.404 118.084 142.306 117.873 142.275L117.313 142.688C116.963 143.451 117.215 144.34 117.173 144.935L117.082 146.09L116.179 146.482L116.529 148.939Z" fill="#FFB573"/>
<path d="M160.069 126L146.825 144.2L122.5 149.002V152.992C122.5 152.992 145.362 154.686 150.5 151.697C155.638 148.708 164.255 130.578 164.255 130.578L160.069 126Z" fill="#FFB573"/>
<path d="M159.915 91.0002C154.357 89.1382 147.91 92.5892 145.369 97.8672C142.828 103.145 143.717 109.62 146.58 114.73C147.441 116.277 148.47 117.733 149.177 119.35C149.963 120.953 150.134 122.788 149.66 124.509C149.086 126.182 148.498 127.253 146.426 126.987C146.426 126.987 146.426 125.839 147.217 125.979C147.217 125.979 145.537 126.91 144.879 126.301C145.642 127.477 147.679 127.05 148.33 125.804C149.303 123.949 147.511 121.436 145.411 121.457C143.311 121.478 141.603 123.606 141.673 125.699C141.761 126.746 142.133 127.749 142.75 128.599C143.367 129.449 144.205 130.114 145.173 130.522C144.606 130.616 144.023 130.519 143.517 130.247C143.01 129.974 142.608 129.542 142.373 129.017C143.325 131.509 146.433 132.608 149.058 132.118C151.683 131.628 153.902 129.948 155.96 128.247C158.76 125.951 161.623 123.046 161.56 119.455C161.497 116.774 159.775 114.471 158.326 112.21C156.877 109.949 155.61 107.191 156.534 104.678C157.311 102.543 159.425 101.255 161.287 99.9532C162.631 99.0222 165.361 96.9432 165.039 94.9762C164.71 93.1002 161.49 91.5252 159.915 91.0002Z" fill="#263238"/>
<path d="M147.392 153.3L143.724 143.591L144.564 143.661C145.244 143.718 145.925 143.578 146.527 143.258C147.129 142.938 147.626 142.451 147.959 141.855C150.759 136.871 157.99 124.222 160.027 123.592C162.932 122.731 165.921 125.055 167.027 128.492C167.86 131.019 159.327 141.855 155.393 148.015C151.9 153.468 147.392 153.3 147.392 153.3Z" fill="#263238"/>
<path d="M111.615 219.758V219.835C111.667 219.97 111.751 220.089 111.862 220.182C111.972 220.276 112.104 220.339 112.245 220.367C112.33 220.394 112.42 220.398 112.507 220.38C112.594 220.362 112.675 220.321 112.742 220.262C113.33 219.723 112.952 217.462 112.917 217.238C112.913 217.209 112.9 217.182 112.88 217.161C112.86 217.14 112.834 217.125 112.805 217.119C112.778 217.116 112.75 217.119 112.725 217.129C112.699 217.139 112.676 217.155 112.658 217.175C112.182 217.847 111.426 219.044 111.615 219.758ZM112.693 217.658C112.819 218.554 112.875 219.758 112.546 220.052C112.512 220.071 112.473 220.081 112.434 220.081C112.395 220.081 112.356 220.071 112.322 220.052C112.228 220.035 112.14 219.993 112.066 219.932C111.993 219.871 111.936 219.792 111.902 219.702C111.776 219.324 112.042 218.554 112.693 217.644V217.658Z" fill="#D328F9"/>
<path d="M112.7 217.532C112.882 218.288 113.596 219.576 114.226 219.73C114.341 219.753 114.46 219.737 114.564 219.683C114.669 219.63 114.752 219.543 114.8 219.436C114.855 219.336 114.887 219.226 114.894 219.112C114.901 218.998 114.884 218.884 114.842 218.778C114.555 217.91 112.903 217.196 112.833 217.161C112.81 217.149 112.785 217.143 112.759 217.143C112.734 217.143 112.709 217.149 112.686 217.161C112.665 217.178 112.649 217.199 112.64 217.224C112.63 217.248 112.627 217.275 112.63 217.301C112.647 217.38 112.671 217.457 112.7 217.532ZM114.604 218.932C114.618 218.994 114.62 219.058 114.609 219.121C114.598 219.183 114.575 219.243 114.541 219.296C114.45 219.464 114.359 219.464 114.289 219.45C113.862 219.366 113.211 218.309 113.001 217.574C113.54 217.847 114.401 218.358 114.583 218.89C114.578 218.904 114.578 218.919 114.583 218.932H114.604Z" fill="#D328F9"/>
<path d="M162.666 162.82L162.015 165.095C161.931 165.27 162.134 165.452 162.428 165.445H186.578C186.809 165.445 186.998 165.326 187.012 165.186L187.236 162.911C187.236 162.757 187.054 162.617 186.802 162.624H163.072C162.993 162.618 162.914 162.633 162.843 162.668C162.771 162.702 162.71 162.755 162.666 162.82Z" fill="#D328F9"/>
<path opacity="0.5" d="M162.666 162.82L162.015 165.095C161.931 165.27 162.134 165.452 162.428 165.445H186.578C186.809 165.445 186.998 165.326 187.012 165.186L187.236 162.911C187.236 162.757 187.054 162.617 186.802 162.624H163.072C162.993 162.618 162.914 162.633 162.843 162.668C162.771 162.702 162.71 162.755 162.666 162.82Z" fill="white"/>
<path d="M167.3 165.656H166.6C166.467 165.656 166.355 165.586 166.369 165.502L166.684 162.541C166.684 162.457 166.817 162.387 166.957 162.387H167.657C167.79 162.387 167.895 162.457 167.888 162.548L167.573 165.502C167.531 165.586 167.405 165.663 167.3 165.656Z" fill="#D328F9"/>
<path d="M184.709 165.656H184.009C183.883 165.656 183.771 165.586 183.785 165.502L184.1 162.548C184.1 162.457 184.226 162.387 184.359 162.387H185.059C185.192 162.387 185.304 162.457 185.29 162.541L184.975 165.495C184.961 165.586 184.849 165.656 184.709 165.656Z" fill="#D328F9"/>
<path d="M176.722 165.641H176.022C175.889 165.641 175.777 165.571 175.791 165.487L176.106 162.533C176.106 162.442 176.239 162.372 176.372 162.372H177.072C177.205 162.372 177.31 162.442 177.303 162.526L176.981 165.48C176.981 165.571 176.862 165.641 176.722 165.641Z" fill="#D328F9"/>
<path d="M170.009 110.972C170.751 114.787 171.479 121.675 168.889 123.747C168.889 123.747 169.925 127.66 176.848 128.703C184.492 129.851 180.481 125.497 180.481 125.497C176.316 123.852 176.421 120.842 177.135 118.07L170.009 110.972Z" fill="#FFB573"/>
<path d="M168.917 123.711C172.611 123.945 176.282 124.455 179.9 125.237L185.136 126.798C186.067 128.674 184.541 132.531 180.159 133.266C180.159 133.266 169.12 134.785 165.865 123.417L168.917 123.711Z" fill="#FFB573"/>
<path opacity="0.2" d="M172.9 113.876L177.1 118.076C176.923 118.726 176.808 119.392 176.757 120.064C175.161 119.595 172.599 117.838 172.424 116.158C172.426 115.373 172.588 114.596 172.9 113.876Z" fill="#131313"/>
<path d="M165.333 106.155C167.209 112.077 167.867 114.625 171.71 116.956C177.436 120.456 184.31 116.872 184.24 110.516C184.184 104.79 181.139 96.068 174.636 95.116C173.207 94.9018 171.746 95.0569 170.394 95.5666C169.041 96.0764 167.841 96.9238 166.909 98.0282C165.976 99.1325 165.342 100.457 165.066 101.876C164.79 103.295 164.882 104.761 165.333 106.134V106.155Z" fill="#FFB573"/>
<path d="M179.466 105.231C180.128 106.271 180.931 107.213 181.853 108.031C181.637 108.265 181.374 108.448 181.08 108.569C180.786 108.69 180.469 108.746 180.152 108.731L179.466 105.231Z" fill="#ED893E"/>
<path d="M178.801 111.895C179.038 111.869 179.272 111.822 179.501 111.755C179.519 111.751 179.536 111.743 179.551 111.733C179.566 111.722 179.579 111.708 179.588 111.693C179.598 111.677 179.605 111.66 179.608 111.642C179.611 111.624 179.61 111.605 179.606 111.587C179.596 111.55 179.572 111.519 179.54 111.499C179.507 111.48 179.468 111.473 179.431 111.482C178.833 111.647 178.206 111.669 177.598 111.548C176.99 111.426 176.419 111.164 175.931 110.782C175.902 110.753 175.863 110.737 175.822 110.737C175.782 110.737 175.743 110.753 175.714 110.782C175.7 110.796 175.689 110.812 175.681 110.83C175.674 110.848 175.67 110.867 175.67 110.887C175.67 110.907 175.674 110.926 175.681 110.944C175.689 110.962 175.7 110.978 175.714 110.992C176.144 111.338 176.638 111.596 177.168 111.751C177.697 111.906 178.252 111.955 178.801 111.895Z" fill="#263238"/>
<path d="M163.296 94.3324C162.525 94.8313 161.884 95.5082 161.429 96.306C160.973 97.1039 160.716 97.9994 160.678 98.9174C160.646 99.2684 160.701 99.6219 160.839 99.9464C160.908 100.107 161.018 100.247 161.158 100.351C161.298 100.455 161.463 100.521 161.637 100.541C162.169 100.541 162.561 100.065 162.855 99.6174L164.213 97.5174C164.772 96.8352 165.243 96.0849 165.613 95.2844C166.068 93.9054 164.129 93.8004 163.296 94.3324Z" fill="#D328F9"/>
<path d="M163.961 95.7256C160.244 100.024 158.578 111.917 169.47 115.235C171.29 113.793 168.35 111.168 167.104 107.85C166.285 105.68 170.436 101.627 172.053 99.9606C173.67 98.2946 175.161 95.8936 177.443 96.2786C178.022 96.4723 178.646 96.4893 179.235 96.3276C181.048 95.5086 180.166 94.4236 179.235 93.6676C177.807 92.6108 176.107 91.9842 174.335 91.8616C172.423 91.6364 170.485 91.8694 168.682 92.5413C166.878 93.2132 165.26 94.3047 163.961 95.7256Z" fill="#263238"/>
<path d="M176.05 94.2833C180.425 97.9303 174.65 98.0213 171.591 100.331C168.658 102.55 170.716 106.183 165.753 107.87C161.7 109.053 160.762 108.339 159.642 107.555C161.03 107.315 162.3 106.623 163.253 105.586C164.206 104.549 164.79 103.226 164.913 101.822C165.256 99.1624 171.052 90.0553 176.05 94.2833Z" fill="#263238"/>
<path d="M164.675 111.132C165.36 112.119 166.406 112.798 167.587 113.022C169.155 113.295 169.757 111.86 169.218 110.46C168.707 109.2 167.286 107.541 165.767 107.898C165.245 108.033 164.797 108.37 164.523 108.834C164.249 109.299 164.17 109.853 164.304 110.376C164.375 110.65 164.502 110.908 164.675 111.132Z" fill="#FFB573"/>
<path d="M175.301 94.6541C176.148 96.8101 178.591 96.5231 180.397 98.7771C181.51 100.177 183.694 95.8581 180.719 94.1571C177.744 92.4561 173.971 91.2801 175.301 94.6541Z" fill="#263238"/>
<path d="M172.725 103.755C172.787 103.761 172.85 103.748 172.904 103.716C172.958 103.685 173.001 103.637 173.026 103.58C173.6 102.306 175.322 101.984 175.336 101.984C175.413 101.967 175.48 101.921 175.525 101.856C175.569 101.791 175.587 101.711 175.574 101.634C175.559 101.558 175.514 101.491 175.45 101.448C175.386 101.404 175.307 101.388 175.231 101.403C175.14 101.403 173.18 101.816 172.48 103.356C172.449 103.427 172.447 103.508 172.474 103.581C172.502 103.654 172.556 103.714 172.627 103.748H172.725V103.755Z" fill="#263238"/>
<path d="M181.825 101.179C181.876 101.182 181.927 101.172 181.973 101.148C182.019 101.125 182.057 101.089 182.084 101.046C182.106 101.014 182.122 100.978 182.13 100.941C182.138 100.903 182.139 100.864 182.132 100.826C182.125 100.788 182.11 100.752 182.088 100.72C182.067 100.688 182.039 100.661 182.007 100.64C181.619 100.371 181.173 100.2 180.705 100.14C180.237 100.08 179.762 100.134 179.319 100.297C179.282 100.311 179.249 100.333 179.221 100.361C179.193 100.389 179.171 100.422 179.156 100.459C179.142 100.496 179.135 100.535 179.137 100.575C179.138 100.614 179.148 100.653 179.165 100.689C179.196 100.76 179.254 100.816 179.326 100.845C179.398 100.874 179.478 100.873 179.55 100.843C179.898 100.721 180.27 100.684 180.636 100.735C181.001 100.786 181.349 100.924 181.65 101.137C181.705 101.163 181.764 101.177 181.825 101.179Z" fill="#263238"/>
<path d="M210.602 139.496L206.5 141.827L202.237 150.997C202.237 150.997 206.353 153.615 209.601 151.494C212.849 149.373 210.602 139.496 210.602 139.496Z" fill="#D328F9"/>
<path opacity="0.5" d="M210.602 139.496L206.5 141.827L202.237 150.997C202.237 150.997 206.353 153.615 209.601 151.494C212.849 149.373 210.602 139.496 210.602 139.496Z" fill="white"/>
<path d="M138.873 142.331L143.724 143.731L148.323 153.244C148.323 153.244 144.627 156.667 140.623 153.398C137.627 150.92 138.873 142.331 138.873 142.331Z" fill="#D328F9"/>
<g opacity="0.5">
<path d="M138.873 142.331L143.724 143.731L148.323 153.244C148.323 153.244 144.627 156.667 140.623 153.398C137.627 150.92 138.873 142.331 138.873 142.331Z" fill="white"/>
</g>
<path d="M181.545 103.551C181.881 103.488 182.245 103.866 182.322 104.384C182.399 104.902 182.21 105.378 181.874 105.434C181.538 105.49 181.174 105.119 181.097 104.601C181.02 104.083 181.209 103.6 181.545 103.551Z" fill="#263238"/>
<path d="M182.581 103.04L181.398 103.621C182.112 104.125 182.581 103.04 182.581 103.04Z" fill="#263238"/>
<path d="M175.7 104.755C176.036 104.692 176.4 105.07 176.477 105.588C176.554 106.106 176.365 106.582 176.029 106.638C175.693 106.694 175.329 106.323 175.252 105.805C175.175 105.287 175.35 104.818 175.7 104.755Z" fill="#263238"/>
<path d="M176.722 104.244L175.539 104.825C176.253 105.329 176.722 104.244 176.722 104.244Z" fill="#263238"/>
<path d="M146.062 131.537C145.403 131.541 144.749 131.418 144.137 131.173C141.967 130.284 140.959 128.03 141.337 124.978C141.349 124.887 141.397 124.803 141.471 124.747C141.544 124.69 141.637 124.666 141.729 124.677C141.775 124.683 141.819 124.697 141.859 124.72C141.9 124.742 141.935 124.773 141.963 124.809C141.991 124.846 142.011 124.888 142.023 124.933C142.034 124.977 142.037 125.024 142.03 125.069C141.666 127.778 142.52 129.766 144.375 130.522C145.452 130.891 146.617 130.909 147.705 130.575C148.793 130.24 149.746 129.57 150.43 128.66C152.187 126.322 151.613 123.004 148.876 119.56C141.708 110.565 142.184 105.784 143.199 102.004C144.669 96.5164 148.974 90.2304 161.154 91.4414C161.247 91.4507 161.332 91.4965 161.391 91.5687C161.45 91.6409 161.478 91.7336 161.469 91.8264C161.46 91.9193 161.414 92.0046 161.342 92.0637C161.27 92.1227 161.177 92.1507 161.084 92.1414C149.401 90.9794 145.271 96.9714 143.871 102.193C142.863 105.973 142.471 110.39 149.422 119.133C153.622 124.404 151.921 127.855 150.99 129.087C150.407 129.842 149.661 130.455 148.808 130.879C147.954 131.303 147.015 131.529 146.062 131.537Z" fill="#263238"/>
</svg>
