<svg width="300" height="300" viewBox="0 0 300 300" fill="none" xmlns="http://www.w3.org/2000/svg">
<path opacity="0.7" d="M40.758 100.254C40.758 100.254 24.03 143.454 47.538 186.954C71.046 230.454 119.466 253.434 158.22 273.084C196.974 292.734 237.216 283.164 256.338 250.98C275.46 218.796 249.234 195.822 249.198 149.928C249.162 104.034 256.068 91.8843 231.198 53.1123C206.328 14.3403 145.362 5.75434 99.258 34.5123C53.154 63.2703 40.758 100.254 40.758 100.254Z" fill="white"/>
<path d="M141.072 21.4321C215.472 14.8321 215.622 56.7901 249.156 95.9101C282.69 135.03 289.86 152.76 277.2 197.856C264.54 242.952 222 278.298 169.284 258.27C116.568 238.242 86.4001 257.472 53.1661 239.67C19.9321 221.868 7.56609 187.524 31.9141 147.024C56.2621 106.524 49.3081 29.6041 141.072 21.4321Z" fill="#D328F9"/>
<path opacity="0.7" d="M141.072 21.4321C215.472 14.8321 215.622 56.7901 249.156 95.9101C282.69 135.03 289.86 152.76 277.2 197.856C264.54 242.952 222 278.298 169.284 258.27C116.568 238.242 86.4001 257.472 53.1661 239.67C19.9321 221.868 7.56609 187.524 31.9141 147.024C56.2621 106.524 49.3081 29.6041 141.072 21.4321Z" fill="white"/>
<path d="M190.616 39.3873L73.6724 52.4014L91.7637 214.97L208.708 201.956L190.616 39.3873Z" fill="white" stroke="#263238" stroke-linecap="round" stroke-linejoin="round"/>
<path d="M190.616 39.3883L73.6719 52.4023L76.175 74.8955L193.119 61.8814L190.616 39.3883Z" fill="#BFBFBF" stroke="#263238" stroke-linecap="round" stroke-linejoin="round"/>
<path d="M158.124 49.7526L107.64 55.3686C107.405 55.3803 107.176 55.4397 106.965 55.5432C106.754 55.6467 106.566 55.792 106.414 55.9704C106.261 56.1488 106.146 56.3565 106.076 56.5807C106.006 56.805 105.983 57.0412 106.007 57.2747C106.032 57.5083 106.104 57.7345 106.219 57.9394C106.334 58.1443 106.489 58.3236 106.675 58.4664C106.862 58.6092 107.076 58.7125 107.303 58.77C107.531 58.8274 107.768 58.8379 108 58.8006L158.484 53.1846C158.926 53.1178 159.324 52.8826 159.596 52.5282C159.868 52.1738 159.993 51.7279 159.943 51.2839C159.893 50.84 159.674 50.4325 159.33 50.147C158.986 49.8615 158.546 49.7202 158.1 49.7526H158.124Z" fill="white"/>
<path d="M146.286 58.2005L121.05 61.0085C120.937 61.0197 120.828 61.0532 120.729 61.1072C120.629 61.1611 120.541 61.2343 120.47 61.3226C120.399 61.4109 120.347 61.5124 120.315 61.6212C120.284 61.7301 120.275 61.8441 120.288 61.9565C120.312 62.1839 120.426 62.3925 120.603 62.5365C120.781 62.6804 121.009 62.748 121.236 62.7245L146.478 59.9165C146.699 59.8831 146.898 59.7655 147.034 59.5883C147.17 59.4111 147.232 59.1881 147.208 58.9662C147.183 58.7442 147.073 58.5405 146.901 58.3977C146.729 58.255 146.509 58.1843 146.286 58.2005Z" fill="white"/>
<path opacity="0.3" d="M165.15 77.6525L99.0002 85.0085C98.8308 85.0276 98.6758 85.1132 98.5695 85.2466C98.4632 85.3799 98.4141 85.55 98.4332 85.7195C98.4523 85.889 98.538 86.0439 98.6713 86.1502C98.8047 86.2566 98.9748 86.3056 99.1443 86.2865L165.276 78.9305C165.446 78.9114 165.601 78.8258 165.707 78.6924C165.813 78.5591 165.862 78.389 165.843 78.2195C165.824 78.05 165.739 77.8951 165.605 77.7887C165.472 77.6824 165.302 77.6334 165.132 77.6525H165.15Z" fill="#131313"/>
<path opacity="0.3" d="M165.66 82.2421L89.6042 90.7021C89.4348 90.7212 89.2798 90.8068 89.1735 90.9402C89.0672 91.0735 89.0182 91.2436 89.0372 91.4131C89.0563 91.5826 89.142 91.7375 89.2753 91.8439C89.4087 91.9502 89.5788 91.9992 89.7482 91.9801L165.804 83.5201C165.891 83.5149 165.975 83.4922 166.053 83.4534C166.131 83.4146 166.199 83.3605 166.256 83.2943C166.312 83.2282 166.354 83.1513 166.379 83.0684C166.405 82.9856 166.413 82.8984 166.404 82.8121C166.395 82.725 166.368 82.6408 166.325 82.5644C166.282 82.4881 166.224 82.4213 166.154 82.368C166.085 82.3147 166.005 82.2761 165.92 82.2544C165.835 82.2328 165.747 82.2286 165.66 82.2421Z" fill="#131313"/>
<path opacity="0.3" d="M146.322 89.04L90.114 95.2921C89.9445 95.3111 89.7896 95.3968 89.6833 95.5301C89.5769 95.6635 89.5279 95.8336 89.547 96.003C89.5661 96.1725 89.6517 96.3275 89.7851 96.4338C89.9184 96.5401 90.0885 96.5891 90.258 96.57L146.46 90.318C146.547 90.3128 146.631 90.2902 146.709 90.2514C146.786 90.2126 146.855 90.1584 146.911 90.0923C146.967 90.0261 147.009 89.9493 147.035 89.8664C147.061 89.7835 147.069 89.6963 147.06 89.6101C147.05 89.5235 147.024 89.4399 146.981 89.364C146.938 89.2881 146.881 89.2216 146.812 89.1684C146.743 89.1152 146.664 89.0764 146.58 89.0543C146.496 89.0323 146.408 89.0274 146.322 89.04Z" fill="#131313"/>
<path opacity="0.3" d="M181.922 75.2142L175.213 75.9607C174.311 76.0612 173.661 76.8741 173.761 77.7765L174.508 84.4851C174.608 85.3875 175.421 86.0376 176.324 85.9372L183.032 85.1906C183.935 85.0902 184.585 84.2772 184.484 83.3749L183.738 76.6663C183.637 75.7639 182.824 75.1138 181.922 75.2142Z" stroke="#263238" stroke-linecap="round" stroke-linejoin="round"/>
<path d="M176.406 80.3699L178.614 82.4519L181.518 78.0059" stroke="#D328F9" stroke-width="3" stroke-linecap="round" stroke-linejoin="round"/>
<path opacity="0.3" d="M167.568 99.3966L101.436 106.753C101.266 106.772 101.111 106.857 101.005 106.991C100.899 107.124 100.85 107.294 100.869 107.464C100.888 107.633 100.974 107.788 101.107 107.894C101.24 108.001 101.41 108.05 101.58 108.031L167.712 100.675C167.796 100.665 167.877 100.639 167.951 100.598C168.025 100.558 168.09 100.503 168.143 100.437C168.195 100.371 168.234 100.295 168.258 100.214C168.281 100.132 168.288 100.048 168.279 99.9636C168.269 99.8797 168.243 99.7985 168.203 99.7246C168.162 99.6507 168.107 99.5855 168.041 99.5329C167.975 99.4802 167.899 99.4411 167.818 99.4177C167.737 99.3943 167.652 99.3872 167.568 99.3966Z" fill="#131313"/>
<path opacity="0.3" d="M168.078 103.986L92.0222 112.446C91.9383 112.456 91.8571 112.482 91.7832 112.523C91.7092 112.564 91.6441 112.619 91.5915 112.685C91.5388 112.751 91.4997 112.826 91.4763 112.907C91.4529 112.989 91.4458 113.074 91.4552 113.157C91.4647 113.241 91.4906 113.323 91.5314 113.397C91.5723 113.47 91.6273 113.536 91.6933 113.588C91.7593 113.641 91.8351 113.68 91.9162 113.703C91.9973 113.727 92.0823 113.734 92.1662 113.724L168.222 105.264C168.392 105.245 168.547 105.16 168.653 105.026C168.759 104.893 168.808 104.723 168.789 104.553C168.77 104.384 168.684 104.229 168.551 104.123C168.418 104.016 168.248 103.967 168.078 103.986Z" fill="#131313"/>
<path opacity="0.3" d="M148.74 110.784L92.532 117.036C92.3625 117.055 92.2076 117.141 92.1012 117.274C91.9949 117.408 91.9459 117.578 91.965 117.747C91.9841 117.917 92.0697 118.072 92.2031 118.178C92.3364 118.284 92.5065 118.333 92.676 118.314L148.878 112.062C148.965 112.057 149.049 112.034 149.127 111.995C149.204 111.957 149.273 111.903 149.329 111.836C149.385 111.77 149.427 111.693 149.453 111.611C149.479 111.528 149.487 111.44 149.478 111.354C149.468 111.268 149.442 111.184 149.399 111.108C149.356 111.032 149.299 110.966 149.23 110.912C149.161 110.859 149.082 110.821 148.998 110.798C148.914 110.776 148.826 110.772 148.74 110.784Z" fill="#131313"/>
<path opacity="0.3" d="M184.342 96.9534L177.633 97.7C176.731 97.8004 176.081 98.6134 176.181 99.5158L176.928 106.224C177.028 107.127 177.841 107.777 178.744 107.676L185.452 106.93C186.355 106.829 187.005 106.017 186.904 105.114L186.158 98.4055C186.057 97.5031 185.244 96.853 184.342 96.9534Z" stroke="#263238" stroke-linecap="round" stroke-linejoin="round"/>
<path d="M178.83 102.114L181.032 104.196L183.936 99.75" stroke="#D328F9" stroke-width="3" stroke-linecap="round" stroke-linejoin="round"/>
<path opacity="0.3" d="M169.986 121.14L103.854 128.496C103.695 128.527 103.554 128.616 103.458 128.746C103.362 128.877 103.319 129.038 103.338 129.199C103.356 129.359 103.434 129.507 103.556 129.613C103.679 129.718 103.836 129.774 103.998 129.768L170.13 122.4C170.214 122.391 170.295 122.365 170.369 122.324C170.443 122.283 170.508 122.228 170.561 122.162C170.613 122.096 170.653 122.02 170.676 121.939C170.699 121.858 170.706 121.773 170.697 121.689C170.688 121.605 170.662 121.524 170.621 121.45C170.58 121.376 170.525 121.311 170.459 121.258C170.393 121.206 170.317 121.167 170.236 121.143C170.155 121.12 170.07 121.113 169.986 121.122V121.14Z" fill="#131313"/>
<path opacity="0.3" d="M170.502 125.73L94.4398 134.19C94.3558 134.199 94.2742 134.224 94.2 134.264C94.1258 134.304 94.0604 134.359 94.0078 134.425C93.9552 134.491 93.9164 134.567 93.8938 134.648C93.8711 134.73 93.865 134.815 93.8758 134.898C93.8848 134.982 93.9102 135.064 93.9507 135.138C93.9911 135.212 94.0458 135.277 94.1116 135.33C94.1773 135.383 94.2529 135.423 94.3339 135.446C94.415 135.47 94.4999 135.478 94.5838 135.468L170.64 127.008C170.727 127.002 170.811 126.979 170.889 126.94C170.967 126.9 171.035 126.846 171.091 126.779C171.147 126.712 171.189 126.635 171.215 126.552C171.24 126.469 171.249 126.381 171.24 126.294C171.23 126.208 171.203 126.125 171.161 126.049C171.118 125.973 171.06 125.907 170.991 125.855C170.923 125.802 170.844 125.764 170.759 125.742C170.675 125.721 170.588 125.717 170.502 125.73Z" fill="#131313"/>
<path opacity="0.3" d="M151.158 132.528L94.95 138.78C94.7805 138.799 94.6255 138.885 94.5192 139.018C94.4129 139.152 94.3639 139.322 94.383 139.491C94.402 139.661 94.4877 139.816 94.621 139.922C94.7544 140.028 94.9245 140.077 95.094 140.058L151.296 133.8C151.465 133.782 151.621 133.697 151.728 133.564C151.834 133.432 151.884 133.262 151.866 133.092C151.848 132.923 151.763 132.768 151.63 132.661C151.497 132.554 151.327 132.504 151.158 132.522V132.528Z" fill="#131313"/>
<path opacity="0.3" d="M186.761 118.693L180.053 119.439C179.15 119.54 178.5 120.353 178.601 121.255L179.347 127.964C179.448 128.866 180.261 129.516 181.163 129.416L187.872 128.669C188.774 128.569 189.424 127.756 189.324 126.853L188.577 120.145C188.477 119.242 187.664 118.592 186.761 118.693Z" stroke="#263238" stroke-linecap="round" stroke-linejoin="round"/>
<path d="M181.248 123.858L183.45 125.94L186.36 121.488" stroke="#D328F9" stroke-width="3" stroke-linecap="round" stroke-linejoin="round"/>
<path opacity="0.3" d="M172.404 142.885L106.272 150.241C106.113 150.271 105.972 150.361 105.876 150.491C105.78 150.621 105.737 150.783 105.756 150.943C105.774 151.104 105.852 151.252 105.974 151.357C106.097 151.463 106.254 151.518 106.416 151.513L172.548 144.157C172.636 144.154 172.723 144.132 172.803 144.094C172.883 144.056 172.954 144.001 173.012 143.934C173.07 143.867 173.113 143.789 173.139 143.704C173.165 143.62 173.173 143.531 173.163 143.443C173.153 143.355 173.125 143.27 173.081 143.193C173.037 143.117 172.977 143.05 172.906 142.998C172.834 142.945 172.753 142.908 172.667 142.889C172.58 142.869 172.491 142.868 172.404 142.885Z" fill="#131313"/>
<path opacity="0.3" d="M172.92 147.475L96.8578 155.935C96.7737 155.943 96.6922 155.968 96.618 156.008C96.5438 156.048 96.4784 156.103 96.4258 156.169C96.3732 156.235 96.3344 156.311 96.3117 156.392C96.289 156.474 96.2829 156.559 96.2938 156.643C96.3028 156.727 96.3282 156.808 96.3687 156.882C96.4091 156.956 96.4638 157.021 96.5296 157.074C96.5953 157.127 96.6709 157.167 96.7519 157.191C96.8329 157.214 96.9179 157.222 97.0018 157.213L173.058 148.753C173.228 148.733 173.383 148.647 173.49 148.513C173.597 148.379 173.646 148.209 173.628 148.039C173.608 147.87 173.523 147.716 173.39 147.611C173.257 147.505 173.088 147.456 172.92 147.475Z" fill="#131313"/>
<path opacity="0.3" d="M153.6 154.272L97.392 160.524C97.3079 160.532 97.2264 160.557 97.1522 160.597C97.078 160.638 97.0126 160.692 96.96 160.759C96.9074 160.825 96.8686 160.901 96.8459 160.982C96.8232 161.063 96.8171 161.148 96.828 161.232C96.8369 161.316 96.8624 161.397 96.9028 161.471C96.9433 161.546 96.998 161.611 97.0637 161.664C97.1295 161.717 97.2051 161.756 97.2861 161.78C97.3671 161.804 97.452 161.811 97.536 161.802L153.738 155.55C153.822 155.541 153.903 155.516 153.977 155.475C154.051 155.435 154.117 155.38 154.17 155.314C154.223 155.248 154.262 155.173 154.286 155.092C154.31 155.011 154.317 154.926 154.308 154.842C154.3 154.758 154.275 154.676 154.235 154.601C154.194 154.527 154.14 154.461 154.074 154.408C154.008 154.355 153.932 154.316 153.851 154.292C153.769 154.269 153.684 154.262 153.6 154.272Z" fill="#131313"/>
<path opacity="0.3" d="M189.181 140.438L182.473 141.184C181.57 141.285 180.92 142.098 181.021 143L181.767 149.709C181.868 150.611 182.681 151.261 183.583 151.161L190.292 150.414C191.194 150.314 191.844 149.501 191.744 148.598L190.997 141.89C190.897 140.988 190.084 140.337 189.181 140.438Z" stroke="#263238" stroke-linecap="round" stroke-linejoin="round"/>
<path d="M183.666 145.596L185.868 147.678L188.778 143.232" stroke="#D328F9" stroke-width="3" stroke-linecap="round" stroke-linejoin="round"/>
<path opacity="0.3" d="M174.828 164.622L108.696 171.978C108.612 171.987 108.531 172.013 108.457 172.053C108.382 172.094 108.317 172.149 108.264 172.214C108.211 172.28 108.172 172.356 108.148 172.437C108.124 172.518 108.117 172.602 108.126 172.686C108.135 172.77 108.16 172.852 108.201 172.926C108.241 173 108.296 173.065 108.362 173.118C108.427 173.171 108.503 173.21 108.584 173.234C108.665 173.258 108.75 173.265 108.834 173.256L174.966 165.9C175.05 165.891 175.131 165.866 175.205 165.825C175.279 165.785 175.345 165.73 175.398 165.665C175.451 165.599 175.49 165.523 175.514 165.442C175.537 165.361 175.545 165.276 175.536 165.192C175.516 165.023 175.431 164.869 175.298 164.762C175.166 164.656 174.997 164.605 174.828 164.622Z" fill="#131313"/>
<path opacity="0.3" d="M175.338 169.2L99.2758 177.66C99.1873 177.663 99.1005 177.685 99.0207 177.723C98.9409 177.761 98.8698 177.816 98.812 177.883C98.7542 177.95 98.7109 178.028 98.6848 178.113C98.6587 178.197 98.6504 178.286 98.6603 178.374C98.6703 178.462 98.6983 178.547 98.7427 178.624C98.787 178.7 98.8467 178.767 98.918 178.819C98.9894 178.872 99.0707 178.909 99.1571 178.928C99.2434 178.948 99.3329 178.949 99.4198 178.932L175.476 170.472C175.565 170.47 175.652 170.45 175.732 170.412C175.813 170.374 175.885 170.32 175.943 170.253C176.002 170.187 176.046 170.108 176.073 170.024C176.099 169.939 176.108 169.85 176.099 169.761C176.089 169.673 176.061 169.588 176.017 169.51C175.973 169.433 175.913 169.366 175.841 169.314C175.77 169.261 175.688 169.224 175.601 169.204C175.515 169.185 175.425 169.183 175.338 169.2Z" fill="#131313"/>
<path opacity="0.3" d="M156 176.016L99.7922 182.268C99.6228 182.287 99.4678 182.373 99.3615 182.506C99.2552 182.64 99.2061 182.81 99.2252 182.979C99.2443 183.149 99.33 183.304 99.4633 183.41C99.5966 183.516 99.7668 183.565 99.9362 183.546L156.144 177.294C156.313 177.273 156.467 177.186 156.573 177.053C156.678 176.919 156.727 176.749 156.708 176.58C156.699 176.496 156.674 176.415 156.633 176.342C156.593 176.268 156.538 176.203 156.472 176.15C156.406 176.098 156.331 176.059 156.25 176.036C156.169 176.013 156.084 176.006 156 176.016Z" fill="#131313"/>
<path opacity="0.3" d="M191.602 162.183L184.893 162.929C183.991 163.03 183.341 163.843 183.441 164.745L184.188 171.454C184.288 172.356 185.101 173.006 186.003 172.906L192.712 172.159C193.614 172.059 194.264 171.246 194.164 170.344L193.418 163.635C193.317 162.733 192.504 162.083 191.602 162.183Z" stroke="#263238" stroke-linecap="round" stroke-linejoin="round"/>
<path d="M186.084 167.341L188.286 169.423L191.196 164.977" stroke="#D328F9" stroke-width="3" stroke-linecap="round" stroke-linejoin="round"/>
<path opacity="0.3" d="M176.67 181.2L110.538 188.568C110.368 188.587 110.213 188.673 110.107 188.806C110.001 188.939 109.952 189.109 109.971 189.279C109.99 189.448 110.076 189.603 110.209 189.71C110.342 189.816 110.512 189.865 110.682 189.846L176.814 182.49C176.898 182.482 176.979 182.457 177.054 182.417C177.128 182.376 177.193 182.321 177.246 182.255C177.298 182.189 177.337 182.113 177.36 182.032C177.383 181.951 177.389 181.866 177.378 181.782C177.37 181.697 177.346 181.614 177.306 181.539C177.266 181.463 177.212 181.397 177.146 181.342C177.08 181.288 177.004 181.248 176.922 181.223C176.841 181.199 176.755 181.191 176.67 181.2Z" fill="#131313"/>
<path opacity="0.3" d="M177.18 185.808L101.124 194.268C101.035 194.27 100.948 194.291 100.867 194.328C100.787 194.366 100.715 194.42 100.657 194.487C100.598 194.554 100.554 194.632 100.527 194.717C100.501 194.801 100.492 194.891 100.501 194.979C100.511 195.067 100.539 195.153 100.583 195.23C100.627 195.307 100.687 195.374 100.759 195.427C100.83 195.479 100.912 195.517 100.998 195.536C101.085 195.556 101.175 195.557 101.262 195.54L177.324 187.08C177.483 187.049 177.624 186.96 177.72 186.83C177.816 186.7 177.859 186.538 177.841 186.377C177.822 186.217 177.744 186.069 177.622 185.963C177.499 185.858 177.342 185.802 177.18 185.808Z" fill="#131313"/>
<path opacity="0.3" d="M157.836 192.601L101.634 198.853C101.55 198.862 101.469 198.887 101.394 198.928C101.32 198.968 101.255 199.023 101.202 199.088C101.149 199.154 101.11 199.23 101.086 199.311C101.062 199.392 101.055 199.477 101.064 199.561C101.083 199.731 101.17 199.886 101.303 199.993C101.437 200.1 101.608 200.149 101.778 200.131L157.98 193.879C158.064 193.869 158.145 193.843 158.219 193.803C158.293 193.762 158.358 193.707 158.411 193.641C158.463 193.575 158.502 193.499 158.526 193.418C158.549 193.337 158.556 193.252 158.547 193.168C158.537 193.084 158.511 193.003 158.471 192.929C158.43 192.855 158.375 192.79 158.309 192.737C158.243 192.684 158.167 192.645 158.086 192.622C158.005 192.598 157.92 192.591 157.836 192.601Z" fill="#131313"/>
<path opacity="0.3" d="M193.449 178.767L186.74 179.513C185.838 179.614 185.188 180.427 185.288 181.329L186.035 188.038C186.135 188.94 186.948 189.59 187.851 189.49L194.559 188.743C195.462 188.643 196.112 187.83 196.011 186.928L195.265 180.219C195.164 179.317 194.351 178.667 193.449 178.767Z" stroke="#263238" stroke-linecap="round" stroke-linejoin="round"/>
<path d="M187.926 183.93L190.128 186.012L193.038 181.566" stroke="#D328F9" stroke-width="3" stroke-linecap="round" stroke-linejoin="round"/>
<path d="M121.686 138.762C121.744 138.073 121.573 137.383 121.2 136.8L120.462 135.492L118.998 136.32L119.796 137.724C120.192 138.426 120.03 138.858 119.538 139.134C119.046 139.41 118.59 139.338 118.194 138.636L116.484 135.6L114.648 135.96L116.604 139.41C117.498 140.988 118.794 141.438 120.312 140.61C120.553 140.472 120.777 140.304 120.978 140.112C120.893 139.914 120.878 139.693 120.936 139.486C120.993 139.279 121.121 139.097 121.296 138.972C121.414 138.881 121.545 138.81 121.686 138.762Z" fill="#D328F9"/>
<path d="M113.706 134.298L114.054 134.898H116.076L115.194 133.338C114.798 132.636 114.954 132.192 115.446 131.916C115.938 131.64 116.4 131.724 116.796 132.432L117.396 133.482L118.854 132.654L118.314 131.7C117.42 130.128 116.124 129.672 114.606 130.536C114.257 130.724 113.948 130.976 113.694 131.28C114.039 131.391 114.4 131.442 114.762 131.43L113.322 131.97C113.216 132.363 113.196 132.774 113.262 133.176C113.328 133.577 113.48 133.96 113.706 134.298Z" fill="#D328F9"/>
<path d="M124.92 127.903C125.112 127.807 125.313 127.728 125.52 127.669C126.294 127.321 126.468 126.205 126.402 125.419L125.604 124.429L123.456 125.629L124.8 127.993C124.835 127.957 124.876 127.926 124.92 127.903Z" fill="#D328F9"/>
<path d="M134.07 132.6L135.528 131.772L129.954 121.944L128.568 122.724C129.012 122.832 129.33 123.042 129.342 123.366C128.91 123.426 128.382 123.366 127.914 123.45L130.722 130.728L127.17 126.3C127.18 126.398 127.165 126.497 127.127 126.588C127.09 126.679 127.03 126.76 126.954 126.822C126.792 126.936 126.558 126.936 126.432 127.086C126.306 127.236 126.324 127.416 126.216 127.548C126.108 127.68 125.94 127.716 125.808 127.812C125.676 127.908 125.532 128.154 125.382 128.316C125.31 128.393 125.219 128.448 125.118 128.478L129.066 135.438L130.41 134.67L126.468 127.722L131.532 134.034L132.996 133.206L130.038 125.568L134.07 132.6Z" fill="#D328F9"/>
<path d="M137.76 124.044C137.867 124.097 137.962 124.172 138.039 124.262C138.116 124.353 138.174 124.458 138.21 124.572C138.336 123.831 138.175 123.069 137.76 122.442L137.034 121.158C136.14 119.586 134.898 119.16 133.35 120.036L131.076 121.326L136.656 131.16L138.102 130.338C137.634 130.044 137.112 129.792 136.668 129.474C136.46 129.341 136.288 129.157 136.17 128.94C136.114 128.83 136.091 128.707 136.104 128.584C136.117 128.462 136.165 128.346 136.242 128.25C136.344 128.164 136.468 128.109 136.599 128.091C136.731 128.073 136.865 128.093 136.986 128.148L136.104 126.588L136.836 126.174C137.239 125.956 137.589 125.653 137.862 125.286C137.556 124.8 137.022 123.768 137.76 124.044ZM136.038 124.8L135.306 125.214L133.416 121.884L134.148 121.47C134.64 121.194 135.036 121.266 135.432 121.968L136.272 123.444C136.668 124.116 136.53 124.494 136.038 124.8Z" fill="#D328F9"/>
<path d="M146.034 125.838L145.242 124.434L142.698 125.874L138.978 119.316L138.81 119.448C138.702 119.549 138.57 119.621 138.426 119.658C138.354 119.674 138.278 119.664 138.213 119.628C138.148 119.593 138.098 119.535 138.072 119.466C138.051 119.373 138.051 119.277 138.072 119.184C138.073 118.626 137.897 118.081 137.568 117.63L136.368 118.326L141.942 128.154L146.034 125.838Z" fill="#D328F9"/>
<path d="M145.338 122.4C145.506 121.962 146.028 121.8 146.322 121.404C146.348 121.363 146.373 121.321 146.394 121.278L145.794 120.27L147.312 119.412C147.284 119.316 147.235 119.228 147.168 119.154C146.95 119.048 146.718 118.975 146.478 118.938C146.441 118.863 146.423 118.781 146.424 118.698C146.425 118.614 146.446 118.533 146.486 118.459C146.525 118.386 146.581 118.323 146.65 118.276C146.719 118.229 146.798 118.198 146.88 118.188C146.982 118.188 147.102 118.188 147.18 118.14C147.235 118.075 147.263 117.991 147.258 117.906L147.12 117.666L144.996 118.866L143.448 116.13L146.112 114.612L145.314 113.208L141.114 115.608L145.242 122.886C145.249 122.72 145.282 122.556 145.338 122.4Z" fill="#D328F9"/>
<path d="M150.924 123.066L150.126 121.662L147.456 123.174L146.658 121.8L145.674 122.724L145.332 123.054L146.712 125.484L150.924 123.066Z" fill="#D328F9"/>
<path d="M148.938 111.648C148.938 111.858 148.788 112.092 148.584 112.11C148.48 112.109 148.377 112.093 148.278 112.062C148.093 112.066 147.907 112.048 147.726 112.008C147.687 111.992 147.65 111.97 147.618 111.942L145.854 112.944L146.652 114.354L148.266 113.436L153.066 121.836L154.608 120.96L149.808 112.56L151.428 111.642L150.63 110.238L148.974 111.174C148.944 111.33 148.956 111.492 148.938 111.648Z" fill="#D328F9"/>
<path d="M155.676 117.6L156.876 119.718L158.496 118.8C158.534 118.694 158.582 118.592 158.64 118.494C158.997 117.973 159.477 117.549 160.038 117.258L160.782 116.796L160.29 115.92L157.62 117.438L155.988 114.558L158.112 113.358L157.314 111.954L155.19 113.154L153.642 110.4L156.312 108.888L155.514 107.484L151.314 109.884L154.344 115.23C155.076 114.84 155.442 116.244 155.676 117.6Z" fill="#D328F9"/>
<path d="M124.602 137.016C124.854 137.058 125.004 137.31 125.202 137.478C125.274 137.545 125.357 137.597 125.448 137.634C125.563 137.588 125.675 137.536 125.784 137.478C127.296 136.62 127.614 135.252 126.726 133.674L126.636 133.518L124.56 133.464L125.238 134.664C125.634 135.366 125.478 135.81 124.986 136.086C124.494 136.362 124.032 136.272 123.636 135.57L120.636 130.26C120.234 129.558 120.396 129.12 120.888 128.838C121.38 128.556 121.836 128.652 122.238 129.354L124.272 132.954C124.896 132.8 125.537 132.719 126.18 132.714L123.834 128.58C122.946 127.008 121.608 126.582 120.09 127.44C118.572 128.298 118.254 129.672 119.148 131.244L122.046 136.356C122.229 136.75 122.503 137.095 122.845 137.363C123.187 137.631 123.588 137.815 124.014 137.898C124.011 137.862 124.011 137.826 124.014 137.79C123.942 137.4 124.23 136.944 124.602 137.016Z" fill="#D328F9"/>
<path d="M145.32 108.798L150.03 106.128C148.68 106.5 147.492 107.628 146.1 107.472C145.848 107.406 145.584 107.406 145.332 107.472C145.175 107.573 145.061 107.73 145.015 107.912C144.968 108.093 144.991 108.285 145.08 108.45C145.141 108.578 145.222 108.696 145.32 108.798Z" fill="#D328F9"/>
<path d="M133.506 115.5C133.496 115.397 133.517 115.292 133.566 115.2C133.682 115.241 133.804 115.261 133.926 115.26L135.552 114.342C135.807 114.055 136.097 113.8 136.416 113.586C136.724 113.422 137.051 113.293 137.388 113.202L137.748 113.094L140.748 111.402C140.78 111.341 140.823 111.286 140.874 111.24C140.921 111.21 140.971 111.185 141.024 111.168L137.928 110.232L137.094 110.7L137.004 111.36L133.434 113.268C133.081 113.489 132.687 113.638 132.276 113.706C132.123 113.724 131.968 113.724 131.814 113.706L126.726 116.592C126.767 116.834 126.835 117.069 126.93 117.294C126.632 117.239 126.348 117.122 126.096 116.952L125.052 117.552C125.796 118.044 126.528 118.548 127.242 119.082L133.506 115.5Z" fill="#D328F9"/>
<path d="M155.286 103.152L152.826 101.772L151.662 102.432C152.348 103.138 153.234 103.615 154.2 103.8L155.286 103.152Z" fill="#D328F9"/>
<path d="M168.516 117.678L159.228 101.304C158.867 100.671 158.27 100.207 157.567 100.012C156.864 99.8177 156.113 99.9091 155.478 100.266L154.362 100.902L154.788 101.316C155.232 101.76 155.688 102.21 156.102 102.684L156.666 102.366C156.744 102.323 156.836 102.311 156.923 102.335C157.009 102.359 157.083 102.415 157.128 102.492L166.422 118.872C166.465 118.951 166.475 119.044 166.451 119.13C166.426 119.217 166.368 119.29 166.29 119.334L153.648 126.534C154.74 126.6 155.844 126.444 156.936 126.57C157.329 126.62 157.72 126.69 158.106 126.78L167.478 121.464C167.796 121.285 168.076 121.045 168.301 120.757C168.525 120.47 168.691 120.14 168.787 119.788C168.884 119.436 168.91 119.068 168.863 118.706C168.817 118.344 168.699 117.995 168.516 117.678Z" fill="#D328F9"/>
<path d="M111.6 138.517L107.232 130.801C107.21 130.762 107.195 130.719 107.189 130.674C107.183 130.629 107.186 130.584 107.198 130.54C107.21 130.497 107.23 130.456 107.257 130.421C107.285 130.385 107.319 130.355 107.358 130.333L119.958 123.181C119.916 123.085 119.862 122.989 119.826 122.893C120.004 122.885 120.182 122.905 120.354 122.953L125.448 120.067C125.28 120.013 125.118 119.947 124.956 119.887L122.556 118.933L120.636 120.025L122.724 121.303C121.998 120.859 120.516 120.799 119.238 120.817L106.2 128.239C105.566 128.599 105.1 129.196 104.905 129.899C104.711 130.602 104.803 131.354 105.162 131.989L108.954 138.673C109.128 138.625 109.308 138.583 109.482 138.553C109.963 138.483 110.449 138.459 110.934 138.481C111.157 138.479 111.379 138.491 111.6 138.517Z" fill="#D328F9"/>
<path d="M127.164 141.529C127.378 141.72 127.621 141.876 127.884 141.991C128.154 142.111 128.514 142.399 128.304 142.591C127.332 143.035 126.132 142.705 125.178 143.191C124.656 143.443 124.152 143.941 123.594 143.791C124.269 144.201 124.876 144.713 125.394 145.309L149.22 131.797C149.22 131.701 149.25 131.605 149.268 131.503C149.269 131.314 149.312 131.128 149.396 130.958C149.479 130.789 149.6 130.641 149.749 130.525C149.899 130.409 150.072 130.329 150.257 130.291C150.442 130.252 150.633 130.256 150.816 130.303C151.125 130.289 151.435 130.322 151.734 130.399L154.704 128.713C154.297 128.01 153.814 127.355 153.264 126.757L127.164 141.529Z" fill="#D328F9"/>
<path d="M123.306 145.494C122.731 145.308 122.202 145.003 121.752 144.6L117 147.3C116.961 147.323 116.919 147.337 116.875 147.343C116.83 147.349 116.785 147.346 116.742 147.334C116.699 147.322 116.659 147.302 116.624 147.275C116.589 147.247 116.56 147.213 116.538 147.174L112.338 139.812C111.935 139.673 111.507 139.624 111.084 139.668C110.598 139.764 110.172 140.328 110.436 140.742C110.684 140.749 110.926 140.821 111.137 140.952C111.348 141.082 111.52 141.267 111.636 141.486C111.377 141.692 111.093 141.863 110.79 141.996L114.39 148.362C114.569 148.684 114.81 148.966 115.1 149.193C115.389 149.42 115.721 149.587 116.076 149.683C116.431 149.78 116.802 149.805 117.167 149.756C117.531 149.708 117.883 149.587 118.2 149.4L124.428 145.866L124.356 145.824C124.012 145.695 123.662 145.585 123.306 145.494Z" fill="#D328F9"/>
<g opacity="0.2">
<path d="M121.686 138.762C121.744 138.073 121.573 137.383 121.2 136.8L120.462 135.492L118.998 136.32L119.796 137.724C120.192 138.426 120.03 138.858 119.538 139.134C119.046 139.41 118.59 139.338 118.194 138.636L116.484 135.6L114.648 135.96L116.604 139.41C117.498 140.988 118.794 141.438 120.312 140.61C120.553 140.472 120.777 140.304 120.978 140.112C120.893 139.914 120.878 139.693 120.936 139.486C120.993 139.279 121.121 139.097 121.296 138.972C121.414 138.881 121.545 138.81 121.686 138.762Z" fill="#131313"/>
<path d="M113.706 134.298L114.054 134.898H116.076L115.194 133.338C114.798 132.636 114.954 132.192 115.446 131.916C115.938 131.64 116.4 131.724 116.796 132.432L117.396 133.482L118.854 132.654L118.314 131.7C117.42 130.128 116.124 129.672 114.606 130.536C114.257 130.724 113.948 130.976 113.694 131.28C114.039 131.391 114.4 131.442 114.762 131.43L113.322 131.97C113.216 132.363 113.196 132.774 113.262 133.176C113.328 133.577 113.48 133.96 113.706 134.298Z" fill="#131313"/>
<path d="M124.92 127.903C125.112 127.807 125.313 127.728 125.52 127.669C126.294 127.321 126.468 126.205 126.402 125.419L125.604 124.429L123.456 125.629L124.8 127.993C124.835 127.957 124.876 127.926 124.92 127.903Z" fill="#131313"/>
<path d="M134.07 132.6L135.528 131.772L129.954 121.944L128.568 122.724C129.012 122.832 129.33 123.042 129.342 123.366C128.91 123.426 128.382 123.366 127.914 123.45L130.722 130.728L127.17 126.3C127.18 126.398 127.165 126.497 127.127 126.588C127.09 126.679 127.03 126.76 126.954 126.822C126.792 126.936 126.558 126.936 126.432 127.086C126.306 127.236 126.324 127.416 126.216 127.548C126.108 127.68 125.94 127.716 125.808 127.812C125.676 127.908 125.532 128.154 125.382 128.316C125.31 128.393 125.219 128.448 125.118 128.478L129.066 135.438L130.41 134.67L126.468 127.722L131.532 134.034L132.996 133.206L130.038 125.568L134.07 132.6Z" fill="#131313"/>
<path d="M137.76 124.044C137.867 124.097 137.962 124.172 138.039 124.262C138.116 124.353 138.174 124.458 138.21 124.572C138.336 123.831 138.175 123.069 137.76 122.442L137.034 121.158C136.14 119.586 134.898 119.16 133.35 120.036L131.076 121.326L136.656 131.16L138.102 130.338C137.634 130.044 137.112 129.792 136.668 129.474C136.46 129.341 136.288 129.157 136.17 128.94C136.114 128.83 136.091 128.707 136.104 128.584C136.117 128.462 136.165 128.346 136.242 128.25C136.344 128.164 136.468 128.109 136.599 128.091C136.731 128.073 136.865 128.093 136.986 128.148L136.104 126.588L136.836 126.174C137.239 125.956 137.589 125.653 137.862 125.286C137.556 124.8 137.022 123.768 137.76 124.044ZM136.038 124.8L135.306 125.214L133.416 121.884L134.148 121.47C134.64 121.194 135.036 121.266 135.432 121.968L136.272 123.444C136.668 124.116 136.53 124.494 136.038 124.8Z" fill="#131313"/>
<path d="M146.034 125.838L145.242 124.434L142.698 125.874L138.978 119.316L138.81 119.448C138.702 119.549 138.57 119.621 138.426 119.658C138.354 119.674 138.278 119.664 138.213 119.628C138.148 119.593 138.098 119.535 138.072 119.466C138.051 119.373 138.051 119.277 138.072 119.184C138.073 118.626 137.897 118.081 137.568 117.63L136.368 118.326L141.942 128.154L146.034 125.838Z" fill="#131313"/>
<path d="M145.338 122.4C145.506 121.962 146.028 121.8 146.322 121.404C146.348 121.363 146.373 121.321 146.394 121.278L145.794 120.27L147.312 119.412C147.284 119.316 147.235 119.228 147.168 119.154C146.95 119.048 146.718 118.975 146.478 118.938C146.441 118.863 146.423 118.781 146.424 118.698C146.425 118.614 146.446 118.533 146.486 118.459C146.525 118.386 146.581 118.323 146.65 118.276C146.719 118.229 146.798 118.198 146.88 118.188C146.982 118.188 147.102 118.188 147.18 118.14C147.235 118.075 147.263 117.991 147.258 117.906L147.12 117.666L144.996 118.866L143.448 116.13L146.112 114.612L145.314 113.208L141.114 115.608L145.242 122.886C145.249 122.72 145.282 122.556 145.338 122.4Z" fill="#131313"/>
<path d="M150.924 123.066L150.126 121.662L147.456 123.174L146.658 121.8L145.674 122.724L145.332 123.054L146.712 125.484L150.924 123.066Z" fill="#131313"/>
<path d="M148.938 111.648C148.938 111.858 148.788 112.092 148.584 112.11C148.48 112.109 148.377 112.093 148.278 112.062C148.093 112.066 147.907 112.048 147.726 112.008C147.687 111.992 147.65 111.97 147.618 111.942L145.854 112.944L146.652 114.354L148.266 113.436L153.066 121.836L154.608 120.96L149.808 112.56L151.428 111.642L150.63 110.238L148.974 111.174C148.944 111.33 148.956 111.492 148.938 111.648Z" fill="#131313"/>
<path d="M155.676 117.6L156.876 119.718L158.496 118.8C158.534 118.694 158.582 118.592 158.64 118.494C158.997 117.973 159.477 117.549 160.038 117.258L160.782 116.796L160.29 115.92L157.62 117.438L155.988 114.558L158.112 113.358L157.314 111.954L155.19 113.154L153.642 110.4L156.312 108.888L155.514 107.484L151.314 109.884L154.344 115.23C155.076 114.84 155.442 116.244 155.676 117.6Z" fill="#131313"/>
<path d="M124.602 137.016C124.854 137.058 125.004 137.31 125.202 137.478C125.274 137.545 125.357 137.597 125.448 137.634C125.563 137.588 125.675 137.536 125.784 137.478C127.296 136.62 127.614 135.252 126.726 133.674L126.636 133.518L124.56 133.464L125.238 134.664C125.634 135.366 125.478 135.81 124.986 136.086C124.494 136.362 124.032 136.272 123.636 135.57L120.636 130.26C120.234 129.558 120.396 129.12 120.888 128.838C121.38 128.556 121.836 128.652 122.238 129.354L124.272 132.954C124.896 132.8 125.537 132.719 126.18 132.714L123.834 128.58C122.946 127.008 121.608 126.582 120.09 127.44C118.572 128.298 118.254 129.672 119.148 131.244L122.046 136.356C122.229 136.75 122.503 137.095 122.845 137.363C123.187 137.631 123.588 137.815 124.014 137.898C124.011 137.862 124.011 137.826 124.014 137.79C123.942 137.4 124.23 136.944 124.602 137.016Z" fill="#131313"/>
<path d="M145.32 108.798L150.03 106.128C148.68 106.5 147.492 107.628 146.1 107.472C145.848 107.406 145.584 107.406 145.332 107.472C145.175 107.573 145.061 107.73 145.015 107.912C144.968 108.093 144.991 108.285 145.08 108.45C145.141 108.578 145.222 108.696 145.32 108.798Z" fill="#131313"/>
<path d="M133.506 115.5C133.496 115.397 133.517 115.292 133.566 115.2C133.682 115.241 133.804 115.261 133.926 115.26L135.552 114.342C135.807 114.055 136.097 113.8 136.416 113.586C136.724 113.422 137.051 113.293 137.388 113.202L137.748 113.094L140.748 111.402C140.78 111.341 140.823 111.286 140.874 111.24C140.921 111.21 140.971 111.185 141.024 111.168L137.928 110.232L137.094 110.7L137.004 111.36L133.434 113.268C133.081 113.489 132.687 113.638 132.276 113.706C132.123 113.724 131.968 113.724 131.814 113.706L126.726 116.592C126.767 116.834 126.835 117.069 126.93 117.294C126.632 117.239 126.348 117.122 126.096 116.952L125.052 117.552C125.796 118.044 126.528 118.548 127.242 119.082L133.506 115.5Z" fill="#131313"/>
<path d="M155.286 103.152L152.826 101.772L151.662 102.432C152.348 103.138 153.234 103.615 154.2 103.8L155.286 103.152Z" fill="#131313"/>
<path d="M168.516 117.678L159.228 101.304C158.867 100.671 158.27 100.207 157.567 100.012C156.864 99.8177 156.113 99.9091 155.478 100.266L154.362 100.902L154.788 101.316C155.232 101.76 155.688 102.21 156.102 102.684L156.666 102.366C156.744 102.323 156.836 102.311 156.923 102.335C157.009 102.359 157.083 102.415 157.128 102.492L166.422 118.872C166.465 118.951 166.475 119.044 166.451 119.13C166.426 119.217 166.368 119.29 166.29 119.334L153.648 126.534C154.74 126.6 155.844 126.444 156.936 126.57C157.329 126.62 157.72 126.69 158.106 126.78L167.478 121.464C167.796 121.285 168.076 121.045 168.301 120.757C168.525 120.47 168.691 120.14 168.787 119.788C168.884 119.436 168.91 119.068 168.863 118.706C168.817 118.344 168.699 117.995 168.516 117.678Z" fill="#131313"/>
<path d="M111.6 138.517L107.232 130.801C107.21 130.762 107.195 130.719 107.189 130.674C107.183 130.629 107.186 130.584 107.198 130.54C107.21 130.497 107.23 130.456 107.257 130.421C107.285 130.385 107.319 130.355 107.358 130.333L119.958 123.181C119.916 123.085 119.862 122.989 119.826 122.893C120.004 122.885 120.182 122.905 120.354 122.953L125.448 120.067C125.28 120.013 125.118 119.947 124.956 119.887L122.556 118.933L120.636 120.025L122.724 121.303C121.998 120.859 120.516 120.799 119.238 120.817L106.2 128.239C105.566 128.599 105.1 129.196 104.905 129.899C104.711 130.602 104.803 131.354 105.162 131.989L108.954 138.673C109.128 138.625 109.308 138.583 109.482 138.553C109.963 138.483 110.449 138.459 110.934 138.481C111.157 138.479 111.379 138.491 111.6 138.517Z" fill="#131313"/>
<path d="M127.164 141.529C127.378 141.72 127.621 141.876 127.884 141.991C128.154 142.111 128.514 142.399 128.304 142.591C127.332 143.035 126.132 142.705 125.178 143.191C124.656 143.443 124.152 143.941 123.594 143.791C124.269 144.201 124.876 144.713 125.394 145.309L149.22 131.797C149.22 131.701 149.25 131.605 149.268 131.503C149.269 131.314 149.312 131.128 149.396 130.958C149.479 130.789 149.6 130.641 149.749 130.525C149.899 130.409 150.072 130.329 150.257 130.291C150.442 130.252 150.633 130.256 150.816 130.303C151.125 130.289 151.435 130.322 151.734 130.399L154.704 128.713C154.297 128.01 153.814 127.355 153.264 126.757L127.164 141.529Z" fill="#131313"/>
<path d="M123.306 145.494C122.731 145.308 122.202 145.003 121.752 144.6L117 147.3C116.961 147.323 116.919 147.337 116.875 147.343C116.83 147.349 116.785 147.346 116.742 147.334C116.699 147.322 116.659 147.302 116.624 147.275C116.589 147.247 116.56 147.213 116.538 147.174L112.338 139.812C111.935 139.673 111.507 139.624 111.084 139.668C110.598 139.764 110.172 140.328 110.436 140.742C110.684 140.749 110.926 140.821 111.137 140.952C111.348 141.082 111.52 141.267 111.636 141.486C111.377 141.692 111.093 141.863 110.79 141.996L114.39 148.362C114.569 148.684 114.81 148.966 115.1 149.193C115.389 149.42 115.721 149.587 116.076 149.683C116.431 149.78 116.802 149.805 117.167 149.756C117.531 149.708 117.883 149.587 118.2 149.4L124.428 145.866L124.356 145.824C124.012 145.695 123.662 145.585 123.306 145.494Z" fill="#131313"/>
</g>
<path opacity="0.3" d="M96.2883 124.068C99.9483 126.756 103.008 139.668 103.284 151.506C103.56 163.344 109.284 183.306 109.968 186.576C110.652 189.846 110.4 194.562 114.648 187.998C118.896 181.434 131.322 170.04 136.5 173.826C141.678 177.612 132.96 190.338 128.238 197.19C123.516 204.042 123.036 216.108 117.378 223.662C111.72 231.216 106.608 242.622 101.064 242.448C95.5203 242.274 58.8003 269.514 58.8003 269.514L59.5203 232.23L92.5203 178.23L96.2883 124.068Z" fill="black" fill-opacity="0.7"/>
<path d="M139.512 175.656C139.326 176.826 132.864 185.388 129.066 191.796C125.268 198.204 121.71 209.358 120.756 210.996C119.802 212.634 108.156 222.864 104.964 227.142C101.772 231.42 96.0722 233.31 90.3782 237.342C86.7182 239.934 75.3122 253.308 67.6262 262.542C63.3542 267.672 60.2282 271.542 60.2282 271.542L11.0942 258.732C11.0942 258.732 15.1622 255.378 20.5142 250.854H20.5502L20.6042 250.812C29.4002 243.342 41.6582 232.8 45.0422 228.822C50.4962 222.414 58.0922 214.8 58.0922 214.8C57.6302 205.902 58.5722 197.472 57.7382 194.268C57.3062 192.594 56.5382 183.072 55.9382 180.144C54.4802 172.662 48.1382 164.91 47.4242 161.856C46.7102 158.802 38.3402 145.8 42.4262 143.4C43.1691 142.933 44.052 142.74 44.9222 142.854C50.4422 143.616 54.9902 156.948 58.1222 160.344C59.4643 161.952 60.6799 163.661 61.7582 165.456C64.2302 169.374 66.6542 173.778 66.6542 173.778C67.6022 169.98 60.7202 156.45 58.8182 143.634C56.9162 130.818 51.4622 123.936 58.8182 123.144C59.4226 123.077 60.0345 123.13 60.6182 123.3C65.7962 124.812 68.0402 135.57 71.1362 146.01C71.4242 146.97 73.7822 153.864 75.6182 159.18C76.8182 162.66 77.7782 165.462 77.7782 165.462C78.0122 158.934 75.9782 152.862 75.6422 146.946C75.4982 144.576 76.2422 135.078 75.3062 125.586C74.5022 117.576 74.8682 114.33 78.0002 113.7C78.6711 113.58 79.3549 113.547 80.0342 113.604C85.4642 113.946 87.3902 128.376 87.3902 134.004C87.3902 137.274 87.9482 143.658 88.4162 148.446C88.7582 151.908 89.0522 154.536 89.0522 154.536C89.0522 154.536 90.0002 146.586 89.2922 129.438C89.1302 125.682 89.3762 122.994 90.8522 121.908C91.6622 121.308 92.8322 121.206 94.5122 121.662C99.2582 122.946 100.8 140.532 100.8 147.18C100.8 153.828 104.598 165.216 105.312 174.18C106.026 183.144 109.134 194.16 109.134 194.16C109.134 194.16 110.892 194.874 112.074 194.64C113.256 194.406 121.452 182.298 121.452 182.298C125.268 174.012 132.696 171.498 136.74 172.428C138.6 172.854 139.8 174 139.512 175.656Z" fill="white"/>
<path opacity="0.4" d="M139.512 175.657C139.326 176.827 132.864 185.389 129.066 191.797C125.268 198.205 121.71 209.359 120.756 210.997C119.802 212.635 108.156 222.865 104.964 227.143C101.772 231.421 96.0725 233.311 90.3785 237.343C86.7185 239.935 75.3125 253.309 67.6265 262.543C68.4725 259.195 70.3685 254.917 75.3245 250.807C83.9285 243.661 84.4445 238.057 89.0705 233.311C93.6965 228.565 101.844 229.987 104.772 224.311C107.7 218.635 117.912 213.391 120.048 208.405C122.184 203.419 117.912 202.363 121.71 196.363C125.508 190.363 129.192 188.905 128.652 186.553C128.112 184.201 126.516 180.637 129.81 177.667C131.868 175.819 134.286 173.497 136.758 172.429C138.6 172.855 139.8 174.001 139.512 175.657Z" fill="#D328F9"/>
<path opacity="0.4" d="M77.952 203.82C76.374 203.028 77.64 201.45 76.53 200.136C75.42 198.822 72.888 207.306 72.33 207.336C71.772 207.366 70.074 203.022 69.402 202.59C68.73 202.158 68.334 203.976 67.38 207.336C66.426 210.696 62.922 212.4 60.888 214.8C58.854 217.2 46.62 230.25 43.614 235.152C40.608 240.054 22.044 249.756 20.604 250.8C29.4 243.342 41.658 232.8 45.042 228.822C50.496 222.414 58.092 214.8 58.092 214.8C57.63 205.902 58.572 197.472 57.738 194.268C57.306 192.594 56.538 183.072 55.938 180.144C54.48 172.662 48.138 164.91 47.424 161.856C46.71 158.802 38.34 145.8 42.426 143.4C43.1688 142.933 44.0518 142.74 44.922 142.854C43.992 143.514 43.086 144.462 43.932 145.854C45.438 148.29 47.094 150.852 47.094 153.546C47.094 156.24 51.684 160.032 53.466 162.546C55.248 165.06 53.586 164.172 54.774 167.616C55.962 171.06 57.384 170.34 58.092 173.82C58.8 177.3 62.76 179.52 62.13 183.858C61.5 188.196 64.026 194.232 64.026 194.232C64.026 194.232 66.084 188.382 65.334 185.232C64.584 182.082 65.454 178.11 64.734 177.042C64.134 176.082 62.49 169.566 61.734 165.516C64.206 169.434 66.63 173.838 66.63 173.838C67.578 170.04 60.696 156.51 58.794 143.694C56.892 130.878 51.438 123.996 58.794 123.204C59.3984 123.137 60.0103 123.19 60.594 123.36C63.732 129.222 61.548 133.56 60.852 136.104C60.09 138.876 64.626 145.992 65.298 150.894C65.898 155.472 67.134 154.998 67.296 154.914C67.158 155.04 65.988 156.234 66.696 159.63C67.434 163.23 72.696 171.78 72.696 174.168C72.696 176.556 72.264 180.486 72.264 181.65C72.264 182.814 76.464 190.602 76.968 192.642C77.472 194.682 76.77 188.712 77.916 186.642C79.062 184.572 79.668 177.348 79.818 177.738C81.792 182.754 79.536 204.6 77.952 203.82Z" fill="#D328F9"/>
<path opacity="0.4" d="M81.3544 150.204C80.0104 152.238 80.0464 168.114 77.7544 168.168C76.6444 168.168 76.1044 164.178 75.6544 159.168C76.8544 162.648 77.8145 165.45 77.8145 165.45C78.0485 158.922 76.0144 152.85 75.6784 146.934C75.5344 144.564 76.2785 135.066 75.3425 125.574C74.5385 117.564 74.9044 114.318 78.0364 113.688C78.6964 115.824 80.3165 118.344 80.7305 120.684C81.2945 123.912 80.1905 126.582 79.2425 126.984C78.2945 127.386 78.1324 129.468 79.3204 129.774C80.5084 130.08 79.3204 145.23 79.8724 147.174C80.4244 149.118 82.7044 148.2 81.3544 150.204Z" fill="#D328F9"/>
<path opacity="0.4" d="M93.6842 132.432C91.2182 133.518 91.0862 135.462 90.3482 138.252C89.6102 141.042 91.4042 145.116 90.3482 151.518C89.2922 157.92 93.1442 162.048 90.3482 169.212C87.5522 176.376 88.8662 163.212 88.3982 157.212C88.2369 154.29 88.249 151.361 88.4342 148.44C88.7762 151.902 89.0702 154.53 89.0702 154.53C89.0702 154.53 90.0182 146.58 89.3102 129.432C89.1482 125.676 89.3942 122.988 90.8702 121.902C93.4022 124.2 95.7842 131.508 93.6842 132.432Z" fill="#D328F9"/>
<path d="M60.2284 271.548C60.2284 271.548 84.6785 241.404 90.3785 237.348C96.0785 233.292 101.778 231.414 104.964 227.148C108.15 222.882 119.808 212.664 120.756 211.002C121.704 209.34 125.268 198.186 129.066 191.802C132.864 185.418 139.326 176.802 139.512 175.662C140.34 170.436 127.05 170.202 121.47 182.31C121.47 182.31 113.28 194.412 112.092 194.652C110.904 194.892 109.152 194.172 109.152 194.172C109.152 194.172 106.044 183.162 105.33 174.192C104.616 165.222 100.818 153.822 100.818 147.192C100.818 140.562 99.2765 122.958 94.5305 121.674C89.7845 120.39 89.0645 123.642 89.3105 129.474C90.0185 146.622 89.0704 154.572 89.0704 154.572C89.0704 154.572 87.4084 139.674 87.4084 134.04C87.4084 128.406 85.4824 113.976 80.0524 113.64C75.0664 113.322 74.3704 116.124 75.3244 125.64C76.2784 135.156 75.5164 144.63 75.6604 147C76.0144 152.934 78.0604 159 77.7964 165.516C77.7964 165.516 71.6224 147.642 71.1484 146.052C67.7104 134.4 65.3284 122.4 58.8004 123.12C51.4444 123.912 56.9044 130.794 58.8004 143.61C60.6964 156.426 67.5844 169.956 66.6364 173.754C66.6364 173.754 60.9424 163.416 58.1044 160.32C54.5044 156.426 49.0684 139.458 42.4204 143.376C38.3344 145.776 46.7284 158.82 47.4364 161.874C48.1444 164.928 54.4924 172.674 55.9504 180.162C56.5504 183.09 57.3004 192.612 57.7504 194.286C58.5844 197.49 57.6424 205.92 58.1044 214.818C58.1044 214.818 50.5084 222.414 45.0544 228.822C39.6004 235.23 11.1064 258.732 11.1064 258.732" stroke="#263238" stroke-linecap="round" stroke-linejoin="round"/>
<path d="M109.152 194.166C110.247 196.869 110.247 199.893 109.152 202.596" stroke="#263238" stroke-linecap="round" stroke-linejoin="round"/>
<path d="M111.15 194.671C111.832 195.171 112.336 195.875 112.592 196.68C112.847 197.486 112.841 198.352 112.572 199.153" stroke="#263238" stroke-linecap="round" stroke-linejoin="round"/>
<path d="M89.0703 154.53C89.0703 154.53 90.9723 167.94 90.1383 170.43" stroke="#263238" stroke-linecap="round" stroke-linejoin="round"/>
<path d="M77.7964 165.45C78.0001 166.746 78.0001 168.066 77.7964 169.362" stroke="#263238" stroke-linecap="round" stroke-linejoin="round"/>
<path d="M66.6421 173.755C66.6421 173.755 66.9961 175.777 66.6421 176.251" stroke="#263238" stroke-linecap="round" stroke-linejoin="round"/>
<path d="M126.81 185.148C126.81 185.148 128.958 186.312 129.66 187.998" stroke="#263238" stroke-linecap="round" stroke-linejoin="round"/>
<path d="M77.874 129.432C78.5703 129.6 79.2974 129.589 79.9884 129.401C80.6794 129.213 81.3121 128.855 81.828 128.358" stroke="#263238" stroke-linecap="round" stroke-linejoin="round"/>
<path d="M78.6001 148.717C78.6001 148.717 82.8721 150.139 84.4201 148.717" stroke="#263238" stroke-linecap="round" stroke-linejoin="round"/>
<path d="M92.5142 152.869C92.5142 152.869 95.3582 151.801 97.2602 152.395" stroke="#263238" stroke-linecap="round" stroke-linejoin="round"/>
<path d="M65.3345 156.667C65.3345 156.667 67.5905 153.697 69.3725 154.531" stroke="#263238" stroke-linecap="round" stroke-linejoin="round"/>
<path d="M56.0763 165.45C56.0763 165.45 54.0603 166.398 53.4663 167.406" stroke="#263238" stroke-linecap="round" stroke-linejoin="round"/>
<path d="M58.0923 214.801C58.5869 214.246 59.025 213.643 59.4003 213.001C59.7543 212.287 59.2803 204.691 59.4003 199.801" stroke="#263238" stroke-linecap="round" stroke-linejoin="round"/>
<path d="M82.9921 244.704C80.1961 247.836 71.6221 253.512 68.1841 256.95" stroke="#263238" stroke-linecap="round" stroke-linejoin="round"/>
<path d="M94.2902 173.755C92.8682 177.793 94.4102 182.893 94.2902 185.155C94.1702 187.417 93.6902 197.755 93.6902 197.755" stroke="#263238" stroke-linecap="round" stroke-linejoin="round"/>
<path d="M81.3542 173.755C79.4582 176.959 80.0522 181.231 80.6462 183.355C81.2402 185.479 80.7122 194.155 80.7122 194.155" stroke="#263238" stroke-linecap="round" stroke-linejoin="round"/>
<path d="M60.9422 183.961C60.785 186.05 61.1999 188.143 62.1422 190.015" stroke="#263238" stroke-linecap="round" stroke-linejoin="round"/>
<path d="M72.6905 177.673C71.6225 181.591 73.0505 183.367 73.1705 183.961" stroke="#263238" stroke-linecap="round" stroke-linejoin="round"/>
<path opacity="0.3" d="M169.092 151.8L167.07 140.064C166.981 139.542 166.998 139.008 167.12 138.494C167.243 137.979 167.468 137.495 167.782 137.069C168.097 136.644 168.494 136.286 168.95 136.018C169.406 135.751 169.911 135.578 170.436 135.51L174.966 134.91C174.966 134.91 173.454 131.844 178.32 122.91C183.186 113.976 206.58 90.2459 224.316 130.11C242.052 169.974 258.258 251.208 258.258 251.208C258.258 251.208 210.384 195.456 208.86 192.6C207.336 189.744 192.762 191.454 189.396 183.792C186.03 176.13 178.962 154.266 178.962 154.266L173.49 155.016C172.483 155.152 171.463 154.893 170.643 154.294C169.823 153.694 169.267 152.8 169.092 151.8Z" fill="black" fill-opacity="0.7"/>
<path d="M211.284 124.871L202.098 126.539L189.33 128.861L172.608 131.903C172.287 131.962 171.958 131.957 171.639 131.888C171.32 131.82 171.018 131.689 170.75 131.503C170.482 131.318 170.253 131.081 170.077 130.807C169.9 130.533 169.78 130.226 169.722 129.905L166.05 109.715C165.934 109.068 166.08 108.401 166.454 107.86C166.828 107.32 167.401 106.949 168.048 106.829L177.774 105.029L191.922 102.461L206.724 99.7673C207.045 99.7084 207.374 99.7134 207.693 99.7821C208.012 99.8507 208.314 99.9816 208.582 100.167C208.85 100.353 209.079 100.589 209.255 100.864C209.432 101.138 209.552 101.444 209.61 101.765L213.282 121.955C213.345 122.278 213.344 122.61 213.277 122.933C213.21 123.255 213.08 123.561 212.894 123.832C212.708 124.104 212.47 124.335 212.194 124.514C211.917 124.692 211.608 124.814 211.284 124.871Z" fill="#D328F9"/>
<mask id="mask0_44_15056" style="mask-type:luminance" maskUnits="userSpaceOnUse" x="166" y="99" width="48" height="33">
<path d="M211.284 124.871L202.098 126.539L189.33 128.861L172.608 131.903C172.287 131.962 171.958 131.957 171.639 131.888C171.32 131.82 171.018 131.689 170.75 131.503C170.482 131.318 170.253 131.081 170.077 130.807C169.9 130.533 169.78 130.226 169.722 129.905L166.05 109.715C165.934 109.068 166.08 108.401 166.454 107.86C166.828 107.32 167.401 106.949 168.048 106.829L177.774 105.029L191.922 102.461L206.724 99.7673C207.045 99.7084 207.374 99.7134 207.693 99.7821C208.012 99.8507 208.314 99.9816 208.582 100.167C208.85 100.353 209.079 100.589 209.255 100.864C209.432 101.138 209.552 101.444 209.61 101.765L213.282 121.955C213.345 122.278 213.344 122.61 213.277 122.933C213.21 123.255 213.08 123.561 212.894 123.832C212.708 124.104 212.47 124.335 212.194 124.514C211.917 124.692 211.608 124.814 211.284 124.871Z" fill="white"/>
</mask>
<g mask="url(#mask0_44_15056)">
<path opacity="0.3" d="M204.786 111.467L202.098 126.539L189.33 128.861C185.634 127.235 179.538 124.403 178.32 122.861C176.868 121.061 177.072 110.453 177.774 105.029L191.922 102.461C196.908 105.899 204.786 111.467 204.786 111.467Z" fill="black" fill-opacity="0.7"/>
<path opacity="0.3" d="M175.146 131.441L172.608 131.903C172.287 131.962 171.958 131.957 171.639 131.888C171.32 131.82 171.018 131.689 170.75 131.503C170.482 131.318 170.253 131.081 170.077 130.807C169.9 130.532 169.78 130.226 169.722 129.905L166.05 109.715C165.934 109.068 166.08 108.401 166.454 107.86C166.828 107.32 167.401 106.949 168.048 106.829L170.58 106.367C169.934 106.487 169.361 106.858 168.988 107.399C168.614 107.94 168.471 108.606 168.588 109.253L172.26 129.443C172.318 129.764 172.438 130.07 172.615 130.345C172.791 130.619 173.02 130.856 173.288 131.041C173.556 131.227 173.858 131.358 174.177 131.426C174.496 131.495 174.825 131.5 175.146 131.441Z" fill="black" fill-opacity="0.7"/>
</g>
<path d="M211.284 124.871L202.098 126.539L189.33 128.861L172.608 131.903C172.287 131.962 171.958 131.957 171.639 131.888C171.32 131.82 171.018 131.689 170.75 131.503C170.482 131.318 170.253 131.081 170.077 130.807C169.9 130.533 169.78 130.226 169.722 129.905L166.05 109.715C165.934 109.068 166.08 108.401 166.454 107.86C166.828 107.32 167.401 106.949 168.048 106.829L177.774 105.029L191.922 102.461L206.724 99.7673C207.045 99.7084 207.374 99.7134 207.693 99.7821C208.012 99.8507 208.314 99.9816 208.582 100.167C208.85 100.353 209.079 100.589 209.255 100.864C209.432 101.138 209.552 101.444 209.61 101.765L213.282 121.955C213.345 122.278 213.344 122.61 213.277 122.933C213.21 123.255 213.08 123.561 212.894 123.832C212.708 124.104 212.47 124.335 212.194 124.514C211.917 124.692 211.608 124.814 211.284 124.871Z" stroke="#263238" stroke-linecap="round" stroke-linejoin="round"/>
<path d="M208.556 98.7014L170.036 105.777C168.691 106.023 167.802 107.314 168.049 108.658L171.741 128.762C171.988 130.106 173.278 130.996 174.623 130.749L213.143 123.674C214.487 123.427 215.377 122.137 215.13 120.792L211.437 100.689C211.19 99.3442 209.9 98.4545 208.556 98.7014Z" stroke="#263238" stroke-width="0.996394" stroke-linecap="round" stroke-linejoin="round"/>
<path d="M207.478 101.129L171.179 107.726C170.527 107.844 170.094 108.469 170.213 109.121L173.828 129.015C173.946 129.667 174.571 130.1 175.223 129.981L211.523 123.385C212.175 123.266 212.607 122.641 212.489 121.989L208.873 102.095C208.755 101.443 208.13 101.011 207.478 101.129Z" stroke="#263238" stroke-linecap="round" stroke-linejoin="round"/>
<path d="M213.822 124.41L211.302 124.866C211.946 124.745 212.515 124.374 212.886 123.834C213.257 123.294 213.4 122.63 213.282 121.986L209.61 101.796C209.552 101.475 209.432 101.168 209.255 100.894C209.079 100.62 208.85 100.383 208.582 100.198C208.314 100.012 208.012 99.8811 207.693 99.8124C207.374 99.7438 207.045 99.7388 206.724 99.7976L209.262 99.3356C209.91 99.2201 210.576 99.3653 211.117 99.7396C211.658 100.114 212.028 100.687 212.148 101.334L215.82 121.524C215.936 122.171 215.79 122.838 215.416 123.379C215.042 123.919 214.469 124.29 213.822 124.41Z" stroke="#263238" stroke-linecap="round" stroke-linejoin="round"/>
<path d="M286.8 189.084L261.954 255.731C261.954 255.731 251.562 235.931 241.962 217.607C234.294 202.955 227.13 189.215 226.164 187.193C223.998 182.639 216.6 173.099 216.6 173.099C216.6 173.099 209.01 168.755 205.536 161.189C202.062 153.623 198.24 126.557 198.24 126.557C198.24 126.557 188.262 122.801 185.88 121.157C183.498 119.513 181.326 104.321 181.326 102.587C181.326 100.853 183.726 97.3795 183.726 97.3795C183.726 97.3795 183.192 94.8355 186.24 92.2675C187.236 91.4496 188.341 90.7733 189.522 90.2575H189.582C189.582 90.2575 189.186 84.5155 192.174 82.8415C192.317 82.7608 192.465 82.6906 192.618 82.6315C195.282 81.6055 204.018 80.2795 204.018 80.2795C205.253 79.1943 206.691 78.3644 208.248 77.8375C209.796 77.4115 218.292 79.3855 223.038 80.5555C224.946 81.0235 226.248 81.3595 226.248 81.3595C226.248 81.3595 234.276 81.7255 235.794 82.6315C236.853 83.3257 237.821 84.1502 238.674 85.0855L238.824 85.2595C238.824 85.2595 245.982 86.7475 247.5 89.3695C249.018 91.9915 249.666 104.999 248.586 113.453C247.506 121.907 249.444 136.253 249.444 136.253C249.444 136.253 251.682 147.336 253.416 151.542C255.15 155.748 286.8 189.084 286.8 189.084Z" fill="white"/>
<path opacity="0.4" d="M241.962 217.608C234.294 202.956 227.13 189.216 226.164 187.194C223.998 182.64 216.6 173.1 216.6 173.1C216.6 173.1 209.01 168.756 205.536 161.19C202.062 153.624 198.24 126.558 198.24 126.558C198.24 126.558 188.262 122.802 185.88 121.158C183.498 119.514 181.326 104.322 181.326 102.588C181.326 100.854 183.726 97.3798 183.726 97.3798C183.726 97.3798 183.192 94.8358 186.24 92.2678C186.24 92.9518 186.24 94.1038 186.24 95.9158C186.168 99.3538 190.218 120.084 191.22 119.454C192.222 118.824 193.77 117.306 193.362 115.968C193.362 115.968 191.4 107.922 189.546 90.2578H189.606C189.606 90.2578 189.21 84.5158 192.198 82.8418C191.684 84.0852 191.355 85.3971 191.22 86.7358C191.154 89.5318 194.478 113.49 195.78 114.096C197.082 114.702 200.382 111.51 200.382 111.51C200.382 111.51 199.254 104.712 199.656 101.814C199.656 101.814 209.694 107.934 209.994 114.882C210.024 115.644 211.95 126.534 211.95 126.534C211.95 126.534 203.316 142.974 212.13 157.974C212.13 157.974 207.648 155.286 206.58 151.014C206.58 151.014 205.278 163.578 214.536 170.214C214.536 170.214 221.178 163.692 227.736 162.864C227.736 162.864 227.856 163.296 223.464 166.758C219.072 170.22 218.478 171.762 218.478 171.762C218.478 171.762 223.23 166.962 227.028 166.758C227.028 166.758 223.11 171.288 223.23 172.236C223.35 173.184 234.432 192.132 238.464 205.35C240.108 210.87 241.23 214.854 241.962 217.608Z" fill="#D328F9"/>
<path opacity="0.4" d="M210.846 91.86C210.846 91.86 214.044 94.26 214.992 91.86C215.537 90.5758 215.882 89.2162 216.018 87.828C216.018 87.828 217.248 87.264 218.418 90.228C219.588 93.192 231.318 93.948 234.066 95.466C236.814 96.984 237.906 95.466 237.906 95.466C238.546 95.992 238.985 96.7228 239.149 97.5349C239.313 98.347 239.192 99.1908 238.806 99.924C237.474 102.678 241.248 102.924 242.712 100.896C244.176 98.868 243.042 106.698 239.424 107.496C239.424 107.496 239.526 110.916 237.198 113.262H239.172C239.172 113.262 233.916 117.432 232.518 117.66C231.12 117.888 237.72 120.222 236.496 120.714C235.272 121.206 231.804 121.164 231.804 121.164C231.804 121.164 234.048 122.718 234.066 123.744C234.084 124.77 233.004 125.544 232.518 124.686C232.032 123.828 228.156 111.54 226.224 106.998C224.292 102.456 216.312 98.862 210.846 91.86Z" fill="#D328F9"/>
<path opacity="0.4" d="M238.668 85.0437C231.936 83.2017 222.906 80.5797 222.906 80.5797L223.032 80.5137C224.94 80.9817 226.242 81.3177 226.242 81.3177C226.242 81.3177 234.27 81.6837 235.788 82.5897C236.847 83.2839 237.814 84.1084 238.668 85.0437Z" fill="#D328F9"/>
<path d="M229.2 95.6341C223.344 94.4341 219.162 99.4381 219.162 99.4381C219.162 99.4381 224.982 104.706 226.272 106.968C227.562 109.23 229.704 116.856 229.704 116.856C232.158 117.252 236.682 114.72 237.768 108C238.854 101.28 235.026 96.8281 229.2 95.6341Z" fill="#D328F9"/>
<path d="M261.954 255.732C261.954 255.732 228.354 191.748 226.164 187.194C223.974 182.64 216.6 173.1 216.6 173.1C216.6 173.1 209.01 168.756 205.536 161.19C202.062 153.624 198.24 126.558 198.24 126.558C198.24 126.558 188.262 122.802 185.88 121.158C183.498 119.514 181.326 104.322 181.326 102.588C181.326 100.854 183.726 97.3797 183.726 97.3797C183.726 97.3797 182.862 93.2697 189.582 90.2277C189.582 90.2277 189.15 83.9337 192.618 82.6017C195.282 81.5757 204.018 80.2497 204.018 80.2497C205.253 79.1645 206.691 78.3346 208.248 77.8077C210.414 77.2077 226.248 81.3297 226.248 81.3297C226.248 81.3297 234.276 81.6957 235.794 82.6017C236.904 83.334 237.915 84.2073 238.8 85.1997C238.8 85.1997 245.958 86.6877 247.476 89.3097C248.994 91.9317 249.642 104.94 248.562 113.394C247.482 121.848 249.42 136.194 249.42 136.194C249.42 136.194 251.658 147.276 253.392 151.482C255.126 155.688 286.8 189.084 286.8 189.084" stroke="#263238" stroke-linecap="round" stroke-linejoin="round"/>
<path d="M233.508 125.676C233.508 125.676 231.99 125.352 230.04 118.194C228.09 111.036 227.574 107.688 223.53 103.446C220.662 100.446 214.098 95.5439 210.846 91.8599C207.594 88.1759 204 85.1999 201.192 87.4799C198.948 89.2799 197.484 93.9539 199.458 101.166C201.996 110.43 210 114.84 210 114.84L211.956 126.492C211.956 126.492 203.466 143.496 213.036 159.546" stroke="#263238" stroke-linecap="round" stroke-linejoin="round"/>
<path d="M219.132 99.4375C219.132 99.4375 223.332 94.4395 229.17 95.6335C235.008 96.8275 238.8 101.274 237.738 108C236.676 114.726 232.128 117.252 229.674 116.856" stroke="#263238" stroke-linecap="round" stroke-linejoin="round"/>
<path d="M204 80.2373C203.123 82.4416 202.448 84.721 201.984 87.0473" stroke="#263238" stroke-linecap="round" stroke-linejoin="round"/>
<path d="M200.448 103.733C200.448 103.733 200.952 111.143 201.996 113.417C203.04 115.691 204.774 117.539 205.53 120.467C206.286 123.395 206.4 127.949 206.616 128.603C206.832 129.257 208.086 129.425 208.086 129.425C209.886 129.467 210.612 128.531 211.65 127.103" stroke="#263238" stroke-linecap="round" stroke-linejoin="round"/>
<path d="M189.6 90.2158C189.6 90.2158 191.226 106.044 192.528 112.77C193.83 119.496 196.128 120.468 199.902 122.64C203.676 124.812 205.758 129.24 206.088 129.906C206.418 130.572 207.654 130.644 207.654 130.644C208.38 130.583 209.08 130.343 209.69 129.944C210.3 129.544 210.8 128.999 211.146 128.358" stroke="#263238" stroke-linecap="round" stroke-linejoin="round"/>
<path d="M183.732 97.3682C183.324 97.9982 186.804 114.072 188.616 118.734C190.428 123.396 190.632 124.134 195.426 125.454C200.22 126.774 203.862 128.97 205.158 128.196" stroke="#263238" stroke-linecap="round" stroke-linejoin="round"/>
<path d="M217.026 88.4756C217.026 88.4756 219.516 94.4396 217.872 98.3636" stroke="#263238" stroke-linecap="round" stroke-linejoin="round"/>
<path d="M226.242 81.3174C230.323 82.9306 234.521 84.2284 238.8 85.1994" stroke="#263238" stroke-linecap="round" stroke-linejoin="round"/>
<path d="M242.73 101.928C242.73 101.928 240.822 105.414 237.93 106.164" stroke="#263238" stroke-linecap="round" stroke-linejoin="round"/>
<path d="M237.924 98.1299C237.924 98.1299 237.24 99.9299 236.514 100.428" stroke="#263238" stroke-linecap="round" stroke-linejoin="round"/>
<path d="M240.324 112.445C240.324 112.445 235.986 115.727 231.822 116.579" stroke="#263238" stroke-linecap="round" stroke-linejoin="round"/>
<path d="M230.04 118.2C230.04 118.2 231.84 120.474 236.514 120.69" stroke="#263238" stroke-linecap="round" stroke-linejoin="round"/>
<path d="M216 108.245C216 108.245 220.248 104.165 222.672 104.729" stroke="#263238" stroke-linecap="round" stroke-linejoin="round"/>
<path d="M224.316 109.073C224.316 109.073 221.1 111.473 220.512 111.473" stroke="#263238" stroke-linecap="round" stroke-linejoin="round"/>
<path d="M191.202 121.8C191.202 121.8 192.27 121.998 193.104 120.708" stroke="#263238" stroke-linecap="round" stroke-linejoin="round"/>
<path d="M195 115.956C195 115.956 197.58 114.36 199.266 114.054" stroke="#263238" stroke-linecap="round" stroke-linejoin="round"/>
<path d="M217.728 170.076C218.262 169.602 223.248 165.57 226.332 164.142" stroke="#263238" stroke-linecap="round" stroke-linejoin="round"/>
<path d="M224.196 168.168C223.842 168.06 221.01 171.024 219.516 172.212" stroke="#263238" stroke-linecap="round" stroke-linejoin="round"/>
<path d="M225.6 176.958C225.6 176.958 235.098 194.958 237.234 202.158" stroke="#263238" stroke-linecap="round" stroke-linejoin="round"/>
<path d="M253.416 151.506C254.22 155.928 256.83 159.186 258.258 160.95" stroke="#263238" stroke-linecap="round" stroke-linejoin="round"/>
<path opacity="0.4" d="M223.476 97.3676C222.096 98.2196 223.548 101.004 224.316 102.426C225.084 103.848 228.516 106.11 229.23 108.246C229.944 110.382 234.456 110.322 235.83 108.246C237.204 106.17 237.03 102.024 233.286 98.8676C229.542 95.7116 225.438 96.1676 223.476 97.3676Z" fill="white"/>
<path d="M197.13 216.942C191.019 215.904 184.737 216.966 179.308 219.956C173.878 222.946 169.622 227.688 167.234 233.407C164.845 239.126 164.464 245.486 166.154 251.45C167.844 257.413 171.504 262.628 176.538 266.244" stroke="#263238" stroke-linecap="round" stroke-linejoin="round"/>
<path d="M208.56 221.725C206.016 219.888 203.174 218.504 200.16 217.633" stroke="#263238" stroke-linecap="round" stroke-linejoin="round"/>
<path d="M205.8 267.948C209.498 265.901 212.672 263.026 215.074 259.548C217.476 256.07 219.042 252.083 219.647 247.9C220.252 243.716 219.882 239.45 218.564 235.433C217.247 231.417 215.018 227.76 212.052 224.748" stroke="#263238" stroke-linecap="round" stroke-linejoin="round"/>
<path d="M207.126 276.6L208.758 278.04L206.214 269.322" stroke="#263238" stroke-linecap="round" stroke-linejoin="round"/>
<path d="M187.926 270.997C191.96 271.689 196.098 271.465 200.034 270.343L205.2 274.903" stroke="#263238" stroke-linecap="round" stroke-linejoin="round"/>
<path d="M181.638 269.137C182.662 269.578 183.712 269.957 184.782 270.271" stroke="#263238" stroke-linecap="round" stroke-linejoin="round"/>
<path d="M194.694 230.635C198.092 231.216 201.15 233.048 203.265 235.77C205.381 238.493 206.401 241.908 206.124 245.345C205.847 248.782 204.294 251.99 201.77 254.339C199.246 256.688 195.935 258.007 192.487 258.037C189.039 258.067 185.706 256.805 183.142 254.499C180.578 252.194 178.97 249.013 178.634 245.582C178.298 242.15 179.259 238.717 181.327 235.959C183.396 233.2 186.422 231.316 189.81 230.677" stroke="#263238" stroke-linecap="round" stroke-linejoin="round"/>
<path d="M189.81 259.309C185.814 258.628 182.251 256.388 179.906 253.081C177.562 249.774 176.626 245.671 177.306 241.675" stroke="#263238" stroke-linecap="round" stroke-linejoin="round"/>
<path d="M206.754 249.433C205.813 252.035 204.183 254.333 202.04 256.083C199.896 257.833 197.318 258.968 194.58 259.369" stroke="#263238" stroke-linecap="round" stroke-linejoin="round"/>
<path d="M178.482 237.858C180.031 234.49 182.751 231.799 186.137 230.287C189.522 228.775 193.341 228.545 196.883 229.639C200.426 230.733 203.45 233.077 205.393 236.235C207.335 239.393 208.064 243.149 207.444 246.804" stroke="#263238" stroke-linecap="round" stroke-linejoin="round"/>
<path d="M201.552 238.728L201.726 238.542" stroke="#263238" stroke-width="2" stroke-linecap="round" stroke-linejoin="round"/>
<path d="M199.104 241.369L200.322 240.055" stroke="#263238" stroke-width="2" stroke-linecap="round" stroke-linejoin="round"/>
<path d="M184.158 243.307L190.044 251.13L198.036 242.521" stroke="#263238" stroke-width="2" stroke-linecap="round" stroke-linejoin="round"/>
</svg>
