<svg width="500" height="500" viewBox="0 0 500 500" fill="none" xmlns="http://www.w3.org/2000/svg">
<path d="M381.33 177.55H371.15V187.73H381.33V177.55Z" fill="#E0E0E0"/>
<path d="M375.66 282.68H365.48V292.86H375.66V282.68Z" fill="#E0E0E0"/>
<path d="M391.76 311.91H376.39V327.28H391.76V311.91Z" fill="#E0E0E0"/>
<path d="M139.76 291.61H124.39V306.98H139.76V291.61Z" fill="#E0E0E0"/>
<path d="M117.68 278.22H107.75V288.15H117.68V278.22Z" fill="#E0E0E0"/>
<path d="M144.73 338.31H134.8V348.24H144.73V338.31Z" fill="#E0E0E0"/>
<path d="M102.91 206.28H95.7197V213.47H102.91V206.28Z" fill="#E0E0E0"/>
<path d="M407.22 193.26H403.42V197.06H407.22V193.26Z" fill="#E0E0E0"/>
<path d="M371 161.25H365.13V167.12H371V161.25Z" fill="#E0E0E0"/>
<path d="M400.79 277.52H394.92V283.39H400.79V277.52Z" fill="#E0E0E0"/>
<path d="M137.07 185.54H127.09V195.52H137.07V185.54Z" fill="#E0E0E0"/>
<path d="M35.5098 182.28L69.9998 182.86L53.1998 161.25L35.5098 182.28Z" fill="#F5F5F5"/>
<path d="M51.5399 199.229H45.6899V205.079H51.5399V199.229Z" fill="#F5F5F5"/>
<path d="M57.1195 205.63H51.2695V211.48H57.1195V205.63Z" fill="#F5F5F5"/>
<path d="M50.1799 213.5H45.6899V217.99H50.1799V213.5Z" fill="#F5F5F5"/>
<path d="M61.0295 200.63H56.5396V205.12H61.0295V200.63Z" fill="#F5F5F5"/>
<path d="M45.69 206.13H42.48V209.34H45.69V206.13Z" fill="#F5F5F5"/>
<path d="M55 223.64H51.25V219.88H55V223.64ZM51.79 223.08H54.44V220.44H51.81L51.79 223.08Z" fill="#F5F5F5"/>
<path d="M60.3999 211.16H57.1899V214.37H60.3999V211.16Z" fill="#F5F5F5"/>
<path d="M60.6199 179.46L44.1699 179.65L43.1099 200.71H61.1099L60.6199 179.46ZM54.8299 197H51.6299V193.8H54.8299V197Z" fill="#F5F5F5"/>
<path d="M43.6797 389.85L99.5197 390.85L72.3097 354.65L43.6797 389.85Z" fill="#EBEBEB"/>
<path d="M69.6099 418.22H60.1499V428H69.6099V418.22Z" fill="#EBEBEB"/>
<path d="M78.6499 428.94H69.1899V438.72H78.6499V428.94Z" fill="#EBEBEB"/>
<path d="M67.4199 442.12H60.1499V449.64H67.4199V442.12Z" fill="#EBEBEB"/>
<path d="M85 420.57H77.73V428.09H85V420.57Z" fill="#EBEBEB"/>
<path d="M60.15 429.78H54.96V435.15H60.15V429.78Z" fill="#EBEBEB"/>
<path d="M75.2597 459.09H69.1597V452.79H75.2597V459.09ZM70.0697 458.16H74.3497V453.72H70.0697V458.16Z" fill="#EBEBEB"/>
<path d="M83.9595 438.19H78.7695V443.56H83.9595V438.19Z" fill="#EBEBEB"/>
<path d="M84.33 385.13L57.69 385.46L56 420.71H85.09L84.33 385.13ZM75 414.46H69.77V409.1H75V414.46Z" fill="#EBEBEB"/>
<path d="M56 76.6002L113.64 77.6002L85.58 41.4502L56 76.6002Z" fill="#E0E0E0"/>
<path d="M82.7895 104.92H73.0195V114.69H82.7895V104.92Z" fill="#E0E0E0"/>
<path d="M92.1196 115.62H82.3496V125.39H92.1196V115.62Z" fill="#E0E0E0"/>
<path d="M80.5195 128.78H73.0195V136.28H80.5195V128.78Z" fill="#E0E0E0"/>
<path d="M98.6699 107.27H91.1699V114.77H98.6699V107.27Z" fill="#E0E0E0"/>
<path d="M73.0197 116.47H67.6597V121.83H73.0197V116.47Z" fill="#E0E0E0"/>
<path d="M88.6098 145.72H82.3198V139.43H88.6098V145.72ZM83.2598 144.79H87.6798V140.37H83.2598V144.79Z" fill="#E0E0E0"/>
<path d="M97.5997 124.86H92.2397V130.22H97.5997V124.86Z" fill="#E0E0E0"/>
<path d="M97.9997 71.8896L70.4997 72.2197L68.7397 107.41H98.7697L97.9997 71.8896ZM88.3298 101.17H82.9997V95.8096H88.3597L88.3298 101.17Z" fill="#E0E0E0"/>
<path d="M363 379.47L412.51 380.3L388.39 349.3L363 379.47Z" fill="#F5F5F5"/>
<path d="M385.96 403.8H377.57V412.19H385.96V403.8Z" fill="#F5F5F5"/>
<path d="M393.97 412.98H385.58V421.37H393.97V412.98Z" fill="#F5F5F5"/>
<path d="M384.02 424.28H377.57V430.73H384.02V424.28Z" fill="#F5F5F5"/>
<path d="M399.6 405.81H393.15V412.26H399.6V405.81Z" fill="#F5F5F5"/>
<path d="M377.56 413.71H372.96V418.31H377.56V413.71Z" fill="#F5F5F5"/>
<path d="M391 438.839H385.6V433.439H391V438.839ZM386.4 438.039H390.2V434.239H386.4V438.039Z" fill="#F5F5F5"/>
<path d="M398.67 420.92H394.07V425.52H398.67V420.92Z" fill="#F5F5F5"/>
<path d="M399 375.42L375.38 375.7L373.86 405.93H399.67L399 375.42ZM390.69 400.57H386.08V396H390.69V400.57Z" fill="#F5F5F5"/>
<path d="M347.13 57.63L396.64 58.46L372.51 27.46L347.13 57.63Z" fill="#F5F5F5"/>
<path d="M370.12 81.96H361.73V90.35H370.12V81.96Z" fill="#F5F5F5"/>
<path d="M378.13 91.1396H369.74V99.5296H378.13V91.1396Z" fill="#F5F5F5"/>
<path d="M368.18 102.44H361.73V108.89H368.18V102.44Z" fill="#F5F5F5"/>
<path d="M383.77 83.9697H377.32V90.4197H383.77V83.9697Z" fill="#F5F5F5"/>
<path d="M361.73 91.8701H357.13V96.4701H361.73V91.8701Z" fill="#F5F5F5"/>
<path d="M375.12 117H369.72V111.6H375.12V117ZM370.52 116.2H374.32V112.4H370.52V116.2Z" fill="#F5F5F5"/>
<path d="M382.84 99.0801H378.24V103.68H382.84V99.0801Z" fill="#F5F5F5"/>
<path d="M383.17 53.5801L359.55 53.8601L358 84.0901H383.82L383.17 53.5801ZM374.86 78.7301H370.26V74.1301H374.86V78.7301Z" fill="#F5F5F5"/>
<path d="M412.89 228.4L469.99 229.4L442.17 193.62L412.89 228.4Z" fill="#EBEBEB"/>
<path d="M439.41 256.46H429.73V266.14H439.41V256.46Z" fill="#EBEBEB"/>
<path d="M448.65 267.06H438.97V276.74H448.65V267.06Z" fill="#EBEBEB"/>
<path d="M437.17 280.09H429.73V287.53H437.17V280.09Z" fill="#EBEBEB"/>
<path d="M455.15 258.78H447.71V266.22H455.15V258.78Z" fill="#EBEBEB"/>
<path d="M429.73 267.9H424.42V273.21H429.73V267.9Z" fill="#EBEBEB"/>
<path d="M445.18 296.88H439V290.65H445.23L445.18 296.88ZM439.87 295.96H444.26V291.57H439.87V295.96Z" fill="#EBEBEB"/>
<path d="M454.08 276.21H448.77V281.52H454.08V276.21Z" fill="#EBEBEB"/>
<path d="M454.46 223.729L427.22 224.059L425.47 258.92H455.24L454.46 223.729ZM444.88 252.729H439.57V247.419H444.88V252.729Z" fill="#EBEBEB"/>
<path d="M476.48 481.38C476.48 481.53 378.48 481.64 257.48 481.64C136.48 481.64 38.48 481.53 38.48 481.38C38.48 481.23 136.48 481.12 257.48 481.12C378.48 481.12 476.48 481.24 476.48 481.38Z" fill="#263238"/>
<path d="M317 481.38L181 481.31C164.64 481.31 151.38 468.65 151.39 453.06L151.45 128.06C151.45 112.46 164.73 99.8103 181.1 99.8203L317.1 99.9003C333.46 99.9003 346.72 112.55 346.71 128.14L346.65 453.14C346.61 468.75 333.34 481.39 317 481.38Z" fill="#263238"/>
<path d="M316 111.33H289.65H212.65H180.26C168.8 111.33 159.5 120.17 159.5 131.1L159.43 448.32C159.43 459.24 168.72 468.1 180.17 468.1L315.94 468.18C327.4 468.18 336.7 459.33 336.7 448.41L336.77 131.18C336.77 120.19 327.49 111.34 316 111.33Z" fill="white"/>
<path d="M306.04 139.41H297.06V147.59H306.04V139.41Z" fill="#D328F9"/>
<path d="M209.12 138.649H205.34V141.629H209.12V138.649Z" fill="#D328F9"/>
<path d="M297.1 133.14H293.32V136.12H297.1V133.14Z" fill="#D328F9"/>
<path d="M266.61 118H260.85V123.33H266.61V118Z" fill="#D328F9"/>
<path d="M206.57 147.729H195.36V157.609H206.57V147.729Z" fill="#D328F9"/>
<path d="M243.27 126.01H239.66V128.99H243.27V126.01Z" fill="#D328F9"/>
<path d="M288.5 133.189H216.78L215.95 294.959H288.5V133.189Z" fill="#D328F9"/>
<path d="M255.84 131.67H248.04V138.11H255.84V131.67Z" fill="white"/>
<path d="M278.21 131.77H270.72V142.37H278.21V131.77Z" fill="white"/>
<path d="M284.39 131.609H279.44V140.549H284.39V131.609Z" fill="white"/>
<path d="M224.57 132.1H217.88V141.63H224.57V132.1Z" fill="white"/>
<path d="M235.16 132.75H231.52V139.41H235.16V132.75Z" fill="white"/>
<path d="M266.94 129.16H259.83V135.02H266.94V129.16Z" fill="#D328F9"/>
<path d="M249.89 88.6899C249.878 89.2805 249.692 89.8545 249.356 90.3399C249.019 90.8253 248.546 91.2005 247.997 91.4184C247.448 91.6363 246.847 91.6872 246.269 91.5647C245.691 91.4423 245.162 91.152 244.748 90.7301C244.335 90.3083 244.055 89.7737 243.944 89.1934C243.833 88.6132 243.896 88.0131 244.125 87.4684C244.353 86.9237 244.738 86.4587 245.23 86.1316C245.722 85.8045 246.299 85.63 246.89 85.6299C247.289 85.6298 247.684 85.7093 248.052 85.8638C248.42 86.0183 248.753 86.2447 249.033 86.5297C249.312 86.8146 249.532 87.1525 249.679 87.5234C249.826 87.8943 249.898 88.2909 249.89 88.6899Z" fill="#D328F9"/>
<path d="M189.96 78.7597C191.628 78.7597 192.98 77.3896 192.98 75.6996C192.98 74.0097 191.628 72.6396 189.96 72.6396C188.292 72.6396 186.94 74.0097 186.94 75.6996C186.94 77.3896 188.292 78.7597 189.96 78.7597Z" fill="#D328F9"/>
<path d="M217.4 134.92H216.4L217.2 83.26H182.34L183.14 82.42C183.37 82.18 188.78 76.42 190.05 75.54L190.64 76.34C189.81 76.96 186.72 80.12 184.64 82.26H218.19L217.4 134.92Z" fill="#D328F9"/>
<path d="M199.19 69.4099C199.23 70.0101 199.088 70.6085 198.784 71.1275C198.48 71.6464 198.026 72.0619 197.483 72.3199C196.94 72.5779 196.331 72.6666 195.737 72.5744C195.142 72.4823 194.589 72.2135 194.149 71.803C193.71 71.3925 193.403 70.8593 193.27 70.2726C193.138 69.6859 193.184 69.0728 193.404 68.5128C193.624 67.9529 194.007 67.4721 194.504 67.1327C195.001 66.7934 195.588 66.6112 196.19 66.6099C196.958 66.5855 197.705 66.8664 198.267 67.391C198.829 67.9157 199.161 68.6415 199.19 69.4099Z" fill="#D328F9"/>
<path d="M204.77 62.3796C204.81 62.9798 204.669 63.5783 204.364 64.0972C204.06 64.6161 203.607 65.0316 203.063 65.2896C202.52 65.5476 201.911 65.6363 201.317 65.5442C200.722 65.452 200.169 65.1832 199.729 64.7727C199.29 64.3623 198.983 63.8291 198.85 63.2423C198.718 62.6556 198.764 62.0425 198.984 61.4826C199.204 60.9226 199.587 60.4418 200.084 60.1024C200.581 59.7631 201.168 59.5809 201.77 59.5796C202.538 59.5553 203.285 59.8361 203.847 60.3608C204.409 60.8854 204.741 61.6112 204.77 62.3796Z" fill="#D328F9"/>
<path d="M222.32 48.8295C223.75 48.8295 224.91 47.5759 224.91 46.0295C224.91 44.4831 223.75 43.2295 222.32 43.2295C220.89 43.2295 219.73 44.4831 219.73 46.0295C219.73 47.5759 220.89 48.8295 222.32 48.8295Z" fill="#D328F9"/>
<path d="M249.6 48.8703C249.596 49.4193 249.43 49.9548 249.122 50.4093C248.814 50.8638 248.378 51.217 247.87 51.4244C247.362 51.6317 246.803 51.684 246.265 51.5744C245.728 51.4649 245.234 51.1986 244.847 50.809C244.46 50.4194 244.198 49.9241 244.092 49.3853C243.986 48.8466 244.043 48.2887 244.254 47.7819C244.465 47.2751 244.821 46.8421 245.278 46.5375C245.734 46.2329 246.271 46.0703 246.82 46.0703C247.559 46.0756 248.266 46.3729 248.787 46.8975C249.308 47.422 249.6 48.1312 249.6 48.8703Z" fill="#D328F9"/>
<path d="M255.35 26.0002C255.344 26.5467 255.176 27.0793 254.869 27.5309C254.561 27.9824 254.126 28.3328 253.619 28.5379C253.113 28.7429 252.557 28.7935 252.021 28.6833C251.486 28.573 250.995 28.3069 250.611 27.9183C250.226 27.5297 249.966 27.0361 249.861 26.4997C249.757 25.9632 249.813 25.4078 250.024 24.9033C250.234 24.3989 250.589 23.9681 251.044 23.665C251.499 23.362 252.033 23.2002 252.58 23.2002C253.318 23.2055 254.024 23.5031 254.543 24.0279C255.063 24.5528 255.353 25.262 255.35 26.0002Z" fill="#D328F9"/>
<path d="M270.03 33.56C271.527 33.56 272.74 32.3064 272.74 30.76C272.74 29.2136 271.527 27.96 270.03 27.96C268.533 27.96 267.32 29.2136 267.32 30.76C267.32 32.3064 268.533 33.56 270.03 33.56Z" fill="#D328F9"/>
<path d="M299 56.7299C298.959 57.2332 298.773 57.7137 298.464 58.1128C298.154 58.5118 297.735 58.8122 297.258 58.9772C296.781 59.1422 296.266 59.1646 295.776 59.0418C295.287 58.9191 294.843 58.6563 294.5 58.2857C294.157 57.9151 293.93 57.4526 293.845 56.9548C293.761 56.457 293.823 55.9454 294.025 55.4824C294.226 55.0194 294.558 54.6251 294.98 54.3477C295.402 54.0702 295.895 53.9216 296.4 53.9199C296.756 53.9328 297.105 54.0158 297.428 54.1642C297.752 54.3125 298.043 54.5233 298.284 54.7845C298.526 55.0456 298.713 55.3519 298.836 55.6857C298.959 56.0196 299.015 56.3745 299 56.7299Z" fill="#D328F9"/>
<path d="M260.06 63.5695C260.04 64.0988 259.865 64.6107 259.557 65.0414C259.249 65.472 258.82 65.8025 258.326 65.9916C257.831 66.1807 257.291 66.2201 256.774 66.1049C256.257 65.9897 255.786 65.725 255.418 65.3437C255.05 64.9624 254.803 64.4814 254.707 63.9606C254.61 63.4397 254.669 62.9021 254.876 62.4145C255.083 61.9269 255.429 61.511 255.871 61.2185C256.312 60.926 256.83 60.7699 257.36 60.7695C257.721 60.776 258.077 60.8536 258.408 60.9979C258.74 61.1421 259.039 61.3502 259.29 61.6102C259.541 61.8702 259.738 62.1771 259.87 62.5133C260.002 62.8495 260.066 63.2084 260.06 63.5695Z" fill="#D328F9"/>
<path d="M272.06 62.6499C272.038 63.1791 271.862 63.6902 271.552 64.1198C271.242 64.5493 270.812 64.8781 270.317 65.0654C269.821 65.2527 269.282 65.2901 268.765 65.173C268.249 65.056 267.778 64.7895 267.412 64.4069C267.045 64.0243 266.8 63.5425 266.705 63.0213C266.611 62.5001 266.672 61.9627 266.881 61.4759C267.089 60.9891 267.437 60.5744 267.879 60.2835C268.322 59.9926 268.84 59.8383 269.37 59.8399C269.731 59.8463 270.088 59.9243 270.419 60.0693C270.751 60.2143 271.05 60.4234 271.3 60.6847C271.55 60.9459 271.746 61.254 271.876 61.5913C272.007 61.9286 272.069 62.2884 272.06 62.6499Z" fill="#D328F9"/>
<path d="M305.21 69.6C306.64 69.6 307.8 68.3464 307.8 66.8C307.8 65.2536 306.64 64 305.21 64C303.779 64 302.62 65.2536 302.62 66.8C302.62 68.3464 303.779 69.6 305.21 69.6Z" fill="#D328F9"/>
<path d="M263.57 20.0002C263.564 20.5472 263.396 21.0801 263.088 21.5319C262.779 21.9837 262.344 22.334 261.837 22.5388C261.329 22.7436 260.773 22.7936 260.237 22.6825C259.702 22.5714 259.211 22.3043 258.827 21.9147C258.443 21.5252 258.183 21.0307 258.08 20.4935C257.976 19.9564 258.034 19.4007 258.246 18.8964C258.458 18.3922 258.815 17.962 259.271 17.6602C259.727 17.3583 260.263 17.1983 260.81 17.2002C261.546 17.2081 262.25 17.5069 262.767 18.0315C263.284 18.556 263.572 19.2637 263.57 20.0002Z" fill="#D328F9"/>
<path d="M236.19 138.91H235.19V106C234.35 105.37 230.07 102.79 227.4 101.2L227.15 101.06V75.6702L207.27 75.4402L198.27 69.3202L198.84 68.4902L207.55 74.4902L228.12 74.7202V100.53C236.12 105.3 236.12 105.46 236.12 105.82L236.19 138.91Z" fill="#D328F9"/>
<path d="M248.08 136.699H247.08V102.589L237.44 95.8295V65.9195L215.87 51.7495C211.75 55.5895 205.78 61.1995 205.46 61.5795L204.69 60.9295C205.14 60.3995 214.42 51.7295 215.47 50.7495L215.76 50.4795L238.45 65.3795V95.3095L248.09 102.069L248.08 136.699Z" fill="#D328F9"/>
<path d="M247.38 89.3096H246.38V58.0996L260.4 49.0196V22.6396H261.4V49.5597L247.38 58.6396V89.3096Z" fill="#D328F9"/>
<path d="M247.32 48.87H246.32V34.89L252.08 32.04V25.96H253.08V32.66L247.32 35.51V48.87Z" fill="#D328F9"/>
<path d="M256.79 137.559H255.79V99.4694L263.81 92.3894V87.4694L257.09 81.3894V65.6494H258.09V80.9394L264.81 87.0294V92.8394L256.79 99.9194V137.559Z" fill="#D328F9"/>
<path d="M270.72 62.6494H269.72V140.859H270.72V62.6494Z" fill="#D328F9"/>
<path d="M279.32 142.12H278.32L278.51 74.8202L291.71 66.4502H305.54V67.4502H292L279.51 75.3802L279.32 142.12Z" fill="#D328F9"/>
<path d="M288.6 149.48H287.6V81.72L319.24 80.91L305.87 68.69L306.54 67.96L321.75 81.85L288.6 82.69V149.48Z" fill="#D328F9"/>
<path d="M297 57.3498L285.19 55.1698L271 40.5298V40.3798C270.6 38.2498 269.31 31.2598 269.31 30.7598H270.31C270.31 31.1898 271.31 36.6298 271.95 40.0598L285.78 54.2498L297.28 56.3798L297 57.3498Z" fill="#D328F9"/>
<path d="M224.1 45.3498L223.8 44.3998L231.87 41.8398L238.29 35.4498L232.94 31.8198L252.56 11.5898L260.39 18.7098L259.72 19.4498L252.6 12.9798L234.49 31.6598L239.86 35.2998L232.4 42.7198L224.1 45.3498Z" fill="#D328F9"/>
<path d="M306.04 157.609H298.44V165.209H306.04V157.609Z" fill="#D328F9"/>
<path d="M191.61 145.59H183V137H191.61V145.59ZM184 144.59H190.61V138H184V144.59Z" fill="#D328F9"/>
<path d="M136.42 232.189H121.22V247.389H136.42V232.189Z" fill="#263238"/>
<path d="M379.48 234.18H364.28V249.38H379.48V234.18Z" fill="#263238"/>
<path d="M356.98 203.93H353.18V207.73H356.98V203.93Z" fill="#263238"/>
<path d="M318.24 193.229H310.87V200.6H318.24V193.229Z" fill="#455A64"/>
<path d="M309.04 186.17H304.54V190.67H309.04V186.17Z" fill="#455A64"/>
<path d="M325.11 172.26H319.62V166.76H325.11V172.26ZM320.62 171.26H324.11V167.76H320.62V171.26Z" fill="#455A64"/>
<path d="M367.56 216.15H360.68V209.28H367.56V216.15ZM361.68 215.15H366.56V210.28H361.68V215.15Z" fill="#263238"/>
<path d="M106.48 231.53H99.6099V224.66H106.48V231.53ZM100.61 230.53H105.48V225.66H100.61V230.53Z" fill="#263238"/>
<path d="M185.68 215.96H175.7V225.94H185.68V215.96Z" fill="#455A64"/>
<path d="M190.74 199.42H185.67V204.49H190.74V199.42Z" fill="#455A64"/>
<path d="M136.35 165.45H131.28V170.52H136.35V165.45Z" fill="#263238"/>
<path d="M387.65 253.33H382.58V258.4H387.65V253.33Z" fill="#263238"/>
<path d="M121.86 257.63H116.79V262.7H121.86V257.63Z" fill="#263238"/>
<path d="M179.92 187.09H171.29V195.72H179.92V187.09Z" fill="#455A64"/>
<path d="M202.82 183.45H195V175.6H202.86L202.82 183.45ZM195.96 182.45H201.82V176.6H196L195.96 182.45Z" fill="#455A64"/>
<path d="M213.58 271.28L170.01 292.08L178.56 399.27L177.57 468.1L312.42 468.18L311.68 408.8L315.51 384.84L333.53 292.08L282.63 269.94L272.42 263.06L221.67 263.18L213.58 271.28Z" fill="#E0E0E0"/>
<g opacity="0.2">
<path d="M177.35 441.129C179.6 443.979 183.87 444.129 187.43 443.379C199.43 440.989 210.32 432.379 222.43 433.819C230.18 434.759 237.73 439.819 245.23 437.669C247.82 436.929 250.16 435.349 252.82 434.979C256.72 434.439 260.42 436.539 263.91 438.349C278.74 446.026 295.316 449.697 312 448.999L318.81 430.859L257.81 415.039L208.92 412.239L177.4 430.659L177.35 441.129Z" fill="black"/>
</g>
<path d="M242.58 468.099C242.44 468.099 243.17 430.979 244.22 385.209C245.27 339.439 246.22 302.309 246.38 302.319C246.54 302.329 245.79 339.429 244.74 385.219C243.69 431.009 242.73 468.109 242.58 468.099Z" fill="#263238"/>
<path d="M331.62 292.08C331.62 292.08 343.1 295.19 349.14 320.15C351.69 330.65 364.96 418.15 363.14 430.33C361.32 442.51 342.92 454.88 315.39 451.06C300.2 448.95 274.05 435.6 274.05 435.6L294.22 408.71H313.6L321.26 402.97L315.08 379.26C315.08 379.26 327.12 299.77 331.62 292.08Z" fill="#E0E0E0"/>
<path d="M349.14 404.169C349.09 404.259 347.69 403.329 345.28 402.169C342.16 400.56 338.77 399.543 335.28 399.169C333.367 399.02 331.443 399.131 329.56 399.499L328.3 399.789C327.9 399.899 327.52 400.039 327.14 400.149C326.46 400.377 325.792 400.641 325.14 400.939C322.7 402.059 321.34 403.069 321.28 402.939C321.563 402.663 321.875 402.419 322.21 402.209C323.089 401.594 324.015 401.049 324.98 400.579C325.646 400.247 326.335 399.959 327.04 399.719C327.42 399.589 327.81 399.429 328.22 399.319L329.5 398.999C331.425 398.594 333.398 398.466 335.36 398.619C338.908 398.977 342.347 400.048 345.47 401.769C346.416 402.272 347.334 402.826 348.22 403.429C348.555 403.638 348.864 403.886 349.14 404.169Z" fill="#263238"/>
<path d="M300.82 408.8C301.099 408.741 301.385 408.717 301.67 408.73L304.04 408.66L312.53 408.57H312.41L320.08 403.63L320.01 403.69C320.53 403.08 321.06 402.42 321.68 401.82C322.778 400.678 323.991 399.652 325.3 398.76C328.58 396.488 332.348 395.018 336.3 394.47C337.955 394.234 339.631 394.174 341.3 394.29C341.89 394.34 342.3 394.42 342.65 394.46C342.81 394.471 342.969 394.504 343.12 394.56C342.509 394.573 341.898 394.553 341.29 394.5C337.167 394.382 333.076 395.242 329.35 397.01C328.044 397.626 326.793 398.352 325.61 399.18C324.33 400.055 323.143 401.061 322.07 402.18C321.47 402.77 320.95 403.42 320.44 404.01L312.65 409H312.58L304.09 408.91L301.72 408.85C301.419 408.859 301.118 408.842 300.82 408.8Z" fill="#263238"/>
<path d="M246.38 302.319C246.394 302.365 246.394 302.414 246.38 302.459C246.377 302.492 246.366 302.523 246.349 302.551C246.331 302.579 246.308 302.602 246.28 302.619C246.239 302.637 246.194 302.646 246.15 302.646C246.105 302.646 246.061 302.637 246.02 302.619C245.524 302.397 245.073 302.085 244.69 301.699C243.233 300.324 241.857 298.865 240.57 297.329C237.21 293.449 232.73 287.809 227.71 281.159H228.08C227.587 281.836 227.181 282.572 226.87 283.349C226.5 284.149 226.16 284.989 225.87 285.829C225.2 287.529 224.56 289.289 223.94 291.079C222.88 294.199 221.86 297.259 221.17 300.169L221.02 300.789L220.7 300.249C217.035 293.987 214.704 287.035 213.85 279.829C213.599 277.735 213.482 275.628 213.5 273.519C213.5 272.779 213.5 272.209 213.57 271.829C213.571 271.632 213.588 271.434 213.62 271.239C213.643 271.435 213.643 271.633 213.62 271.829C213.62 272.209 213.62 272.779 213.62 273.519C213.668 275.617 213.831 277.71 214.11 279.789C215.069 286.923 217.45 293.792 221.11 299.989L220.64 300.059C221.34 297.059 222.35 294.059 223.42 290.909C224.04 289.109 224.68 287.339 225.36 285.639C225.7 284.789 226.04 283.959 226.41 283.139C226.746 282.303 227.193 281.516 227.74 280.799L227.93 280.579L228.12 280.829C233.12 287.499 237.54 293.169 240.82 297.089C242.46 299.089 243.82 300.579 244.82 301.539C245.176 301.938 245.595 302.276 246.06 302.539C246.23 302.609 246.34 302.539 246.36 302.439C246.38 302.339 246.36 302.309 246.38 302.319Z" fill="#263238"/>
<path d="M282.63 269.939C282.669 270.117 282.685 270.298 282.68 270.479C282.68 270.839 282.68 271.359 282.68 272.049C282.68 273.409 282.6 275.409 282.38 277.889C281.98 282.889 280.8 289.789 279.55 297.749L279.46 298.339L279.1 297.859C277.31 295.489 275.58 292.859 273.79 290.079C272.39 287.939 271.01 285.859 269.56 283.929L269.91 283.979C263 288.979 256.79 293.149 252.74 296.649C250.69 298.349 249.1 299.779 248.02 300.779L246.79 301.929C246.654 302.07 246.507 302.201 246.35 302.319C246.35 302.319 246.46 302.149 246.72 301.869C246.98 301.589 247.38 301.169 247.9 300.649C248.9 299.649 250.5 298.139 252.53 296.389C256.53 292.819 262.71 288.579 269.62 283.559L269.82 283.419L269.97 283.619C271.43 285.559 272.83 287.619 274.23 289.799C276.01 292.539 277.73 295.199 279.5 297.559L279.05 297.669C280.34 289.669 281.57 282.819 282.05 277.859C282.31 275.389 282.45 273.409 282.5 272.039C282.5 271.359 282.5 270.839 282.5 270.479C282.525 270.296 282.569 270.115 282.63 269.939Z" fill="#263238"/>
<path d="M308.55 345.479C308.55 345.619 300.62 345.009 290.87 344.119C281.12 343.229 273.22 342.389 273.24 342.239C273.26 342.089 281.16 342.709 290.92 343.599C300.68 344.489 308.56 345.329 308.55 345.479Z" fill="#263238"/>
<path d="M220.93 224.92C218.02 216.33 215.15 207.68 213.76 198.73C212.37 189.78 212.54 180.42 215.59 171.89C216.05 170.59 220.03 161.89 221.39 162.02C222.39 162.11 219.96 170.2 220.46 171.02C225.28 179.02 226.68 188.78 226.04 198.13C225.334 207.215 223.62 216.194 220.93 224.9" fill="#263238"/>
<path d="M294.72 186.83C294.317 176.628 290.088 166.951 282.874 159.724C275.661 152.498 265.992 148.252 255.79 147.83L253.69 147.75C230.96 148.14 218.6 167.65 219.61 190.36L221.73 265.52L246.35 299.64L272.35 271.39C272.35 264.99 272.35 263.06 272.4 263.06C272.45 263.06 294.33 260.57 295.5 238.79C296.09 228.27 295.49 206.51 294.72 186.83Z" fill="#FFBF9D"/>
<path d="M272.42 263.06C272.42 263.06 258.65 263.3 244.42 253.5C244.42 253.5 250.57 270.16 272.42 269.1V263.06Z" fill="#FF9A6C"/>
<path d="M284.55 206.329C284.519 207.139 284.174 207.905 283.587 208.465C283.001 209.025 282.22 209.335 281.41 209.329C281.013 209.341 280.618 209.275 280.248 209.133C279.877 208.991 279.539 208.778 279.251 208.504C278.964 208.231 278.734 207.903 278.574 207.54C278.414 207.177 278.328 206.786 278.32 206.389C278.348 205.58 278.691 204.814 279.276 204.254C279.86 203.694 280.64 203.384 281.45 203.389C281.847 203.376 282.243 203.442 282.615 203.583C282.986 203.724 283.326 203.937 283.615 204.211C283.903 204.484 284.134 204.813 284.295 205.176C284.455 205.54 284.542 205.932 284.55 206.329Z" fill="#263238"/>
<path d="M289.69 196.26C289.28 196.65 287 194.81 283.69 194.68C280.38 194.55 277.82 196.12 277.47 195.68C277.3 195.49 277.72 194.77 278.83 194.04C280.321 193.096 282.067 192.635 283.83 192.72C285.571 192.788 287.244 193.408 288.61 194.49C289.57 195.34 289.88 196.09 289.69 196.26Z" fill="#263238"/>
<path d="M254.7 206.329C254.671 207.138 254.328 207.905 253.744 208.465C253.159 209.025 252.38 209.335 251.57 209.329C251.174 209.341 250.779 209.275 250.408 209.133C250.038 208.991 249.699 208.778 249.411 208.504C249.124 208.231 248.894 207.903 248.734 207.54C248.574 207.177 248.488 206.786 248.48 206.389C248.509 205.582 248.85 204.817 249.432 204.258C250.015 203.698 250.792 203.386 251.6 203.389C251.997 203.376 252.393 203.442 252.765 203.583C253.137 203.724 253.477 203.937 253.765 204.211C254.053 204.484 254.285 204.813 254.445 205.176C254.606 205.54 254.692 205.932 254.7 206.329Z" fill="#263238"/>
<path d="M257.55 196.26C257.14 196.65 254.86 194.81 251.55 194.68C248.24 194.55 245.68 196.12 245.33 195.68C245.16 195.49 245.58 194.77 246.69 194.04C248.181 193.096 249.927 192.635 251.69 192.72C253.431 192.788 255.104 193.408 256.47 194.49C257.42 195.34 257.74 196.09 257.55 196.26Z" fill="#263238"/>
<path d="M267.78 221.91C267.78 221.72 269.87 221.44 273.26 221.15C274.12 221.1 274.94 220.96 275.1 220.38C275.211 219.503 275.051 218.613 274.64 217.83L272.38 211.21C269.25 201.8 267.02 194.07 267.38 193.95C267.74 193.83 270.61 201.35 273.73 210.77C274.49 213.09 275.2 215.3 275.89 217.42C276.378 218.474 276.485 219.666 276.19 220.79C276.054 221.087 275.852 221.348 275.599 221.555C275.345 221.761 275.048 221.907 274.73 221.98C274.252 222.093 273.761 222.143 273.27 222.13C269.89 222.17 267.79 222.1 267.78 221.91Z" fill="#263238"/>
<path d="M257.54 188.9C257.09 189.75 254.24 188.78 250.72 188.61C247.2 188.44 244.23 188.98 243.92 188.1C243.79 187.67 244.43 186.92 245.71 186.26C247.359 185.47 249.186 185.125 251.01 185.26C252.819 185.344 254.573 185.91 256.09 186.9C257.24 187.68 257.75 188.5 257.54 188.9Z" fill="#263238"/>
<path d="M290.25 183.63C289.53 184.37 286.82 183.51 283.54 183.38C280.26 183.25 277.47 183.74 276.86 182.92C276.59 182.53 277.04 181.78 278.28 181.09C279.981 180.268 281.862 179.89 283.748 179.989C285.635 180.089 287.465 180.664 289.07 181.66C290.2 182.47 290.56 183.26 290.25 183.63Z" fill="#263238"/>
<path d="M220.73 206.559C220.36 206.389 205.94 201.559 205.8 216.429C205.66 231.299 220.66 228.429 220.69 227.979C220.72 227.529 220.73 206.559 220.73 206.559Z" fill="#FFBF9D"/>
<path d="M216.19 222.29C216.12 222.29 215.93 222.47 215.49 222.67C214.849 222.934 214.13 222.934 213.49 222.67C211.92 222.08 210.62 219.56 210.57 216.87C210.545 215.591 210.808 214.323 211.34 213.16C211.483 212.687 211.74 212.258 212.089 211.909C212.438 211.56 212.868 211.303 213.34 211.16C213.64 211.086 213.956 211.119 214.235 211.252C214.514 211.385 214.738 211.61 214.87 211.89C215.06 212.31 214.96 212.61 215.04 212.63C215.12 212.65 215.37 212.38 215.25 211.77C215.17 211.399 214.965 211.067 214.67 210.83C214.262 210.518 213.75 210.374 213.24 210.43C212.626 210.546 212.052 210.818 211.572 211.219C211.093 211.62 210.724 212.136 210.5 212.72C209.854 214.006 209.532 215.43 209.56 216.87C209.63 219.87 211.14 222.7 213.29 223.35C213.689 223.467 214.11 223.495 214.521 223.431C214.933 223.367 215.325 223.213 215.67 222.98C216.16 222.65 216.24 222.32 216.19 222.29Z" fill="#FF9A6C"/>
<path d="M285.08 162.11C287.49 160.78 280.25 152.96 274.32 150.27C265.32 146.19 251.67 143.68 243.4 146.02C233.4 148.84 225.17 153.79 220.17 162.84C215.17 171.89 213.29 182.45 213.57 192.84C213.66 195.99 213.98 199.28 215.67 201.95C217.75 205.25 221.74 207.33 221.57 211.88C221.513 212.702 221.62 213.528 221.885 214.309C222.149 215.09 222.565 215.811 223.11 216.43C225.84 219.34 229.18 216.61 230.72 213.88C234 208.04 234.37 201.06 234.66 194.37C234.87 189.61 235.06 184.75 233.73 180.18C233 177.69 231.83 175.34 231.24 172.82C230.65 170.3 230.72 167.43 232.3 165.37C232.663 164.925 233.069 164.517 233.51 164.15C235.59 162.335 238.116 161.107 240.828 160.592C243.539 160.077 246.34 160.294 248.94 161.22C257.34 164.22 271.68 168.64 275.43 165.79C280.83 161.7 282.12 159.02 282.12 159.02L285.08 162.11Z" fill="#263238"/>
<path d="M257.26 224C257.78 224 257.8 227.39 260.74 229.81C263.68 232.23 267.33 231.81 267.36 232.31C267.41 232.53 266.55 232.98 265.01 233.03C263.001 233.071 261.043 232.401 259.48 231.14C257.985 229.923 257.02 228.174 256.79 226.26C256.65 224.81 257 224 257.26 224Z" fill="#263238"/>
<path d="M170 292.08C170 292.08 157.12 302.5 153.79 317.77C150.46 333.04 132.17 403.31 131.71 413.67C131.25 424.03 131.71 446.1 150.86 446.55C170.01 447 218.48 424.66 218.48 424.66L209.23 396.66L179.01 397.49L170 292.08Z" fill="#E0E0E0"/>
<path d="M209.24 396.619C208.997 396.676 208.749 396.71 208.5 396.719L206.38 396.879L198.55 397.389L186.94 398.069L180.09 398.459C177.647 398.545 175.212 398.786 172.8 399.179C171.538 399.38 170.252 399.38 168.99 399.179C167.76 399.029 166.57 398.809 165.4 398.699C163.14 398.552 160.87 398.751 158.67 399.289C154.935 400.253 151.481 402.086 148.59 404.639C146.624 406.348 144.896 408.313 143.45 410.479C142.93 411.239 142.56 411.849 142.32 412.269C142.207 412.494 142.069 412.705 141.91 412.899C141.991 412.661 142.098 412.433 142.23 412.219C142.542 411.582 142.893 410.964 143.28 410.369C144.681 408.145 146.384 406.125 148.34 404.369C151.256 401.736 154.761 399.84 158.56 398.839C160.81 398.272 163.134 398.056 165.45 398.199C166.65 398.309 167.84 398.529 169.06 398.679C170.266 398.865 171.494 398.865 172.7 398.679C175.138 398.277 177.6 398.037 180.07 397.959L186.92 397.609L198.53 397.029L206.37 396.689L208.5 396.619C208.747 396.602 208.994 396.602 209.24 396.619Z" fill="#263238"/>
<path d="M179.84 397.43C179.785 397.207 179.751 396.98 179.74 396.75C179.69 396.24 179.62 395.59 179.54 394.75C179.38 392.98 179.14 390.52 178.86 387.52C178.27 381.41 177.36 372.99 176.33 363.68C175.3 354.37 174.45 346 174 339.85C173.75 336.79 173.57 334.32 173.48 332.6C173.48 331.79 173.41 331.13 173.38 330.6C173.367 330.37 173.367 330.14 173.38 329.91C173.444 330.132 173.481 330.36 173.49 330.59C173.54 331.09 173.6 331.74 173.68 332.59C173.85 334.35 174.08 336.81 174.37 339.82C174.95 345.92 175.87 354.35 176.89 363.66C177.91 372.97 178.77 381.4 179.27 387.51C179.52 390.57 179.69 393.05 179.79 394.76C179.79 395.58 179.86 396.23 179.88 396.76C179.892 396.984 179.878 397.209 179.84 397.43Z" fill="#263238"/>
<path d="M216.65 425.489C216.505 425.599 216.351 425.696 216.19 425.779L214.82 426.519C213.63 427.159 211.88 428.019 209.69 429.039C205.32 431.039 199.17 433.699 192.26 436.249C185.35 438.799 179 440.849 174.35 442.169C172.03 442.839 170.14 443.319 168.83 443.639L167.31 443.979C167.135 444.031 166.953 444.057 166.77 444.059C166.935 443.978 167.11 443.917 167.29 443.879L168.78 443.439C170.07 443.069 171.95 442.529 174.25 441.819C178.86 440.409 185.18 438.319 192.08 435.759C198.98 433.199 205.08 430.659 209.54 428.709C211.74 427.709 213.54 426.919 214.73 426.339L216.14 425.679C216.3 425.591 216.472 425.527 216.65 425.489Z" fill="#263238"/>
<path d="M325.89 314.069C325.903 314.152 325.903 314.237 325.89 314.319C325.89 314.509 325.89 314.749 325.82 315.039C325.75 315.719 325.65 316.649 325.53 317.819C325.27 320.229 324.85 323.709 324.31 328.009C323.23 336.609 321.6 348.479 319.59 361.549C317.58 374.619 315.59 386.439 314.17 394.989C313.43 399.229 312.82 402.669 312.4 405.099C312.19 406.259 312.02 407.179 311.89 407.839C311.83 408.129 311.78 408.369 311.75 408.559C311.737 408.642 311.713 408.723 311.68 408.799C311.665 408.717 311.665 408.632 311.68 408.549C311.68 408.349 311.74 408.119 311.78 407.829C311.88 407.149 312.02 406.229 312.19 405.069C312.58 402.629 313.12 399.179 313.79 394.929C315.16 386.369 317.07 374.549 319.07 361.469C321.07 348.389 322.77 336.549 324 327.999C324.58 323.739 325.05 320.279 325.38 317.829C325.54 316.669 325.67 315.739 325.77 315.069C325.77 314.779 325.85 314.539 325.88 314.349C325.867 314.256 325.87 314.161 325.89 314.069Z" fill="#263238"/>
<path d="M325.51 451.94C325.327 451.964 325.142 451.964 324.96 451.94L323.38 451.8C322.01 451.67 320.04 451.41 317.61 451.02C311.278 449.979 305.029 448.489 298.91 446.56C295.33 445.42 291.91 444.19 288.91 442.98C285.91 441.77 283.22 440.55 281.02 439.45C279.91 438.92 278.92 438.4 278.02 437.94C277.12 437.48 276.41 437.08 275.82 436.73L274.45 435.93C274.285 435.844 274.131 435.74 273.99 435.62C274.171 435.674 274.345 435.748 274.51 435.84L275.92 436.55C276.52 436.88 277.27 437.25 278.15 437.68C279.03 438.11 280.02 438.61 281.15 439.11C283.36 440.17 286.05 441.31 289.06 442.53C292.07 443.75 295.44 444.93 299.01 446.06C305.107 447.979 311.32 449.512 317.61 450.65C320.03 451.09 321.99 451.41 323.35 451.6L324.91 451.84C325.114 451.84 325.317 451.874 325.51 451.94Z" fill="#263238"/>
<g opacity="0.2">
<path d="M279.29 298.24C275.74 293.95 273.36 288.44 270.35 283.77C261.679 289.032 253.628 295.255 246.35 302.32C253.35 298.32 260.35 294.63 267.16 290.32L279.81 306.7C280.07 301.406 280.337 296.113 280.61 290.82L279.29 298.24Z" fill="black"/>
</g>
<g opacity="0.2">
<path d="M316.17 381.63C316.32 380.93 316.47 380.2 316.62 379.47L315.75 381.63H316.17Z" fill="black"/>
</g>
<g opacity="0.2">
<path d="M324.63 322.359C322.35 339.959 320.27 361.779 316.63 379.469C320.13 370.699 323.54 361.859 325.47 352.629C327.55 342.629 327.84 332.049 324.63 322.359Z" fill="black"/>
</g>
<path d="M212.56 379.26C212.56 379.26 206.46 382.38 205.56 384.9C205.048 386.595 205.048 388.404 205.56 390.1L208.86 400.95V412.24C208.86 412.24 211.51 423.71 214.03 424.88C216.55 426.05 221.03 425.88 224.03 421.16C225.742 418.478 227.087 415.579 228.03 412.54L233.23 390.99L234.72 379.99L220.6 387.27L216.6 392.75L212.7 386.53C212.7 386.53 215.88 383.41 215.63 381.47C215.38 379.53 212.56 379.26 212.56 379.26Z" fill="#FFBF9D"/>
<path d="M209.26 387.399C209.26 387.249 210.09 387.259 211.04 387.059C211.99 386.859 212.73 386.529 212.81 386.659C212.89 386.789 212.2 387.349 211.15 387.569C210.1 387.789 209.23 387.529 209.26 387.399Z" fill="#FF9A6C"/>
<path d="M215.64 417.249L216.64 371.449C216.638 369.904 217.233 368.417 218.301 367.3C219.368 366.182 220.826 365.519 222.37 365.449L300.56 363.729C301.484 363.74 302.395 363.961 303.221 364.376C304.047 364.792 304.768 365.39 305.328 366.126C305.888 366.861 306.273 367.715 306.454 368.622C306.634 369.529 306.606 370.465 306.37 371.359L294.65 421.199C294.363 422.539 293.619 423.737 292.547 424.588C291.474 425.44 290.139 425.893 288.77 425.869L221.3 423.549C219.715 423.462 218.229 422.749 217.169 421.569C216.108 420.388 215.558 418.835 215.64 417.249Z" fill="#263238"/>
<path d="M265 377.56L264.38 377.46C263.571 377.411 262.773 377.675 262.153 378.197C261.533 378.72 261.138 379.461 261.048 380.267C260.959 381.073 261.183 381.882 261.674 382.527C262.165 383.173 262.886 383.605 263.686 383.734C264.487 383.863 265.306 383.679 265.975 383.221C266.644 382.763 267.111 382.065 267.28 381.272C267.449 380.479 267.306 379.651 266.882 378.96C266.458 378.269 265.784 377.768 265 377.56Z" fill="white"/>
<path d="M298 368.87C298 369.02 281.28 369.42 260.65 369.77C240.02 370.12 223.3 370.3 223.29 370.15C223.28 370 240.01 369.61 260.64 369.25C281.27 368.89 298 368.73 298 368.87Z" fill="#455A64"/>
<path d="M236.7 379.42C236.7 379.42 241.04 375.09 246.2 377.98C251.36 380.87 268.72 393.26 274.71 394.91C280.7 396.56 286.71 397.81 291.23 394.91C295.75 392.01 299.08 388.3 299.29 384.59C299.5 380.88 301.76 372.81 306.72 372.59L309.2 374.45C309.2 374.45 308.2 386.45 308.2 391.59C308.2 396.73 303.62 404 303.62 404L300.29 409.71L302 416C302 416 299.93 425.5 294.77 430.46C289.61 435.42 279.45 435.62 279.45 435.62L246.45 414.97L215.68 405.88C215.68 405.88 216.5 401.75 220.68 401.54C224.86 401.33 231.63 404.12 231.63 404.12L215.64 392C215.916 390.741 216.679 389.643 217.762 388.946C218.845 388.249 220.161 388.009 221.42 388.28C226.42 388.9 244.14 399.28 244.14 399.28L226 381.08C226 381.08 225.59 376.33 229.93 376.08C231.241 376.067 232.537 376.363 233.713 376.943C234.889 377.523 235.912 378.372 236.7 379.42Z" fill="#FFBF9D"/>
<path d="M262.34 399.56C261.944 399.394 261.568 399.182 261.22 398.93C260.51 398.5 259.5 397.86 258.22 397.05C255.75 395.43 252.34 393.15 248.72 390.45C245.599 388.173 242.632 385.691 239.84 383.02C238.78 382.02 237.97 381.09 237.44 380.46C237.148 380.153 236.887 379.818 236.66 379.46C237.001 379.727 237.312 380.028 237.59 380.36C238.16 380.95 239.01 381.8 240.09 382.79C242.942 385.37 245.926 387.8 249.03 390.07C252.64 392.77 256.03 395.07 258.43 396.79L261.29 398.79C261.667 399.008 262.019 399.266 262.34 399.56Z" fill="#FF9A6C"/>
<path d="M251.38 404.069C249.693 403.448 248.115 402.567 246.7 401.459C245.196 400.491 243.848 399.301 242.7 397.929C242.81 397.819 244.64 399.349 247.04 401.039C249.44 402.729 251.45 403.939 251.38 404.069Z" fill="#FF9A6C"/>
<path d="M246.44 412.31C243.511 411.006 240.654 409.547 237.88 407.94C235.026 406.488 232.255 404.879 229.58 403.12C232.505 404.426 235.359 405.884 238.13 407.49C240.988 408.941 243.762 410.55 246.44 412.31Z" fill="#FF9A6C"/>
<path d="M300.47 236.79L325.78 237.22L313.45 221.36L300.47 236.79Z" fill="#455A64"/>
<path d="M312.51 249.23H308.22V253.52H312.51V249.23Z" fill="#455A64"/>
<path d="M316.43 253.761H312.51V257.581H316.43V253.761Z" fill="#455A64"/>
<path d="M311.72 259.19H308.42V262.49H311.72V259.19Z" fill="#455A64"/>
<path d="M319.73 250.261H316.43V253.561H319.73V250.261Z" fill="#455A64"/>
<path d="M308.02 253.761H305.67V256.111H308.02V253.761Z" fill="#455A64"/>
<path d="M315.56 267.441H312.21V264.091H315.56V267.441ZM313.21 266.441H314.56V265.091H313.21V266.441Z" fill="#455A64"/>
<path d="M318.95 257.811H316.6V260.161H318.95V257.811Z" fill="#455A64"/>
<path d="M319.68 234.721L306.53 234.871V250.321H319.72L319.68 234.721ZM315.48 247.581H313.13V245.231H315.48V247.581Z" fill="#455A64"/>
<path d="M215.45 336.23L243.7 336.71L229.94 319L215.45 336.23Z" fill="#D328F9"/>
<path d="M228.57 350.11H223.78V354.9H228.57V350.11Z" fill="#D328F9"/>
<path d="M233.14 355.36H228.35V360.15H233.14V355.36Z" fill="#D328F9"/>
<path d="M227.46 361.811H223.78V365.491H227.46V361.811Z" fill="#D328F9"/>
<path d="M236.36 351.261H232.68V354.941H236.36V351.261Z" fill="#D328F9"/>
<path d="M223.79 355.771H221.16V358.401H223.79V355.771Z" fill="#D328F9"/>
<path d="M235.83 359.891H233.2V362.521H235.83V359.891Z" fill="#D328F9"/>
<path d="M236 333.921L222.52 334.081L221.65 351.331H236.4L236 333.921ZM231.26 348.271H228.63V345.651H231.26V348.271Z" fill="#D328F9"/>
<path d="M168.23 265.301L209.43 265.991L189.36 240.171L168.23 265.301Z" fill="#455A64"/>
<path d="M187.36 285.551H180.38V292.531H187.36V285.551Z" fill="#455A64"/>
<path d="M193.36 292.61H187.37V298.6H193.36V292.61Z" fill="#455A64"/>
<path d="M185.75 299.921H180.38V305.291H185.75V299.921Z" fill="#455A64"/>
<path d="M198.72 287.221H193.35V292.591H198.72V287.221Z" fill="#455A64"/>
<path d="M180.38 293.19H176.55V297.02H180.38V293.19Z" fill="#455A64"/>
<path d="M191.81 312.31H187V307.48H191.83L191.81 312.31ZM187.98 311.31H190.81V308.48H188L187.98 311.31Z" fill="#455A64"/>
<path d="M197.18 299.171H193.35V303.001H197.18V299.171Z" fill="#455A64"/>
<path d="M198.79 262.291L177.47 262.181L177.3 287.321H198.79V262.291ZM191.31 282.861H187.48V279.001H191.31V282.861Z" fill="#455A64"/>
<path d="M286.3 298.801L319.52 299.361L303.34 278.551L286.3 298.801Z" fill="#D328F9"/>
<path d="M301.73 315.131H296.1V320.761H301.73V315.131Z" fill="#D328F9"/>
<path d="M307.11 321.29H301.48V326.92H307.11V321.29Z" fill="#D328F9"/>
<path d="M300.42 328.87H296.1V333.19H300.42V328.87Z" fill="#D328F9"/>
<path d="M310.88 316.48H306.56V320.8H310.88V316.48Z" fill="#D328F9"/>
<path d="M296.1 321.78H293.01V324.87H296.1V321.78Z" fill="#D328F9"/>
<path d="M305.32 338.87H301.23V334.78H305.32V338.87ZM302.23 337.87H304.32V335.78H302.23V337.87Z" fill="#D328F9"/>
<path d="M310.27 326.62H307.18V329.71H310.27V326.62Z" fill="#D328F9"/>
<path d="M310.49 296.091L294.64 296.281L293.64 316.561H310.96L310.49 296.091ZM305.83 313.091H302.75V310.011H305.83V313.091Z" fill="#D328F9"/>
<path d="M38.23 264.061L79.44 264.751L59.36 238.931L38.23 264.061Z" fill="#D328F9"/>
<path d="M57.3701 284.311H50.3901V291.291H57.3701V284.311Z" fill="#D328F9"/>
<path d="M63.3601 291.37H57.3701V297.36H63.3601V291.37Z" fill="#D328F9"/>
<path d="M55.7501 298.681H50.3901V304.051H55.7501V298.681Z" fill="#D328F9"/>
<path d="M68.7199 285.98H63.3599V291.35H68.7199V285.98Z" fill="#D328F9"/>
<path d="M50.3901 291.95H46.5601V295.78H50.3901V291.95Z" fill="#D328F9"/>
<path d="M61.31 306.74H57.48V310.57H61.31V306.74Z" fill="#D328F9"/>
<path d="M67.1899 297.931H63.3599V301.761H67.1899V297.931Z" fill="#D328F9"/>
<path d="M68.7901 261.05L47.4701 260.94L47.3101 286.08H68.7901V261.05ZM61.3201 281.62H57.4901V277.79H61.3201V281.62Z" fill="#D328F9"/>
<path d="M418.65 408.32L450.49 408.86L435 388.91L418.65 408.32Z" fill="#D328F9"/>
<path d="M433.44 423.971H428.04V429.371H433.44V423.971Z" fill="#D328F9"/>
<path d="M438.07 429.431H433.44V434.061H438.07V429.431Z" fill="#D328F9"/>
<path d="M432.19 435.07H428.04V439.22H432.19V435.07Z" fill="#D328F9"/>
<path d="M442.22 425.261H438.07V429.411H442.22V425.261Z" fill="#D328F9"/>
<path d="M428.04 429.881H425.08V432.841H428.04V429.881Z" fill="#D328F9"/>
<path d="M436.49 441.301H433.53V444.261H436.49V441.301Z" fill="#D328F9"/>
<path d="M441.03 434.5H438.07V437.46H441.03V434.5Z" fill="#D328F9"/>
<path d="M442.26 406L425.79 405.91L425.66 425.34H442.26V406ZM436.49 421.9H433.49V418.9H436.49V421.9Z" fill="#D328F9"/>
<path d="M415.32 109.81L456.52 110.51L436.45 84.6904L415.32 109.81Z" fill="#D328F9"/>
<path d="M434.45 130.061H427.47V137.041H434.45V130.061Z" fill="#D328F9"/>
<path d="M440.45 137.12H434.46V143.11H440.45V137.12Z" fill="#D328F9"/>
<path d="M432.84 144.431H427.47V149.801H432.84V144.431Z" fill="#D328F9"/>
<path d="M445.81 131.74H440.44V137.11H445.81V131.74Z" fill="#D328F9"/>
<path d="M427.47 137.71H423.64V141.54H427.47V137.71Z" fill="#D328F9"/>
<path d="M438.4 152.49H434.57V156.32H438.4V152.49Z" fill="#D328F9"/>
<path d="M444.27 143.69H440.44V147.52H444.27V143.69Z" fill="#D328F9"/>
<path d="M445.88 106.81L424.56 106.69L424.39 131.84H445.88V106.81ZM438.4 127.38H434.57V123.55H438.4V127.38Z" fill="#D328F9"/>
</svg>
