<svg width="57" height="56" viewBox="0 0 57 56" fill="none" xmlns="http://www.w3.org/2000/svg">
<rect width="57" height="55.7045" rx="8" fill="#D328F9"/>
<g clip-path="url(#clip0_44_12019)">
<path d="M32.4375 17C28.2575 17 24.875 18.21 24.875 19.75V22.5C20.75 22.6375 18 23.7925 18 25.25V33.5C18 34.9988 21.3825 36.25 25.5625 36.25H25.6546C26.6611 36.25 27.6484 36.1744 28.615 36.03C29.5747 37.8244 31.4943 38.9972 33.6887 38.9972C35.0075 38.9972 36.2898 38.5644 37.339 37.7654C38.3881 36.9664 39.1461 35.8452 39.4967 34.5739C39.7841 34.3003 39.9697 33.9661 40.0014 33.588V19.75C40.0014 18.21 36.6189 17 32.4389 17H32.4375ZM25.5625 23.875C29 23.875 31.75 24.4938 31.75 25.25C31.75 26.0063 29 26.625 25.5625 26.625C22.125 26.625 19.375 26.0063 19.375 25.25C19.375 24.4938 22.125 23.875 25.5625 23.875ZM25.5625 34.875C21.8362 34.875 19.7188 33.8988 19.375 33.5V32.4C21.3399 33.2247 23.4642 33.6 25.5927 33.4986C26.2913 33.4972 27.009 33.4574 27.7157 33.3818C27.6566 33.8919 27.746 34.3608 27.8849 34.8076C27.2634 34.8365 26.5553 34.8778 25.8389 34.8778L25.5487 34.875H25.5625ZM27.7213 32.0012C27.0791 32.0796 26.3352 32.125 25.5817 32.125H25.5625C21.8376 32.125 19.7201 31.1488 19.3764 30.75V29.595C21.3352 30.438 23.4577 30.8326 25.5886 30.75C26.461 30.7485 27.3323 30.6897 28.197 30.574C27.9261 30.9948 27.7969 31.4733 27.7267 31.9696L27.7213 32.0012ZM25.5625 29.375C21.8362 29.375 19.7188 28.3988 19.375 28V26.7625C21.3339 27.6055 23.4563 28.0001 25.5873 27.9175C27.7356 27.9892 29.873 27.5825 31.8449 26.7267L31.7514 27.23C30.7192 27.5771 29.8 28.1966 29.0907 29.023C28.0568 29.2499 26.8756 29.375 25.6656 29.375H25.5598H25.5625ZM33.6887 37.625C32.4452 37.625 31.2526 37.131 30.3733 36.2517C29.494 35.3724 29 34.1798 29 32.9363C29 31.6927 29.494 30.5001 30.3733 29.6208C31.2526 28.7415 32.4452 28.2475 33.6887 28.2475C34.9323 28.2475 36.1249 28.7415 37.0042 29.6208C37.8835 30.5001 38.3775 31.6927 38.3775 32.9363C38.3775 34.1798 37.8835 35.3724 37.0042 36.2517C36.1249 37.131 34.9323 37.625 33.6887 37.625ZM38.625 28C38.3844 28.2296 38.0956 28.4125 37.7766 28.5307C37.3806 28.1952 36.9516 27.8982 36.4869 27.659C37.2461 27.4623 37.9808 27.181 38.6772 26.8203L38.625 28ZM38.625 25.25C38.295 25.6763 36.4113 26.5425 33.125 26.625V25.25H33.1401C35.0596 25.2529 36.9583 24.8523 38.713 24.0744L38.625 25.25ZM38.625 22.5C38.2812 22.9538 36.1637 23.875 32.4375 23.875H32.1213C30.3477 22.9653 28.3821 22.4938 26.3889 22.5H26.25V21.2625C28.2089 22.1055 30.3313 22.5001 32.4622 22.4175C34.6106 22.4892 36.748 22.0825 38.7199 21.2267L38.6264 22.5H38.625ZM32.4375 21.125C29 21.125 26.25 20.5062 26.25 19.75C26.25 18.9937 29 18.375 32.4375 18.375C35.875 18.375 38.625 18.9937 38.625 19.75C38.625 20.5062 35.875 21.125 32.4375 21.125Z" fill="white"/>
<path d="M32.4375 32.125H33.125V36.25H34.5V29.375H33.8125L32.4375 32.125Z" fill="white"/>
</g>
<defs>
<clipPath id="clip0_44_12019">
<rect width="22" height="22" fill="white" transform="translate(18 17)"/>
</clipPath>
</defs>
</svg>
