<svg width="57" height="56" viewBox="0 0 57 56" fill="none" xmlns="http://www.w3.org/2000/svg">
<rect width="57" height="55.7045" rx="8" fill="#D328F9"/>
<path d="M28.9997 26.2503C30.6105 26.2503 31.9163 24.9445 31.9163 23.3337C31.9163 21.7228 30.6105 20.417 28.9997 20.417C27.3888 20.417 26.083 21.7228 26.083 23.3337C26.083 24.9445 27.3888 26.2503 28.9997 26.2503Z" stroke="white" stroke-width="1.5" stroke-linecap="round"/>
<path d="M31.0625 21.5837C31.2933 21.184 31.6374 20.8617 32.0512 20.6576C32.4652 20.4535 32.9303 20.3767 33.3879 20.437C33.8453 20.4972 34.2748 20.6918 34.6218 20.996C34.9687 21.3003 35.2177 21.7007 35.3372 22.1464C35.4565 22.5922 35.4411 23.0634 35.2928 23.5004C35.1444 23.9374 34.8698 24.3205 34.5037 24.6015C34.1376 24.8824 33.6964 25.0485 33.2359 25.0787C32.7754 25.1088 32.3163 25.0018 31.9166 24.7711" stroke="white" stroke-width="1.5"/>
<path d="M26.9371 21.5837C26.7064 21.184 26.3622 20.8617 25.9484 20.6576C25.5345 20.4535 25.0693 20.3767 24.6118 20.437C24.1542 20.4972 23.7248 20.6918 23.3779 20.996C23.0309 21.3003 22.782 21.7007 22.6625 22.1464C22.5431 22.5922 22.5585 23.0634 22.7068 23.5004C22.8552 23.9374 23.1298 24.3205 23.4959 24.6015C23.862 24.8824 24.3032 25.0485 24.7637 25.0787C25.2242 25.1088 25.6833 25.0018 26.083 24.7711" stroke="white" stroke-width="1.5"/>
<path d="M28.9998 28.583C33.76 28.583 34.9889 32.4356 35.3061 34.4245C35.4076 35.0608 34.8941 35.583 34.2498 35.583H23.7498C23.1055 35.583 22.592 35.0608 22.6935 34.4245C23.0107 32.4356 24.2395 28.583 28.9998 28.583Z" stroke="white" stroke-width="1.5" stroke-linecap="round"/>
<path d="M30.2679 28.6832L29.8372 28.2899L29.1133 29.0827L30.1723 29.2586L30.2679 28.6832ZM35.0445 33.2497L34.4841 33.4118L34.6061 33.833H35.0445V33.2497ZM33.083 27.9997C34.282 27.9997 35.1241 28.5862 35.741 29.4077C36.3703 30.2459 36.7398 31.302 36.9464 32.127L38.0782 31.8436C37.8551 30.9531 37.438 29.7248 36.674 28.7073C35.8977 27.6734 34.7399 26.833 33.083 26.833V27.9997ZM30.6987 29.0765C31.2825 28.4372 32.0455 27.9997 33.083 27.9997V26.833C31.6629 26.833 30.6022 27.452 29.8372 28.2899L30.6987 29.0765ZM30.1723 29.2586C32.8562 29.7046 33.9918 31.7098 34.4841 33.4118L35.6048 33.0875C35.0552 31.1877 33.6885 28.6604 30.3636 28.1078L30.1723 29.2586ZM36.4605 32.6663H35.0445V33.833H36.4605V32.6663ZM36.9464 32.127C37.0092 32.3777 36.8251 32.6663 36.4605 32.6663V33.833C37.4763 33.833 38.3507 32.932 38.0782 31.8436L36.9464 32.127Z" fill="white"/>
<path d="M27.7318 28.6832L27.8274 29.2586L28.8864 29.0827L28.1625 28.2899L27.7318 28.6832ZM22.9552 33.2497V33.833H23.3937L23.5155 33.4118L22.9552 33.2497ZM24.9167 27.9997C25.9542 27.9997 26.7172 28.4372 27.3009 29.0765L28.1625 28.2899C27.3975 27.452 26.3368 26.833 24.9167 26.833V27.9997ZM21.0532 32.127C21.2598 31.302 21.6294 30.2459 22.2586 29.4077C22.8756 28.5862 23.7177 27.9997 24.9167 27.9997V26.833C23.2598 26.833 22.102 27.6734 21.3257 28.7073C20.5617 29.7248 20.1445 30.9531 19.9215 31.8436L21.0532 32.127ZM21.5392 32.6663C21.1746 32.6663 20.9905 32.3777 21.0532 32.127L19.9215 31.8436C19.6489 32.932 20.5233 33.833 21.5392 33.833V32.6663ZM22.9552 32.6663H21.5392V33.833H22.9552V32.6663ZM23.5155 33.4118C24.0079 31.7098 25.1434 29.7046 27.8274 29.2586L27.6361 28.1078C24.3112 28.6604 22.9445 31.1877 22.3948 33.0875L23.5155 33.4118Z" fill="white"/>
</svg>
