<svg width="27" height="25" viewBox="0 0 27 25" fill="none" xmlns="http://www.w3.org/2000/svg">
<rect width="27" height="25" rx="4" fill="#D328F9"/>
<g clip-path="url(#clip0_44_14224)">
<path d="M5.99977 19.07V15.32C5.99977 15.06 6.08977 14.84 6.26977 14.66C6.44977 14.48 6.67477 14.385 6.94477 14.375H10.6948C10.9448 14.375 11.1648 14.47 11.3548 14.66C11.5448 14.85 11.6348 15.07 11.6248 15.32V19.07C11.6248 19.33 11.5348 19.55 11.3548 19.73C11.1748 19.91 10.9548 20 10.6948 20H6.94477C6.68477 20 6.45977 19.91 6.26977 19.73C6.07977 19.55 5.98977 19.33 5.99977 19.07ZM6.01477 9.86C5.98477 9.67 6.00477 9.49 6.07477 9.32C6.14477 9.15 6.25477 9.015 6.40477 8.915C6.55477 8.815 6.73477 8.76 6.94477 8.75H7.87477C7.87477 7.98 8.14977 7.32 8.69977 6.77C9.24977 6.22 9.91477 5.945 10.6948 5.945H12.5698C12.7898 5.945 12.9798 6.01 13.1398 6.14C13.2998 6.27 13.3998 6.425 13.4398 6.605C13.4798 6.785 13.4798 6.97 13.4398 7.16C13.3998 7.35 13.2998 7.505 13.1398 7.625C12.9798 7.745 12.7898 7.81 12.5698 7.82H10.6948C10.4348 7.82 10.2098 7.91 10.0198 8.09C9.82977 8.27 9.73977 8.49 9.74977 8.75H10.6948C10.8948 8.75 11.0748 8.81 11.2348 8.93C11.3948 9.05 11.5048 9.185 11.5648 9.335C11.6248 9.485 11.6398 9.66 11.6098 9.86C11.5798 10.06 11.4948 10.225 11.3548 10.355L9.47977 12.23C9.27977 12.42 9.05477 12.515 8.80477 12.515C8.55477 12.515 8.33977 12.42 8.15977 12.23L6.28477 10.355C6.13477 10.215 6.04477 10.05 6.01477 9.86ZM7.87477 18.125H9.74977V16.25H7.87477V18.125ZM13.5598 18.41C13.5298 18.22 13.5298 18.035 13.5598 17.855C13.5898 17.675 13.6898 17.52 13.8598 17.39C14.0298 17.26 14.2248 17.195 14.4448 17.195H16.3198C16.5698 17.195 16.7898 17.105 16.9798 16.925C17.1698 16.745 17.2598 16.52 17.2498 16.25H16.3198C16.1098 16.25 15.9248 16.195 15.7648 16.085C15.6048 15.975 15.4948 15.835 15.4348 15.665C15.3748 15.495 15.3598 15.32 15.3898 15.14C15.4198 14.96 15.5098 14.8 15.6598 14.66L17.5348 12.785C17.7248 12.595 17.9448 12.5 18.1948 12.5C18.4448 12.5 18.6648 12.59 18.8548 12.77L20.7298 14.645C20.8798 14.795 20.9698 14.965 20.9998 15.155C21.0298 15.345 21.0048 15.52 20.9248 15.68C20.8448 15.84 20.7348 15.975 20.5948 16.085C20.4548 16.195 20.2798 16.25 20.0698 16.25H19.1248C19.1248 17.03 18.8498 17.695 18.2998 18.245C17.7498 18.795 17.0898 19.07 16.3198 19.07H14.4448C14.2148 19.07 14.0198 19.005 13.8598 18.875C13.6998 18.745 13.5998 18.59 13.5598 18.41ZM15.3748 9.695V5.945C15.3748 5.685 15.4648 5.465 15.6448 5.285C15.8248 5.105 16.0498 5.01 16.3198 5H20.0698C20.3198 5 20.5398 5.095 20.7298 5.285C20.9198 5.475 21.0098 5.695 20.9998 5.945V9.695C20.9998 9.955 20.9098 10.175 20.7298 10.355C20.5498 10.535 20.3298 10.625 20.0698 10.625H16.3198C16.0598 10.625 15.8348 10.535 15.6448 10.355C15.4548 10.175 15.3648 9.955 15.3748 9.695ZM17.2498 8.75H19.1248V6.875H17.2498V8.75Z" fill="white"/>
</g>
<defs>
<clipPath id="clip0_44_14224">
<rect width="15" height="15" fill="white" transform="translate(6 5)"/>
</clipPath>
</defs>
</svg>
