<svg width="85" height="85" viewBox="0 0 85 85" fill="none" xmlns="http://www.w3.org/2000/svg">
<path d="M42.5002 37.1878C47.3902 37.1878 51.3543 33.2237 51.3543 28.3337C51.3543 23.4436 47.3902 19.4795 42.5002 19.4795C37.6101 19.4795 33.646 23.4436 33.646 28.3337C33.646 33.2237 37.6101 37.1878 42.5002 37.1878Z" stroke="#D328F9" stroke-width="3" stroke-linecap="round"/>
<path d="M48.7612 23.0212C49.4618 21.8079 50.5066 20.8296 51.7628 20.21C53.0194 19.5904 54.4314 19.3572 55.8205 19.5401C57.2092 19.723 58.5129 20.3136 59.5661 21.2373C60.6194 22.161 61.3752 23.3763 61.7379 24.7295C62.1002 26.0828 62.0535 27.5131 61.6033 28.8397C61.1528 30.1663 60.3191 31.3296 59.2077 32.1824C58.0964 33.0353 56.7569 33.5394 55.359 33.631C53.9611 33.7226 52.5675 33.3976 51.3541 32.6972" stroke="#D328F9" stroke-width="3"/>
<path d="M36.2388 23.0212C35.5383 21.8079 34.4937 20.8296 33.2372 20.21C31.9807 19.5904 30.5687 19.3572 29.1798 19.5401C27.7908 19.723 26.4873 20.3136 25.434 21.2373C24.3807 22.161 23.625 23.3763 23.2624 24.7295C22.8998 26.0828 22.9466 27.5131 23.3969 28.8397C23.8472 30.1663 24.6808 31.3296 25.7923 32.1824C26.9037 33.0353 28.2431 33.5394 29.641 33.631C31.039 33.7226 32.4327 33.3976 33.646 32.6972" stroke="#D328F9" stroke-width="3"/>
<path d="M42.5 44.2705C56.9507 44.2705 60.6811 55.9658 61.6441 62.0036C61.9522 63.9353 60.3935 65.5205 58.4375 65.5205H26.5625C24.6065 65.5205 23.0478 63.9353 23.3559 62.0036C24.3188 55.9658 28.0491 44.2705 42.5 44.2705Z" stroke="#D328F9" stroke-width="3" stroke-linecap="round"/>
<path d="M46.3499 44.5747L45.0423 43.3808L42.8447 45.7874L46.0595 46.3215L46.3499 44.5747ZM60.8502 58.4372L59.1491 58.9295L59.5193 60.208H60.8502V58.4372ZM54.8956 42.4997C58.5354 42.4997 61.0917 44.2801 62.9646 46.7741C64.875 49.3184 65.9966 52.5247 66.6238 55.029L70.0596 54.1688C69.3824 51.4654 68.1163 47.7367 65.7969 44.6477C63.4402 41.5091 59.9255 38.958 54.8956 38.958V42.4997ZM47.6575 45.7686C49.4297 43.8278 51.746 42.4997 54.8956 42.4997V38.958C50.5847 38.958 47.3646 40.8372 45.0423 43.3808L47.6575 45.7686ZM46.0595 46.3215C54.2071 47.6755 57.6546 53.7625 59.1491 58.9295L62.5513 57.9449C60.8828 52.1776 56.7337 44.5053 46.6403 42.828L46.0595 46.3215ZM65.1487 56.6663H60.8502V60.208H65.1487V56.6663ZM66.6238 55.029C66.8144 55.7901 66.2555 56.6663 65.1487 56.6663V60.208C68.2325 60.208 70.8869 57.4728 70.0596 54.1688L66.6238 55.029Z" fill="#D328F9"/>
<path d="M38.6498 44.5747L38.9402 46.3215L42.155 45.7874L39.9574 43.3808L38.6498 44.5747ZM24.1495 58.4372V60.208H25.4806L25.8505 58.9295L24.1495 58.4372ZM30.1041 42.4997C33.2538 42.4997 35.57 43.8278 37.3419 45.7686L39.9574 43.3808C37.6351 40.8372 34.4152 38.958 30.1041 38.958V42.4997ZM18.3757 55.029C19.0029 52.5247 20.1247 49.3184 22.035 46.7741C23.9079 44.2801 26.4642 42.4997 30.1041 42.4997V38.958C25.0743 38.958 21.5596 41.5091 19.2028 44.6477C16.8836 47.7367 15.6171 51.4654 14.9402 54.1688L18.3757 55.029ZM19.8509 56.6663C18.7441 56.6663 18.1852 55.7901 18.3757 55.029L14.9402 54.1688C14.1127 57.4728 16.7671 60.208 19.8509 60.208V56.6663ZM24.1495 56.6663H19.8509V60.208H24.1495V56.6663ZM25.8505 58.9295C27.3453 53.7625 30.7925 47.6755 38.9402 46.3215L38.3594 42.828C28.266 44.5053 24.1169 52.1776 22.4484 57.9449L25.8505 58.9295Z" fill="#D328F9"/>
</svg>
