<svg width="20" height="21" viewBox="0 0 20 21" fill="none" xmlns="http://www.w3.org/2000/svg">
<g clip-path="url(#clip0_44_14205)">
<g clip-path="url(#clip1_44_14205)">
<path d="M7.9298 14.4697L7.7998 17.8097L9.5198 15.6997L7.9298 14.4697Z" fill="#828CA0"/>
<path d="M17.3299 4.16982C14.5699 5.27982 5.67991 8.97982 2.32991 10.3898C2.21441 10.413 2.1105 10.4755 2.03585 10.5667C1.9612 10.6578 1.92041 10.772 1.92041 10.8898C1.92041 11.0076 1.9612 11.1218 2.03585 11.213C2.1105 11.3041 2.21441 11.3666 2.32991 11.3898L6.18991 12.5998L14.8399 7.34982C14.8999 7.34982 14.9499 7.34982 14.9099 7.42982L8.31991 13.6798L14.3199 18.0698C14.4299 18.1473 14.5574 18.1961 14.691 18.212C14.8246 18.2278 14.9601 18.2101 15.0851 18.1605C15.2101 18.1109 15.3208 18.0309 15.4072 17.9278C15.4936 17.8246 15.553 17.7016 15.5799 17.5698C16.1299 14.6198 17.5199 7.22982 17.9999 4.70982C18.0194 4.62246 18.014 4.5314 17.9844 4.44693C17.9549 4.36245 17.9023 4.28793 17.8326 4.23176C17.7629 4.1756 17.6789 4.14004 17.5901 4.12909C17.5013 4.11815 17.4111 4.13225 17.3299 4.16982Z" fill="#828CA0"/>
</g>
</g>
<defs>
<clipPath id="clip0_44_14205">
<rect width="20" height="20" fill="white" transform="translate(0 0.799805)"/>
</clipPath>
<clipPath id="clip1_44_14205">
<rect width="20" height="20" fill="white" transform="translate(0 0.799805)"/>
</clipPath>
</defs>
</svg>
