<svg width="65" height="65" viewBox="0 0 65 65" fill="none" xmlns="http://www.w3.org/2000/svg">
<mask id="path-1-inside-1_44_13705" fill="white">
<path d="M42.1486 18.2813C42.1486 17.2039 41.7206 16.1706 40.9587 15.4087C40.1969 14.6468 39.1636 14.2188 38.0861 14.2188H32.5002C31.9654 14.2185 31.4402 14.0774 30.9772 13.8098C30.5143 13.5421 30.1299 13.1574 29.8627 12.6941C29.5956 12.2309 29.455 11.7055 29.4553 11.1707C29.4555 10.636 29.5964 10.1107 29.864 9.64767C30.1315 9.18465 30.5162 8.80019 30.9793 8.53292C31.4425 8.26565 31.9679 8.125 32.5026 8.12508C33.0374 8.12517 33.5627 8.26599 34.0258 8.53341C34.4889 8.80082 34.8734 9.18541 35.1408 9.64852C35.2678 9.89126 35.4426 10.1058 35.6546 10.2793C35.8667 10.4527 36.1116 10.5815 36.3747 10.6578C36.6378 10.7341 36.9137 10.7564 37.1856 10.7234C37.4576 10.6904 37.72 10.6027 37.9572 10.4656C38.1944 10.3285 38.4014 10.1448 38.5657 9.92565C38.7301 9.70648 38.8484 9.45633 38.9136 9.19024C38.9788 8.92416 38.9894 8.64764 38.945 8.37732C38.9005 8.107 38.8018 7.84846 38.6549 7.61727C37.8719 6.26302 36.6641 5.20483 35.2186 4.60668C33.7732 4.00852 32.1708 3.9038 30.6599 4.30873C29.1489 4.71367 27.8136 5.60566 26.861 6.84647C25.9084 8.08729 25.3917 9.60765 25.3908 11.172C25.4085 12.2312 25.6654 13.2728 26.1424 14.2188C25.2035 14.4004 24.3587 14.9073 23.7568 15.6504C23.1548 16.3935 22.8344 17.3252 22.8517 18.2813V26.4063C22.8517 26.9451 23.0658 27.4617 23.4467 27.8426C23.8276 28.2236 24.3443 28.4376 24.883 28.4376H40.1174C40.6561 28.4376 41.1728 28.2236 41.5537 27.8426C41.9346 27.4617 42.1486 26.9451 42.1486 26.4063V18.2813ZM38.0861 24.3751H26.9142V18.2813H38.0861V24.3751ZM19.2971 46.7188H13.7111C13.1725 46.7363 12.6388 46.6106 12.1646 46.3545C11.6904 46.0984 11.2926 45.7211 11.0118 45.261C10.731 44.801 10.5772 44.2748 10.5662 43.7359C10.5552 43.1971 10.6873 42.665 10.949 42.1939C11.2107 41.7227 11.5927 41.3295 12.0561 41.0542C12.5194 40.7789 13.0475 40.6314 13.5864 40.6268C14.1253 40.6222 14.6558 40.7606 15.1238 41.0279C15.5917 41.2953 15.9804 41.6819 16.2502 42.1485C16.5312 42.5907 16.9723 42.9071 17.4811 43.0317C17.99 43.1564 18.5273 43.0796 18.9809 42.8174C19.4345 42.5552 19.7692 42.1279 19.9152 41.6248C20.0612 41.1216 20.0071 40.5815 19.7642 40.1173C18.9607 38.8112 17.7565 37.8 16.3312 37.2344C14.9059 36.6689 13.3359 36.5793 11.8555 36.9791C10.3751 37.3789 9.06368 38.2466 8.11685 39.4528C7.17002 40.659 6.63855 42.139 6.60175 43.672C6.61942 44.7312 6.87634 45.7728 7.35331 46.7188C6.41439 46.9004 5.56961 47.4073 4.96769 48.1504C4.36577 48.8935 4.04529 49.8252 4.06268 50.7813V58.9063C4.06268 59.4451 4.27669 59.9617 4.65762 60.3426C5.03856 60.7236 5.55521 60.9376 6.09393 60.9376H21.3283C21.867 60.9376 22.3837 60.7236 22.7646 60.3426C23.1456 59.9617 23.3596 59.4451 23.3596 58.9063V50.7813C23.3596 49.7039 22.9315 48.6706 22.1697 47.9087C21.4078 47.1468 20.3745 46.7188 19.2971 46.7188ZM19.2971 56.8751H8.12518V50.7813H19.2971V56.8751ZM56.8752 46.7188H51.2892C50.7545 46.7185 50.2292 46.5774 49.7663 46.3098C49.3033 46.0421 48.919 45.6574 48.6518 45.1941C48.3846 44.7309 48.2441 44.2055 48.2443 43.6707C48.2445 43.136 48.3855 42.6107 48.653 42.1477C48.9205 41.6847 49.3052 41.3002 49.7684 41.0329C50.2316 40.7657 50.7569 40.625 51.2917 40.6251C51.8264 40.6252 52.3518 40.766 52.8148 41.0334C53.2779 41.3008 53.6625 41.6854 53.9299 42.1485C54.2109 42.5907 54.652 42.9071 55.1608 43.0317C55.6697 43.1564 56.207 43.0796 56.6606 42.8174C57.1142 42.5552 57.4489 42.1279 57.5949 41.6248C57.7409 41.1216 57.6868 40.5815 57.4439 40.1173C56.6609 38.763 55.4531 37.7048 54.0077 37.1067C52.5623 36.5085 50.9599 36.4038 49.4489 36.8087C47.9379 37.2137 46.6027 38.1057 45.6501 39.3465C44.6975 40.5873 44.1807 42.1076 44.1799 43.672C44.1975 44.7312 44.4545 45.7728 44.9314 46.7188C43.9925 46.9004 43.1477 47.4073 42.5458 48.1504C41.9439 48.8935 41.6234 49.8252 41.6408 50.7813V58.9063C41.6408 59.4451 41.8548 59.9617 42.2357 60.3426C42.6167 60.7236 43.1333 60.9376 43.6721 60.9376H58.9064C59.4452 60.9376 59.9618 60.7236 60.3427 60.3426C60.7237 59.9617 60.9377 59.4451 60.9377 58.9063V50.7813C60.9377 49.7039 60.5097 48.6706 59.7478 47.9087C58.9859 47.1468 57.9526 46.7188 56.8752 46.7188ZM56.8752 56.8751H45.7033V50.7813H56.8752V56.8751ZM34.5314 37.761V32.5001C34.5314 31.9614 34.3174 31.4447 33.9365 31.0638C33.5556 30.6828 33.0389 30.4688 32.5002 30.4688C31.9615 30.4688 31.4448 30.6828 31.0639 31.0638C30.6829 31.4447 30.4689 31.9614 30.4689 32.5001V37.761L24.9642 43.2657C24.7516 43.4478 24.5789 43.6719 24.457 43.9239C24.3351 44.1759 24.2666 44.4504 24.2557 44.7301C24.2449 45.0099 24.2921 45.2888 24.3942 45.5495C24.4963 45.8101 24.6512 46.0469 24.8492 46.2448C25.0471 46.4428 25.2839 46.5977 25.5445 46.6998C25.8052 46.8019 26.0841 46.8491 26.3639 46.8383C26.6436 46.8275 26.9181 46.7589 27.1701 46.637C27.4221 46.5151 27.6462 46.3424 27.8283 46.1298L32.5002 41.4579L37.1517 46.1095C37.5403 46.4422 38.0402 46.6161 38.5514 46.5964C39.0626 46.5766 39.5475 46.3647 39.9093 46.0029C40.2711 45.6412 40.483 45.1562 40.5027 44.645C40.5225 44.1338 40.3486 43.634 40.0158 43.2454L34.5314 37.761Z"/>
</mask>
<path d="M42.1486 18.2813C42.1486 17.2039 41.7206 16.1706 40.9587 15.4087C40.1969 14.6468 39.1636 14.2188 38.0861 14.2188H32.5002C31.9654 14.2185 31.4402 14.0774 30.9772 13.8098C30.5143 13.5421 30.1299 13.1574 29.8627 12.6941C29.5956 12.2309 29.455 11.7055 29.4553 11.1707C29.4555 10.636 29.5964 10.1107 29.864 9.64767C30.1315 9.18465 30.5162 8.80019 30.9793 8.53292C31.4425 8.26565 31.9679 8.125 32.5026 8.12508C33.0374 8.12517 33.5627 8.26599 34.0258 8.53341C34.4889 8.80082 34.8734 9.18541 35.1408 9.64852C35.2678 9.89126 35.4426 10.1058 35.6546 10.2793C35.8667 10.4527 36.1116 10.5815 36.3747 10.6578C36.6378 10.7341 36.9137 10.7564 37.1856 10.7234C37.4576 10.6904 37.72 10.6027 37.9572 10.4656C38.1944 10.3285 38.4014 10.1448 38.5657 9.92565C38.7301 9.70648 38.8484 9.45633 38.9136 9.19024C38.9788 8.92416 38.9894 8.64764 38.945 8.37732C38.9005 8.107 38.8018 7.84846 38.6549 7.61727C37.8719 6.26302 36.6641 5.20483 35.2186 4.60668C33.7732 4.00852 32.1708 3.9038 30.6599 4.30873C29.1489 4.71367 27.8136 5.60566 26.861 6.84647C25.9084 8.08729 25.3917 9.60765 25.3908 11.172C25.4085 12.2312 25.6654 13.2728 26.1424 14.2188C25.2035 14.4004 24.3587 14.9073 23.7568 15.6504C23.1548 16.3935 22.8344 17.3252 22.8517 18.2813V26.4063C22.8517 26.9451 23.0658 27.4617 23.4467 27.8426C23.8276 28.2236 24.3443 28.4376 24.883 28.4376H40.1174C40.6561 28.4376 41.1728 28.2236 41.5537 27.8426C41.9346 27.4617 42.1486 26.9451 42.1486 26.4063V18.2813ZM38.0861 24.3751H26.9142V18.2813H38.0861V24.3751ZM19.2971 46.7188H13.7111C13.1725 46.7363 12.6388 46.6106 12.1646 46.3545C11.6904 46.0984 11.2926 45.7211 11.0118 45.261C10.731 44.801 10.5772 44.2748 10.5662 43.7359C10.5552 43.1971 10.6873 42.665 10.949 42.1939C11.2107 41.7227 11.5927 41.3295 12.0561 41.0542C12.5194 40.7789 13.0475 40.6314 13.5864 40.6268C14.1253 40.6222 14.6558 40.7606 15.1238 41.0279C15.5917 41.2953 15.9804 41.6819 16.2502 42.1485C16.5312 42.5907 16.9723 42.9071 17.4811 43.0317C17.99 43.1564 18.5273 43.0796 18.9809 42.8174C19.4345 42.5552 19.7692 42.1279 19.9152 41.6248C20.0612 41.1216 20.0071 40.5815 19.7642 40.1173C18.9607 38.8112 17.7565 37.8 16.3312 37.2344C14.9059 36.6689 13.3359 36.5793 11.8555 36.9791C10.3751 37.3789 9.06368 38.2466 8.11685 39.4528C7.17002 40.659 6.63855 42.139 6.60175 43.672C6.61942 44.7312 6.87634 45.7728 7.35331 46.7188C6.41439 46.9004 5.56961 47.4073 4.96769 48.1504C4.36577 48.8935 4.04529 49.8252 4.06268 50.7813V58.9063C4.06268 59.4451 4.27669 59.9617 4.65762 60.3426C5.03856 60.7236 5.55521 60.9376 6.09393 60.9376H21.3283C21.867 60.9376 22.3837 60.7236 22.7646 60.3426C23.1456 59.9617 23.3596 59.4451 23.3596 58.9063V50.7813C23.3596 49.7039 22.9315 48.6706 22.1697 47.9087C21.4078 47.1468 20.3745 46.7188 19.2971 46.7188ZM19.2971 56.8751H8.12518V50.7813H19.2971V56.8751ZM56.8752 46.7188H51.2892C50.7545 46.7185 50.2292 46.5774 49.7663 46.3098C49.3033 46.0421 48.919 45.6574 48.6518 45.1941C48.3846 44.7309 48.2441 44.2055 48.2443 43.6707C48.2445 43.136 48.3855 42.6107 48.653 42.1477C48.9205 41.6847 49.3052 41.3002 49.7684 41.0329C50.2316 40.7657 50.7569 40.625 51.2917 40.6251C51.8264 40.6252 52.3518 40.766 52.8148 41.0334C53.2779 41.3008 53.6625 41.6854 53.9299 42.1485C54.2109 42.5907 54.652 42.9071 55.1608 43.0317C55.6697 43.1564 56.207 43.0796 56.6606 42.8174C57.1142 42.5552 57.4489 42.1279 57.5949 41.6248C57.7409 41.1216 57.6868 40.5815 57.4439 40.1173C56.6609 38.763 55.4531 37.7048 54.0077 37.1067C52.5623 36.5085 50.9599 36.4038 49.4489 36.8087C47.9379 37.2137 46.6027 38.1057 45.6501 39.3465C44.6975 40.5873 44.1807 42.1076 44.1799 43.672C44.1975 44.7312 44.4545 45.7728 44.9314 46.7188C43.9925 46.9004 43.1477 47.4073 42.5458 48.1504C41.9439 48.8935 41.6234 49.8252 41.6408 50.7813V58.9063C41.6408 59.4451 41.8548 59.9617 42.2357 60.3426C42.6167 60.7236 43.1333 60.9376 43.6721 60.9376H58.9064C59.4452 60.9376 59.9618 60.7236 60.3427 60.3426C60.7237 59.9617 60.9377 59.4451 60.9377 58.9063V50.7813C60.9377 49.7039 60.5097 48.6706 59.7478 47.9087C58.9859 47.1468 57.9526 46.7188 56.8752 46.7188ZM56.8752 56.8751H45.7033V50.7813H56.8752V56.8751ZM34.5314 37.761V32.5001C34.5314 31.9614 34.3174 31.4447 33.9365 31.0638C33.5556 30.6828 33.0389 30.4688 32.5002 30.4688C31.9615 30.4688 31.4448 30.6828 31.0639 31.0638C30.6829 31.4447 30.4689 31.9614 30.4689 32.5001V37.761L24.9642 43.2657C24.7516 43.4478 24.5789 43.6719 24.457 43.9239C24.3351 44.1759 24.2666 44.4504 24.2557 44.7301C24.2449 45.0099 24.2921 45.2888 24.3942 45.5495C24.4963 45.8101 24.6512 46.0469 24.8492 46.2448C25.0471 46.4428 25.2839 46.5977 25.5445 46.6998C25.8052 46.8019 26.0841 46.8491 26.3639 46.8383C26.6436 46.8275 26.9181 46.7589 27.1701 46.637C27.4221 46.5151 27.6462 46.3424 27.8283 46.1298L32.5002 41.4579L37.1517 46.1095C37.5403 46.4422 38.0402 46.6161 38.5514 46.5964C39.0626 46.5766 39.5475 46.3647 39.9093 46.0029C40.2711 45.6412 40.483 45.1562 40.5027 44.645C40.5225 44.1338 40.3486 43.634 40.0158 43.2454L34.5314 37.761Z" fill="#D328F9" stroke="#FBEEFF" stroke-width="1.4" mask="url(#path-1-inside-1_44_13705)"/>
</svg>
