<svg width="60" height="60" viewBox="0 0 60 60" fill="none" xmlns="http://www.w3.org/2000/svg">
<g clip-path="url(#clip0_44_13707)">
<path d="M59.9615 21.9151C59.9452 21.6196 59.8245 21.3395 59.621 21.1246C59.4175 20.9098 59.1444 20.774 58.8503 20.7416C58.5561 20.7092 58.26 20.7822 58.0146 20.9477C57.7692 21.1131 57.5905 21.3603 57.5102 21.6451C57.0102 23.3951 55.7977 24.3689 54.7702 23.6814C52.2845 20.2126 48.9093 17.4783 45.0002 15.7664C44.6984 15.629 44.3543 15.6171 44.0437 15.7334C43.7331 15.8496 43.4814 16.0845 43.344 16.3864C43.2066 16.6882 43.1947 17.0323 43.311 17.3429C43.4272 17.6535 43.6621 17.9052 43.964 18.0426C47.5235 19.5913 50.5886 22.089 52.824 25.2626C52.8927 25.367 52.977 25.4602 53.074 25.5389C53.5244 25.9097 54.0537 26.1727 54.6213 26.3076C55.1889 26.4426 55.7799 26.446 56.349 26.3176C56.08 26.6892 55.7196 26.985 55.3027 27.1764C55.0074 27.2998 54.7707 27.5319 54.6414 27.8247C54.5121 28.1175 54.5001 28.4487 54.6077 28.7501C55.1487 30.253 55.4261 31.8379 55.4277 33.4351C55.3547 35.839 54.7369 38.195 53.6209 40.3254C52.5049 42.4559 50.9199 44.3051 48.9852 45.7339C48.9527 45.7614 48.9202 45.7901 48.889 45.8201C47.6759 46.9856 46.7318 48.402 46.1227 49.9701C45.5365 51.4776 45.1849 53.0661 45.0802 54.6801C45.0433 55.6211 45.0734 56.5634 45.1702 57.5001H39.1952C39.5612 56.3973 39.7151 55.2352 39.649 54.0751C39.5609 53.3436 39.3352 52.6353 38.984 51.9876C38.7955 51.6233 38.4947 51.3294 38.1262 51.1493C37.7577 50.9692 37.341 50.9125 36.9377 50.9876C34.3275 51.4402 31.6703 51.5582 29.0302 51.3389C28.8385 51.324 28.6458 51.3532 28.467 51.4242C28.2883 51.4953 28.1282 51.6063 27.999 51.7489C27.2265 52.5864 26.6396 53.5776 26.2765 54.6576C26.0164 55.5843 25.8662 56.5384 25.829 57.5001H20.599C20.7718 56.8491 20.8861 56.184 20.9402 55.5126L20.9477 55.3651C21.0478 54.0188 20.7703 52.6712 20.1465 51.4739C19.204 49.7783 17.8076 48.3788 16.114 47.4326C15.6491 47.1381 15.2032 46.8146 14.779 46.4639C13.0165 44.9226 11.039 43.1051 10.7165 42.7551C8.57572 40.3962 5.67607 38.8619 2.52149 38.4189V29.2501H3.23399C5.93274 29.2501 7.72649 28.6839 8.71774 27.5201C9.07399 27.1001 9.69399 26.2626 10.0527 25.7351C10.7657 24.6126 11.6003 23.5721 12.5415 22.6326C12.6589 22.5134 12.7511 22.3718 12.8127 22.2162C12.8744 22.0607 12.9042 21.8943 12.9003 21.727C12.8965 21.5597 12.8591 21.3949 12.7903 21.2424C12.7216 21.0898 12.623 20.9526 12.5002 20.8389C12.0253 20.3958 11.5946 19.9077 11.214 19.3814C10.7016 18.629 10.2933 17.8107 10.0002 16.9489C10.4727 16.9701 10.979 17.0064 11.4215 17.0739C13.0314 17.2799 14.5556 17.9174 15.8327 18.9189C16.0284 19.0886 16.2719 19.1933 16.5296 19.2186C16.7874 19.2439 17.0466 19.1885 17.2715 19.0601C18.8948 18.1267 20.6128 17.3687 22.3965 16.7989C22.7124 16.6983 22.9755 16.4763 23.1277 16.1817C23.28 15.8872 23.309 15.5442 23.2084 15.2282C23.1077 14.9123 22.8857 14.6493 22.5912 14.497C22.2966 14.3448 21.9537 14.3158 21.6377 14.4164C19.9524 14.9525 18.3204 15.6438 16.7627 16.4814C15.2618 15.48 13.5514 14.836 11.7627 14.5989C10.6069 14.4661 9.44358 14.4085 8.28024 14.4264C8.09545 14.4302 7.9138 14.4749 7.74838 14.5574C7.58296 14.6398 7.43788 14.7579 7.32358 14.9032C7.20929 15.0484 7.12864 15.2172 7.08742 15.3974C7.04621 15.5776 7.04546 15.7646 7.08524 15.9451C7.48911 17.694 8.20105 19.357 9.18774 20.8564C9.42024 21.1751 9.66399 21.4814 9.91774 21.7714C9.19487 22.5838 8.54054 23.4547 7.96149 24.3751C7.67024 24.8026 7.10524 25.5651 6.81399 25.9076C6.59524 26.1639 5.81399 26.7589 3.23399 26.7589H1.86774C1.37893 26.7595 0.910284 26.9537 0.564295 27.299C0.218306 27.6443 0.0231415 28.1126 0.0214895 28.6014V38.6089C0.0203107 39.167 0.2241 39.7061 0.594168 40.1239C0.964237 40.5416 1.47482 40.809 2.02899 40.8751C4.6653 41.2075 7.09471 42.4752 8.87524 44.4476C9.33899 44.9476 11.544 46.9564 13.1252 48.3376C13.6314 48.7646 14.166 49.1567 14.7252 49.5114C16.0313 50.2238 17.1235 51.2719 17.889 52.5476C18.3364 53.3715 18.5316 54.3087 18.4502 55.2426L18.4427 55.4064C18.349 56.1662 18.1999 56.9183 17.9965 57.6564C17.9301 57.936 17.9278 58.2271 17.9899 58.5078C18.052 58.7884 18.1769 59.0514 18.3551 59.2769C18.5334 59.5024 18.7604 59.6846 19.0191 59.8099C19.2778 59.9351 19.5615 60.0002 19.849 60.0001H26.0602C26.6206 60.0023 27.1614 59.794 27.5756 59.4164C27.9897 59.0389 28.247 58.5196 28.2965 57.9614C28.3354 57.1236 28.45 56.291 28.639 55.4739C28.8297 54.8993 29.1144 54.3603 29.4815 53.8789C31.9741 54.0372 34.4767 53.9173 36.9427 53.5214C37.0534 53.7758 37.127 54.0448 37.1615 54.3201C37.1845 55.2638 37.0301 56.2034 36.7065 57.0901C36.5998 57.4251 36.5737 57.7805 36.6304 58.1275C36.6871 58.4744 36.8249 58.8031 37.0326 59.0867C37.2403 59.3704 37.5121 59.6009 37.8258 59.7596C38.1395 59.9184 38.4862 60.0008 38.8377 60.0001H45.3165C45.6409 60.0003 45.9619 59.9336 46.2595 59.8042C46.557 59.6748 46.8247 59.4856 47.0459 59.2482C47.267 59.0108 47.437 58.7305 47.545 58.4245C47.6531 58.1186 47.697 57.7937 47.674 57.4701C47.5882 56.6079 47.5544 55.7414 47.5727 54.8751C47.6603 53.4793 47.9665 52.1059 48.4802 50.8051C48.9544 49.6105 49.679 48.5313 50.6052 47.6401C52.8193 45.9797 54.6284 43.8392 55.8967 41.3794C57.1649 38.9195 57.8593 36.2043 57.9277 33.4376C57.9267 31.9023 57.7092 30.3747 57.2815 28.9001C58.2513 28.0327 59.0003 26.9466 59.4664 25.7318C59.9325 24.517 60.1022 23.2086 59.9615 21.9151Z" fill="#D328F9"/>
<path d="M33.7563 20.08C35.742 20.08 37.6832 19.4912 39.3342 18.388C40.9853 17.2847 42.2722 15.7167 43.0321 13.8821C43.792 12.0476 43.9908 10.0289 43.6034 8.0813C43.216 6.13373 42.2598 4.34477 40.8557 2.94065C39.4515 1.53653 37.6626 0.580316 35.715 0.19292C33.7674 -0.194475 31.7487 0.00435017 29.9142 0.764254C28.0796 1.52416 26.5116 2.81101 25.4084 4.46208C24.3051 6.11315 23.7163 8.05428 23.7163 10.04C23.7193 12.7019 24.778 15.2538 26.6602 17.1361C28.5425 19.0183 31.0944 20.077 33.7563 20.08ZM33.7563 2.5C35.2476 2.5 36.7054 2.94222 37.9453 3.77072C39.1853 4.59923 40.1517 5.77682 40.7224 7.15457C41.293 8.53233 41.4424 10.0484 41.1514 11.511C40.8605 12.9736 40.1424 14.3171 39.0879 15.3716C38.0334 16.4261 36.6899 17.1442 35.2273 17.4351C33.7647 17.7261 32.2486 17.5767 30.8709 17.0061C29.4931 16.4354 28.3155 15.469 27.487 14.229C26.6585 12.9891 26.2163 11.5313 26.2163 10.04C26.2186 8.04098 27.0138 6.1245 28.4273 4.71098C29.8408 3.29745 31.7573 2.50232 33.7563 2.5Z" fill="#D328F9"/>
<path d="M32.7249 11.2897H34.5449C34.6847 11.2964 34.8166 11.3567 34.9133 11.458C35.0099 11.5594 35.0638 11.694 35.0638 11.8341C35.0638 11.9741 35.0099 12.1087 34.9133 12.2101C34.8166 12.3115 34.6847 12.3717 34.5449 12.3784H32.7249C32.6413 12.3788 32.5587 12.3598 32.4837 12.323C32.4086 12.2861 32.3431 12.2324 32.2924 12.1659C32.1944 12.0308 32.0703 11.9167 31.9275 11.8303C31.7846 11.7439 31.626 11.687 31.4608 11.6629C31.2956 11.6388 31.1273 11.648 30.9657 11.6901C30.8042 11.7321 30.6527 11.8061 30.5202 11.9076C30.3877 12.0091 30.2769 12.1361 30.1943 12.2812C30.1117 12.4262 30.0589 12.5864 30.0392 12.7521C30.0195 12.9179 30.0332 13.0859 30.0794 13.2463C30.1257 13.4067 30.2036 13.5562 30.3086 13.6859C30.5579 14.0095 30.8707 14.2787 31.2277 14.477C31.5847 14.6754 31.9785 14.7988 32.3849 14.8397V15.7497C32.3849 16.0812 32.5166 16.3991 32.751 16.6336C32.9854 16.868 33.3033 16.9997 33.6349 16.9997C33.9664 16.9997 34.2843 16.868 34.5187 16.6336C34.7532 16.3991 34.8849 16.0812 34.8849 15.7497V14.8509C35.6587 14.7676 36.3711 14.3902 36.8747 13.7967C37.3783 13.2033 37.6348 12.4391 37.5912 11.6619C37.5475 10.8848 37.2071 10.1541 36.6402 9.62075C36.0733 9.0874 35.3232 8.79214 34.5449 8.79594H32.7249C32.585 8.78923 32.4531 8.72895 32.3565 8.6276C32.2599 8.52624 32.206 8.39159 32.206 8.25156C32.206 8.11154 32.2599 7.97688 32.3565 7.87553C32.4531 7.77417 32.585 7.71389 32.7249 7.70719H34.5449C34.6306 7.70723 34.7152 7.72751 34.7916 7.76639C34.8681 7.80527 34.9343 7.86165 34.9849 7.93094C35.1825 8.19814 35.4781 8.37591 35.8067 8.42514C36.1354 8.47437 36.4702 8.39102 36.7374 8.19344C37.0046 7.99585 37.1823 7.70021 37.2316 7.37155C37.2808 7.0429 37.1975 6.70814 36.9999 6.44094C36.7491 6.10665 36.432 5.82767 36.0685 5.62141C35.7051 5.41516 35.303 5.28606 34.8874 5.24219V4.33594C34.8874 4.00442 34.7557 3.68647 34.5212 3.45205C34.2868 3.21763 33.9689 3.08594 33.6374 3.08594C33.3058 3.08594 32.9879 3.21763 32.7535 3.45205C32.5191 3.68647 32.3874 4.00442 32.3874 4.33594V5.23594C31.6158 5.32208 30.9066 5.70048 30.4054 6.29337C29.9043 6.88626 29.6493 7.64859 29.6928 8.4237C29.7363 9.1988 30.0751 9.92779 30.6395 10.4608C31.2039 10.9939 31.951 11.2905 32.7274 11.2897H32.7249ZM12.7349 25.6609V27.4222C12.7349 27.7537 12.8666 28.0716 13.101 28.3061C13.3354 28.5405 13.6533 28.6722 13.9849 28.6722C14.3164 28.6722 14.6343 28.5405 14.8687 28.3061C15.1032 28.0716 15.2349 27.7537 15.2349 27.4222V25.6609C15.2349 25.3294 15.1032 25.0115 14.8687 24.7771C14.6343 24.5426 14.3164 24.4109 13.9849 24.4109C13.6533 24.4109 13.3354 24.5426 13.101 24.7771C12.8666 25.0115 12.7349 25.3294 12.7349 25.6609Z" fill="#D328F9"/>
</g>
<defs>
<clipPath id="clip0_44_13707">
<rect width="60" height="60" fill="white"/>
</clipPath>
</defs>
</svg>
